<svg xmlns="http://www.w3.org/2000/svg" xmlns:xlink="http://www.w3.org/1999/xlink" width="79.999" height="20" viewBox="0 0 79.999 20">
  <defs>
    <clipPath id="clip-path">
      <rect id="Rectangle_1" data-name="Rectangle 1" width="16" height="20" transform="translate(285 597)" fill="#222"/>
    </clipPath>
  </defs>
  <g id="Group_31" data-name="Group 31" transform="translate(-105.666 -32)">
    <path id="Path_2" data-name="Path 2" d="M303.592,466.333l2.173-5.667,1.909,5.667,5.992.267-4.477,3.733,1.58,6-5-3.333-4.938,3.333,1.58-6-4.741-3.733Z" transform="translate(-192 -428)" fill="#222"/>
    <path id="Path_3" data-name="Path 3" d="M303.592,466.333l2.173-5.667,1.909,5.667,5.992.267-4.477,3.733,1.58,6-5-3.333-4.938,3.333,1.58-6-4.741-3.733Z" transform="translate(-160 -428)" fill="#e2dfe3"/>
    <path id="Path_4" data-name="Path 4" d="M303.592,466.333l2.173-5.667,1.909,5.667,5.992.267-4.477,3.733,1.58,6-5-3.333-4.938,3.333,1.58-6-4.741-3.733Z" transform="translate(-144.001 -428)" fill="#e2dfe3"/>
    <path id="Path_5" data-name="Path 5" d="M303.592,466.333l2.173-5.667,1.909,5.667,5.992.267-4.477,3.733,1.58,6-5-3.333-4.938,3.333,1.58-6-4.741-3.733Z" transform="translate(-128.001 -428)" fill="#e2dfe3"/>
    <path id="Path_8" data-name="Path 8" d="M303.592,466.333l2.173-5.667,1.909,5.667,5.992.267-4.477,3.733,1.58,6-5-3.333-4.938,3.333,1.58-6-4.741-3.733Z" transform="translate(-176 -428)" fill="#e2dfe3"/>
    <g id="Mask_Group_1" data-name="Mask Group 1" transform="translate(-176 -565)" clip-path="url(#clip-path)">
      <path id="Path_7" data-name="Path 7" d="M303.592,466.333l2.173-5.667,1.909,5.667,5.992.267-4.477,3.733,1.58,6-5-3.333-4.938,3.333,1.58-6-4.741-3.733Z" transform="translate(0 137)" fill="#222"/>
    </g>
  </g>
</svg>
