<svg xmlns="http://www.w3.org/2000/svg" xmlns:xlink="http://www.w3.org/1999/xlink" width="79.999" height="20.402" viewBox="0 0 79.999 20.402">
  <defs>
    <clipPath id="clip-path">
      <rect id="Rectangle_16" data-name="Rectangle 16" width="23.2" height="20" transform="matrix(1, -0.017, 0.017, 1, 283.827, 597.159)" fill="#222"/>
    </clipPath>
  </defs>
  <g id="Group_37" data-name="Group 37" transform="translate(-105.666 -152.754)">
    <path id="Path_93" data-name="Path 93" d="M303.592,466.333l2.173-5.667,1.909,5.667,5.992.267-4.477,3.733,1.58,6-5-3.333-4.938,3.333,1.58-6-4.741-3.733Z" transform="translate(-192 -307)" fill="#222"/>
    <path id="Path_96" data-name="Path 96" d="M303.592,466.333l2.173-5.667,1.909,5.667,5.992.267-4.477,3.733,1.58,6-5-3.333-4.938,3.333,1.58-6-4.741-3.733Z" transform="translate(-160 -307)" fill="#e2dfe3"/>
    <path id="Path_97" data-name="Path 97" d="M303.592,466.333l2.173-5.667,1.909,5.667,5.992.267-4.477,3.733,1.58,6-5-3.333-4.938,3.333,1.58-6-4.741-3.733Z" transform="translate(-144.001 -307)" fill="#e2dfe3"/>
    <path id="Path_98" data-name="Path 98" d="M303.592,466.333l2.173-5.667,1.909,5.667,5.992.267-4.477,3.733,1.58,6-5-3.333-4.938,3.333,1.58-6-4.741-3.733Z" transform="translate(-128.001 -307)" fill="#e2dfe3"/>
    <path id="Path_95" data-name="Path 95" d="M303.592,466.333l2.173-5.667,1.909,5.667,5.992.267-4.477,3.733,1.58,6-5-3.333-4.938,3.333,1.58-6-4.741-3.733Z" transform="translate(-176 -307)" fill="#e2dfe3"/>
    <g id="Mask_Group_16" data-name="Mask Group 16" transform="translate(-176 -444)" clip-path="url(#clip-path)">
      <path id="Path_94" data-name="Path 94" d="M303.592,466.333l2.173-5.667,1.909,5.667,5.992.267-4.477,3.733,1.58,6-5-3.333-4.938,3.333,1.58-6-4.741-3.733Z" transform="translate(0 137)" fill="#222"/>
    </g>
  </g>
</svg>
