<svg xmlns="http://www.w3.org/2000/svg" xmlns:xlink="http://www.w3.org/1999/xlink" width="78.999" height="20" viewBox="0 0 78.999 20">
  <defs>
    <clipPath id="clip-path">
      <rect id="Rectangle_5" data-name="Rectangle 5" width="18" height="20" transform="translate(285 597)" fill="#222"/>
    </clipPath>
  </defs>
  <g id="Group_42" data-name="Group 42" transform="translate(-212.666 -48)">
    <path id="Path_27" data-name="Path 27" d="M303.592,466.333l2.173-5.667,1.909,5.667,5.992.267-4.477,3.733,1.58,6-5-3.333-4.938,3.333,1.58-6-4.741-3.733Z" transform="translate(-85 -412)" fill="#222"/>
    <path id="Path_28" data-name="Path 28" d="M303.592,466.333l2.173-5.667,1.909,5.667,5.992.267-4.477,3.733,1.58,6-5-3.333-4.938,3.333,1.58-6-4.741-3.733Z" transform="translate(-69 -412)" fill="#222"/>
    <path id="Path_29" data-name="Path 29" d="M303.592,466.333l2.173-5.667,1.909,5.667,5.992.267-4.477,3.733,1.58,6-5-3.333-4.938,3.333,1.58-6-4.741-3.733Z" transform="translate(-38.001 -412)" fill="#e2dfe3"/>
    <path id="Path_30" data-name="Path 30" d="M303.592,466.333l2.173-5.667,1.909,5.667,5.992.267-4.477,3.733,1.58,6-5-3.333-4.938,3.333,1.58-6-4.741-3.733Z" transform="translate(-22.001 -412)" fill="#e2dfe3"/>
    <path id="Path_31" data-name="Path 31" d="M303.592,466.333l2.173-5.667,1.909,5.667,5.992.267-4.477,3.733,1.58,6-5-3.333-4.938,3.333,1.58-6-4.741-3.733Z" transform="translate(-54 -412)" fill="#e2dfe3"/>
    <g id="Mask_Group_5" data-name="Mask Group 5" transform="translate(-54 -549)" clip-path="url(#clip-path)">
      <path id="Path_32" data-name="Path 32" d="M303.592,466.333l2.173-5.667,1.909,5.667,5.992.267-4.477,3.733,1.58,6-5-3.333-4.938,3.333,1.58-6-4.741-3.733Z" transform="translate(0 137)" fill="#222"/>
    </g>
  </g>
</svg>
