<svg xmlns="http://www.w3.org/2000/svg" xmlns:xlink="http://www.w3.org/1999/xlink" width="78.999" height="20.346" viewBox="0 0 78.999 20.346">
  <defs>
    <clipPath id="clip-path">
      <rect id="Rectangle_3" data-name="Rectangle 3" width="20" height="20" transform="matrix(1, -0.017, 0.017, 1, 284.827, 597.159)" fill="#222"/>
    </clipPath>
  </defs>
  <g id="Group_44" data-name="Group 44" transform="translate(-212.666 -88.81)">
    <path id="Path_15" data-name="Path 15" d="M303.592,466.333l2.173-5.667,1.909,5.667,5.992.267-4.477,3.733,1.58,6-5-3.333-4.938,3.333,1.58-6-4.741-3.733Z" transform="translate(-85 -371)" fill="#222"/>
    <path id="Path_16" data-name="Path 16" d="M303.592,466.333l2.173-5.667,1.909,5.667,5.992.267-4.477,3.733,1.58,6-5-3.333-4.938,3.333,1.58-6-4.741-3.733Z" transform="translate(-69 -371)" fill="#222"/>
    <path id="Path_17" data-name="Path 17" d="M303.592,466.333l2.173-5.667,1.909,5.667,5.992.267-4.477,3.733,1.58,6-5-3.333-4.938,3.333,1.58-6-4.741-3.733Z" transform="translate(-38.001 -371)" fill="#e2dfe3"/>
    <path id="Path_18" data-name="Path 18" d="M303.592,466.333l2.173-5.667,1.909,5.667,5.992.267-4.477,3.733,1.58,6-5-3.333-4.938,3.333,1.58-6-4.741-3.733Z" transform="translate(-22.001 -371)" fill="#e2dfe3"/>
    <path id="Path_19" data-name="Path 19" d="M303.592,466.333l2.173-5.667,1.909,5.667,5.992.267-4.477,3.733,1.58,6-5-3.333-4.938,3.333,1.58-6-4.741-3.733Z" transform="translate(-54 -371)" fill="#e2dfe3"/>
    <g id="Mask_Group_3" data-name="Mask Group 3" transform="translate(-54 -508)" clip-path="url(#clip-path)">
      <path id="Path_20" data-name="Path 20" d="M303.592,466.333l2.173-5.667,1.909,5.667,5.992.267-4.477,3.733,1.58,6-5-3.333-4.938,3.333,1.58-6-4.741-3.733Z" transform="translate(0 137)" fill="#222"/>
    </g>
  </g>
</svg>
