<svg xmlns="http://www.w3.org/2000/svg" xmlns:xlink="http://www.w3.org/1999/xlink" width="79.999" height="20.346" viewBox="0 0 79.999 20.346">
  <defs>
    <clipPath id="clip-path">
      <rect id="Rectangle_9" data-name="Rectangle 9" width="20" height="20" transform="matrix(1, -0.017, 0.017, 1, 284.827, 597.159)" fill="#222"/>
    </clipPath>
  </defs>
  <g id="Group_54" data-name="Group 54" transform="translate(-322.666 -93.81)">
    <path id="Path_48" data-name="Path 48" d="M303.592,466.333l2.173-5.667,1.909,5.667,5.992.267-4.477,3.733,1.58,6-5-3.333-4.938,3.333,1.58-6-4.741-3.733Z" transform="translate(25 -366)" fill="#222"/>
    <path id="Path_49" data-name="Path 49" d="M303.592,466.333l2.173-5.667,1.909,5.667,5.992.267-4.477,3.733,1.58,6-5-3.333-4.938,3.333,1.58-6-4.741-3.733Z" transform="translate(41 -366)" fill="#222"/>
    <path id="Path_50" data-name="Path 50" d="M303.592,466.333l2.173-5.667,1.909,5.667,5.992.267-4.477,3.733,1.58,6-5-3.333-4.938,3.333,1.58-6-4.741-3.733Z" transform="translate(56.999 -366)" fill="#222"/>
    <path id="Path_51" data-name="Path 51" d="M303.592,466.333l2.173-5.667,1.909,5.667,5.992.267-4.477,3.733,1.58,6-5-3.333-4.938,3.333,1.58-6-4.741-3.733Z" transform="translate(88.999 -366)" fill="#e2dfe3"/>
    <path id="Path_52" data-name="Path 52" d="M303.592,466.333l2.173-5.667,1.909,5.667,5.992.267-4.477,3.733,1.58,6-5-3.333-4.938,3.333,1.58-6-4.741-3.733Z" transform="translate(73 -366)" fill="#e2dfe3"/>
    <g id="Mask_Group_9" data-name="Mask Group 9" transform="translate(73 -503)" clip-path="url(#clip-path)">
      <path id="Path_53" data-name="Path 53" d="M303.592,466.333l2.173-5.667,1.909,5.667,5.992.267-4.477,3.733,1.58,6-5-3.333-4.938,3.333,1.58-6-4.741-3.733Z" transform="translate(0 137)" fill="#222"/>
    </g>
  </g>
</svg>
