<svg xmlns="http://www.w3.org/2000/svg" xmlns:xlink="http://www.w3.org/1999/xlink" width="80" height="20" viewBox="0 0 80 20">
  <defs>
    <clipPath id="clip-path">
      <rect id="Rectangle_13" data-name="Rectangle 13" width="16" height="20" transform="translate(285 597)" fill="#222"/>
    </clipPath>
  </defs>
  <g id="Group_61" data-name="Group 61" transform="translate(-432.667 -27)">
    <path id="Path_63" data-name="Path 63" d="M303.592,466.333l2.173-5.667,1.909,5.667,5.992.267-4.477,3.733,1.58,6-5-3.333-4.938,3.333,1.58-6-4.741-3.733Z" transform="translate(135 -433)" fill="#222"/>
    <path id="Path_67" data-name="Path 67" d="M303.592,466.333l2.173-5.667,1.909,5.667,5.992.267-4.477,3.733,1.58,6-5-3.333-4.938,3.333,1.58-6-4.741-3.733Z" transform="translate(151 -433)" fill="#222"/>
    <path id="Path_68" data-name="Path 68" d="M303.592,466.333l2.173-5.667,1.909,5.667,5.992.267-4.477,3.733,1.58,6-5-3.333-4.938,3.333,1.58-6-4.741-3.733Z" transform="translate(166.999 -433)" fill="#222"/>
    <path id="Path_85" data-name="Path 85" d="M303.592,466.333l2.173-5.667,1.909,5.667,5.992.267-4.477,3.733,1.58,6-5-3.333-4.938,3.333,1.58-6-4.741-3.733Z" transform="translate(182.999 -433)" fill="#222"/>
    <path id="Path_86" data-name="Path 86" d="M303.592,466.333l2.173-5.667,1.909,5.667,5.992.267-4.477,3.733,1.58,6-5-3.333-4.938,3.333,1.58-6-4.741-3.733Z" transform="translate(199 -433)" fill="#e2dfe3"/>
    <g id="Mask_Group_13" data-name="Mask Group 13" transform="translate(199 -570)" clip-path="url(#clip-path)">
      <path id="Path_74" data-name="Path 74" d="M303.592,466.333l2.173-5.667,1.909,5.667,5.992.267-4.477,3.733,1.58,6-5-3.333-4.938,3.333,1.58-6-4.741-3.733Z" transform="translate(0 137)" fill="#222"/>
    </g>
  </g>
</svg>
