<svg xmlns="http://www.w3.org/2000/svg" xmlns:xlink="http://www.w3.org/1999/xlink" width="80" height="20" viewBox="0 0 80 20">
  <defs>
    <clipPath id="clip-path">
      <rect id="Rectangle_12" data-name="Rectangle 12" width="18" height="20" transform="translate(285 597)" fill="#222"/>
    </clipPath>
  </defs>
  <g id="Group_62" data-name="Group 62" transform="translate(-432.666 -47)">
    <path id="Path_64" data-name="Path 64" d="M303.592,466.333l2.173-5.667,1.909,5.667,5.992.267-4.477,3.733,1.58,6-5-3.333-4.938,3.333,1.58-6-4.741-3.733Z" transform="translate(135 -413)" fill="#222"/>
    <path id="Path_65" data-name="Path 65" d="M303.592,466.333l2.173-5.667,1.909,5.667,5.992.267-4.477,3.733,1.58,6-5-3.333-4.938,3.333,1.58-6-4.741-3.733Z" transform="translate(151 -413)" fill="#222"/>
    <path id="Path_66" data-name="Path 66" d="M303.592,466.333l2.173-5.667,1.909,5.667,5.992.267-4.477,3.733,1.58,6-5-3.333-4.938,3.333,1.58-6-4.741-3.733Z" transform="translate(166.999 -413)" fill="#222"/>
    <path id="Path_83" data-name="Path 83" d="M303.592,466.333l2.173-5.667,1.909,5.667,5.992.267-4.477,3.733,1.58,6-5-3.333-4.938,3.333,1.58-6-4.741-3.733Z" transform="translate(182.999 -413)" fill="#222"/>
    <path id="Path_84" data-name="Path 84" d="M303.592,466.333l2.173-5.667,1.909,5.667,5.992.267-4.477,3.733,1.58,6-5-3.333-4.938,3.333,1.58-6-4.741-3.733Z" transform="translate(199 -413)" fill="#e2dfe3"/>
    <g id="Mask_Group_12" data-name="Mask Group 12" transform="translate(199 -550)" clip-path="url(#clip-path)">
      <path id="Path_73" data-name="Path 73" d="M303.592,466.333l2.173-5.667,1.909,5.667,5.992.267-4.477,3.733,1.58,6-5-3.333-4.938,3.333,1.58-6-4.741-3.733Z" transform="translate(0 137)" fill="#222"/>
    </g>
  </g>
</svg>
