<svg xmlns="http://www.w3.org/2000/svg" xmlns:xlink="http://www.w3.org/1999/xlink" width="80.505" height="20.503" viewBox="0 0 80.505 20.503">
  <defs>
    <clipPath id="clip-path">
      <rect id="Rectangle_20" data-name="Rectangle 20" width="29" height="20" transform="matrix(1, -0.017, 0.017, 1, 284.827, 597.159)" fill="#222"/>
    </clipPath>
  </defs>
  <g id="Group_70" data-name="Group 70" transform="translate(-542.667 -11.652)">
    <g id="Group_26" data-name="Group 26" transform="translate(400 -646)">
      <path id="Path_117" data-name="Path 117" d="M303.592,466.333l2.173-5.667,1.909,5.667,5.992.267-4.477,3.733,1.58,6-5-3.333-4.938,3.333,1.58-6-4.741-3.733Z" transform="translate(-155 198)" fill="#222"/>
      <path id="Path_118" data-name="Path 118" d="M303.592,466.333l2.173-5.667,1.909,5.667,5.992.267-4.477,3.733,1.58,6-5-3.333-4.938,3.333,1.58-6-4.741-3.733Z" transform="translate(-139 198)" fill="#222"/>
      <path id="Path_119" data-name="Path 119" d="M303.592,466.333l2.173-5.667,1.909,5.667,5.992.267-4.477,3.733,1.58,6-5-3.333-4.938,3.333,1.58-6-4.741-3.733Z" transform="translate(-123.001 198)" fill="#222"/>
      <path id="Path_120" data-name="Path 120" d="M303.592,466.333l2.173-5.667,1.909,5.667,5.992.267-4.477,3.733,1.58,6-5-3.333-4.938,3.333,1.58-6-4.741-3.733Z" transform="translate(-107.001 198)" fill="#222"/>
      <path id="Path_122" data-name="Path 122" d="M303.592,466.333l2.173-5.667,1.909,5.667,5.992.267-4.477,3.733,1.58,6-5-3.333-4.938,3.333,1.58-6-4.741-3.733Z" transform="translate(-91 198)" fill="#222"/>
      <g id="Mask_Group_20" data-name="Mask Group 20" transform="translate(-91 61)" clip-path="url(#clip-path)">
        <path id="Path_121" data-name="Path 121" d="M303.592,466.333l2.173-5.667,1.909,5.667,5.992.267-4.477,3.733,1.58,6-5-3.333-4.938,3.333,1.58-6-4.741-3.733Z" transform="translate(0 137)" fill="#222"/>
      </g>
    </g>
  </g>
</svg>
