<svg xmlns="http://www.w3.org/2000/svg" xmlns:xlink="http://www.w3.org/1999/xlink" width="511.127" height="511.48" viewBox="0 0 511.127 511.48">
  <defs>
    <linearGradient id="linear-gradient" x1="0.167" y1="0.654" x2="0.805" y2="0.65" gradientUnits="objectBoundingBox">
      <stop offset="0" stop-color="#6e14cf"/>
      <stop offset="1" stop-color="#c11f95"/>
    </linearGradient>
  </defs>
  <g id="Trending" transform="translate(-56.273 553.781)">
    <path id="Path_1" data-name="Path 1" d="M290-552.9c-48.7,4.2-92.9,21.5-134,52.3-11,8.2-35,31.7-43.6,42.6C61.1-392.9,44-310.9,65.1-231.2c8.4,31.7,25.7,65.9,47.3,93.2,7.7,9.7,29.9,31.9,39.6,39.6C210.3-52.3,282.8-33.7,355.9-46c41.2-7,84-26.5,116.7-53.1,51-41.4,83.4-99.1,93-165.4,2.4-16.5,2.4-50.5,0-67-5.9-40.7-19.1-75.4-41.2-108.5a256.523,256.523,0,0,0-142-103.9A262.18,262.18,0,0,0,290-552.9Zm81.7,114.6c-.3,1-11.4,27.6-24.6,59.1-13.3,31.5-24.1,57.7-24.1,58.3,0,.5,16.3,1,39.5,1.1l39.5.3-61.2,91.2c-33.7,50.1-61.4,91-61.6,90.8-.2-.1,6.2-28.1,14.2-62.1,8.1-34.1,14.6-62.2,14.6-62.7,0-.4-19.4-.7-43.1-.7-40.6,0-43.1-.1-42.5-1.8.4-.9,15.8-40.5,34.3-87.9l33.6-86.2,10.1-.4c5.6-.1,24-.4,41-.5C370.4-440,372.2-439.9,371.7-438.3Z" fill="url(#linear-gradient)"/>
  </g>
</svg>
