<?xml version="1.0" standalone="no"?>
<!DOCTYPE svg PUBLIC "-//W3C//DTD SVG 1.1//EN" "http://www.w3.org/Graphics/SVG/1.1/DTD/svg11.dtd" >
<svg xmlns="http://www.w3.org/2000/svg" xmlns:xlink="http://www.w3.org/1999/xlink" version="1.1">
<metadata>
Created by FontForge 20170731 at Tue Mar 23 13:58:04 2021
 By Aleksey,,,
Copyright (c) Olivier Gourvat - Mostardesign Studio, 2012. All rights reserved.
</metadata>
<defs>
<font id="SofiaPro-UltraLight" horiz-adv-x="1284" >
  <font-face 
    font-family="Sofia Pro Ultra Light"
    font-weight="250"
    font-stretch="normal"
    units-per-em="2048"
    panose-1="2 11 0 0 0 0 0 0 0 0"
    ascent="1559"
    descent="-489"
    x-height="956"
    cap-height="1411"
    bbox="-317 -479 2269 2060"
    underline-thickness="102"
    underline-position="-307"
    unicode-range="U+0020-FB04"
  />
<missing-glyph horiz-adv-x="1300" 
d="M1137 0h-973v1362h973v-1362zM379 883h127q0 75 42.5 122.5t108.5 47.5q67 0 115.5 -42.5t48.5 -107.5q0 -62 -49 -102q-30 -34 -67 -43q-96 -27 -143.5 -80t-47.5 -146v-77h127v77q0 43 24.5 66t77.5 37q90 27 146.5 99.5t56.5 168.5q0 122 -86 199q-84 78 -203 78
q-116 0 -198 -82q-80 -83 -80 -215zM580 180q37 0 64.5 26t27.5 62t-27.5 62t-64.5 26q-39 0 -67 -26t-28 -62t28 -62t67 -26z" />
    <glyph glyph-name="f_f" unicode="ff" horiz-adv-x="1308" 
d="M934 0v901h-615v-901h-61v901h-197v55h197v162q0 402 320 402h69v-62h-69q-259 0 -259 -340v-162h615v162q0 402 319 402h70v-62h-70q-258 0 -258 -340v-162h271v-55h-271v-901h-61z" />
    <glyph glyph-name="fi" unicode="fi" horiz-adv-x="1124" 
d="M950 0h-61v901h-570v-901h-61v901h-197v55h197v162q0 402 320 402h69v-62h-69q-259 0 -259 -340v-162h631v-956zM856 1309q0 26 18.5 42.5t45.5 16.5q29 0 47 -16.5t18 -42.5q0 -25 -18 -41.5t-47 -16.5q-26 0 -45 16.5t-19 41.5z" />
    <glyph glyph-name="fl" unicode="fl" horiz-adv-x="1095" 
d="M918 0h-62v1458h-278q-259 0 -259 -340v-162h271v-55h-271v-901h-61v901h-197v55h197v162q0 402 320 402h340v-1520z" />
    <glyph glyph-name="f_f_i" unicode="ffi" horiz-adv-x="1800" 
d="M1626 0h-61v901h-570v-901h-61v901h-615v-901h-61v901h-197v55h197v162q0 402 320 402h69v-62h-69q-259 0 -259 -340v-162h615v162q0 402 319 402h70v-62h-70q-258 0 -258 -340v-162h631v-956zM1532 1309q0 26 18 42.5t45 16.5q29 0 47.5 -16.5t18.5 -42.5
q0 -25 -18.5 -41.5t-47.5 -16.5q-26 0 -44.5 16.5t-18.5 41.5z" />
    <glyph glyph-name="f_f_l" unicode="ffl" horiz-adv-x="1771" 
d="M1593 0h-61v1458h-279q-258 0 -258 -340v-162h271v-55h-271v-901h-61v901h-615v-901h-61v901h-197v55h197v162q0 402 320 402h69v-62h-69q-259 0 -259 -340v-162h615v162q0 402 319 402h340v-1520z" />
    <glyph glyph-name="f_f_j" unicode="ffj" horiz-adv-x="1828" 
d="M995 956h660v-1026q0 -401 -320 -401h-69v61h69q258 0 258 340v971h-598v-901h-61v901h-615v-901h-61v901h-197v55h197v162q0 402 320 402h69v-62h-69q-259 0 -259 -340v-162h615v162q0 402 319 402h70v-62h-70q-258 0 -258 -340v-162zM1561 1309q0 26 18 42.5t45 16.5
q29 0 47.5 -16.5t18.5 -42.5q0 -25 -18.5 -41.5t-47.5 -16.5q-26 0 -44.5 16.5t-18.5 41.5z" />
    <glyph glyph-name="f_j" unicode="fj" horiz-adv-x="1153" 
d="M319 956h660v-1026q0 -401 -320 -401h-69v61h69q259 0 259 340v971h-599v-901h-61v901h-197v55h197v162q0 402 320 402h69v-62h-69q-259 0 -259 -340v-162zM885 1309q0 26 18 42.5t45 16.5q29 0 47.5 -16.5t18.5 -42.5q0 -25 -18.5 -41.5t-47.5 -16.5q-26 0 -44.5 16.5
t-18.5 41.5z" />
    <glyph glyph-name=".notdef" horiz-adv-x="1300" 
d="M1137 0h-973v1362h973v-1362zM379 883h127q0 75 42.5 122.5t108.5 47.5q67 0 115.5 -42.5t48.5 -107.5q0 -62 -49 -102q-30 -34 -67 -43q-96 -27 -143.5 -80t-47.5 -146v-77h127v77q0 43 24.5 66t77.5 37q90 27 146.5 99.5t56.5 168.5q0 122 -86 199q-84 78 -203 78
q-116 0 -198 -82q-80 -83 -80 -215zM580 180q37 0 64.5 26t27.5 62t-27.5 62t-64.5 26q-39 0 -67 -26t-28 -62t28 -62t67 -26z" />
    <glyph glyph-name=".null" horiz-adv-x="0" 
 />
    <glyph glyph-name="nonmarkingreturn" horiz-adv-x="682" 
 />
    <glyph glyph-name="space" unicode=" " horiz-adv-x="561" 
 />
    <glyph glyph-name="exclam" unicode="!" horiz-adv-x="479" 
d="M209 317v1094h61v-1094h-61zM176 49q0 26 18.5 43t45.5 17q29 0 47 -17t18 -43q0 -25 -18 -41t-47 -16q-27 0 -45.5 16.5t-18.5 40.5z" />
    <glyph glyph-name="quotedbl" unicode="&#x22;" horiz-adv-x="585" 
d="M170 905v506h61v-506h-61zM354 905v506h62v-506h-62z" />
    <glyph glyph-name="numbersign" unicode="#" horiz-adv-x="1488" 
d="M1214 1411l-106 -381h295l-17 -61h-294l-148 -535h295l-16 -61h-295l-103 -373h-61l102 373h-422l-102 -373h-61l102 373h-295l16 61h295l148 535h-295l16 61h297l105 381h61l-106 -381h424l104 381h61zM1030 969h-422l-147 -535h422z" />
    <glyph glyph-name="dollar" unicode="$" horiz-adv-x="1116" 
d="M535 1632h61v-207q157 -14 259.5 -105.5t115.5 -236.5h-62q-13 128 -113 205.5t-249 77.5q-144 0 -256 -86q-111 -86 -111 -217q0 -216 271 -275l200 -47q194 -43 293.5 -152t71.5 -282q-24 -125 -135 -219q-107 -94 -285 -106v-234h-61v232q-175 6 -291 110
q-114 108 -135 250h61q21 -122 123 -211q104 -88 256 -88q171 0 278 82q108 83 129 196q22 143 -63.5 233.5t-253.5 129.5l-201 47q-319 70 -319 334q0 155 125 256q126 105 291 108v205z" />
    <glyph glyph-name="percent" unicode="%" horiz-adv-x="1335" 
d="M332 1378q104 0 174 -73q74 -71 74 -175t-72 -176q-69 -69 -176 -69t-176 69q-70 70 -70 176q0 104 71 176t175 72zM358 0h-69l663 1360h66zM201 1262q-54 -54 -54 -131.5t54 -131.5t131 -54t131 54q55 54 55 131.5t-55 131.5q-54 56 -131 56t-131 -56zM1006 475
q103 0 174 -74q73 -70 73 -174q0 -105 -71 -176q-69 -69 -176 -69q-108 0 -177 69t-69 176q0 104 71 176t175 72zM1192 227q0 75 -55.5 131t-130.5 56q-57 4 -103.5 -31t-67 -85t-12 -107.5t50.5 -94.5q37 -42 94.5 -50.5t107.5 11.5t85 66.5t31 103.5z" />
    <glyph glyph-name="ampersand" unicode="&#x26;" horiz-adv-x="1347" 
d="M569 39q165 0 273 102q109 103 112 256v389h-383q-163 0 -276 -110q-111 -108 -111 -262q0 -158 109 -267q108 -108 276 -108zM305 1106q0 -113 76.5 -187.5t193.5 -74.5h379v186h62v-188h196v-56h-196v-372q0 -183 50.5 -272.5t184.5 -100.5v-61q-108 0 -185 65t-95 184
q-40 -123 -160 -188q-116 -64 -244 -64q-194 0 -319 125t-125 312q0 122 78 241q74 116 207 164q-74 44 -119 124t-45 163q0 136 98 227q98 94 242 94q186 0 284 -131l-49 -36q-78 106 -235 106q-117 0 -199 -76q-80 -77 -80 -184z" />
    <glyph glyph-name="quotesingle" unicode="'" horiz-adv-x="401" 
d="M170 905v506h61v-506h-61z" />
    <glyph glyph-name="parenleft" unicode="(" horiz-adv-x="686" 
d="M608 1425v-61q-197 -15 -311 -252q-115 -236 -115 -639t115 -639q114 -237 311 -252v-61q-223 18 -356 268q-131 247 -131 684t131 684q133 250 356 268z" />
    <glyph glyph-name="parenright" unicode=")" horiz-adv-x="686" 
d="M78 -479v61q197 15 311 252q115 236 115 639t-115 639q-114 237 -311 252v61q223 -18 356 -268q131 -247 131 -684t-131 -684q-133 -250 -356 -268z" />
    <glyph glyph-name="asterisk" unicode="*" horiz-adv-x="933" 
d="M475 1053l-184 -267l-55 41l200 246l-305 86l23 66l292 -115l-18 317h74l-21 -317l301 115l19 -64l-305 -82l198 -252l-14 -10l-37 -24z" />
    <glyph glyph-name="plus" unicode="+" horiz-adv-x="1060" 
d="M129 561h371v369h61v-369h371v-61h-371v-373h-61v373h-371v61z" />
    <glyph glyph-name="comma" unicode="," horiz-adv-x="454" 
d="M131 -289l-47 19q123 170 117 391h61q3 -218 -131 -410z" />
    <glyph glyph-name="hyphen" unicode="-" horiz-adv-x="972" 
d="M158 430v62h657v-62h-657z" />
    <glyph glyph-name="period" unicode="." horiz-adv-x="444" 
d="M158 37q0 26 18 42.5t45 16.5q29 0 47.5 -16.5t18.5 -42.5q0 -25 -18.5 -41t-47.5 -16q-27 0 -45 16t-18 41z" />
    <glyph glyph-name="slash" unicode="/" horiz-adv-x="911" 
d="M80 0l684 1411h67l-684 -1411h-67z" />
    <glyph glyph-name="zero" unicode="0" horiz-adv-x="1245" 
d="M150 678q0 312 94 493q106 207 379 207q271 0 374 -207q95 -183 95 -493q0 -306 -95 -492q-102 -206 -374 -206q-274 0 -379 206q-94 184 -94 492zM1030 678q1 112 -10 203t-39 174t-73 139.5t-117.5 89.5t-167.5 33q-328 0 -394 -389q-18 -108 -18 -250q0 -278 82 -449
q48 -92 127 -139q82 -49 203 -49q118 0 200 49q117 76 160.5 218.5t46.5 369.5z" />
    <glyph glyph-name="one" unicode="1" horiz-adv-x="610" 
d="M391 0h-61v1262l-244 -91v66l305 113v-1350z" />
    <glyph glyph-name="two" unicode="2" horiz-adv-x="1034" 
d="M903 61v-61h-780v23l575 679q133 154 133 304q0 137 -92 223q-88 88 -231 88q-119 0 -209 -60.5t-119 -162.5l-59 16q32 122 138.5 195t248.5 73q169 0 276 -104q109 -106 109 -268q0 -168 -148 -342l-509 -603h667z" />
    <glyph glyph-name="three" unicode="3" horiz-adv-x="1118" 
d="M868 997q12 127 -72 218t-235 104q-95 9 -190 -41q-91 -46 -135 -123l-54 31q56 95 159.5 147t223.5 45q189 -15 283 -125q97 -106 82 -260q-6 -82 -59 -153.5t-134 -106.5q117 -28 187 -141t61 -236q-15 -168 -158 -278q-144 -108 -329 -96q-130 10 -234 78t-151 173
l55 25q42 -90 131.5 -149t202.5 -66q164 -9 284 80q120 88 138 239q0 156 -93 246t-225 90h-137v62h137q91 0 170 67q83 68 92 170z" />
    <glyph glyph-name="four" unicode="4" horiz-adv-x="1140" 
d="M1055 297h-217v-297h-62v297h-715l734 1063h43v-1002h217v-61zM776 1239l-602 -881h602v881z" />
    <glyph glyph-name="five" unicode="5" horiz-adv-x="1118" 
d="M913 1298h-577l-103 -561q194 84 345 84q165 0 296 -110q132 -111 132 -299q0 -189 -125 -308q-123 -120 -340 -120q-122 0 -246 71q-118 72 -184 183l53 30q56 -96 162 -159q107 -64 215 -64q187 0 295 102q108 105 108 265t-113 254t-253 94q-97 0 -187 -23
q-89 -24 -201 -78l-24 33l119 668h628v-62z" />
    <glyph glyph-name="six" unicode="6" horiz-adv-x="1128" 
d="M166 416l-10 157q-2 43 2 177q3 106 18 186q15 86 48.5 171.5t80.5 139.5q52 60 133 95.5t180 35.5q254 0 355 -235l-55 -25q-88 199 -302 199q-128 6 -212 -62t-125 -178q-27 -62 -39 -149q-21 -151 -21 -303v-54q40 126 146 192.5t243 61.5q176 -9 287 -135
q112 -124 109 -307q-9 -177 -134 -293q-119 -113 -297 -110q-170 3 -280 122q-112 121 -127 314zM227 418q-3 -158 99 -266t249 -111q151 -3 254 94q104 101 113 252q3 153 -92 262t-244 115q-155 3 -264 -94q-112 -100 -115 -252z" />
    <glyph glyph-name="seven" unicode="7" horiz-adv-x="1009" 
d="M215 0h-70l717 1298h-743v62h846z" />
    <glyph glyph-name="eight" unicode="8" horiz-adv-x="1142" 
d="M242 1067q0 133 94 221q96 90 233 90q144 0 240 -90t96 -221q0 -91 -49.5 -166t-134.5 -113q134 -43 215.5 -149.5t81.5 -239.5q0 -176 -129 -299q-129 -120 -320 -120t-317 120q-127 121 -127 299q0 133 80 241t211 151q-80 37 -127 110.5t-47 165.5zM186 399
q0 -150 109 -256q111 -102 274 -102q164 0 275 102q112 103 112 256q0 144 -110 248q-108 108 -266 111h-27q-154 -3 -262 -111q-105 -105 -105 -248zM557 813h23q112 3 188 76t76 178t-80 176q-77 74 -195 74q-113 0 -190 -74q-76 -70 -76 -176q0 -105 73 -179t181 -75z
" />
    <glyph glyph-name="nine" unicode="9" horiz-adv-x="1128" 
d="M969 942q3 -47 8 -160q3 -70 0 -176q-3 -98 -19 -184q-15 -86 -48.5 -171.5t-80.5 -139.5q-52 -60 -133 -95.5t-180 -35.5q-253 0 -354 235l55 25q88 -199 301 -199q66 -3 123 15.5t97.5 53.5t69.5 77t48 92q27 65 39 149q20 146 20 305v45q-37 -119 -146 -185t-243 -61
q-175 9 -288 134q-110 125 -107 309q9 177 131 293q122 113 299 110q168 -3 281 -125q112 -121 127 -311zM907 940q3 157 -100 266q-102 108 -248 111q-152 3 -254 -96q-103 -97 -112 -250q-3 -158 90 -264q94 -107 245 -113q156 -3 265 94q111 99 114 252z" />
    <glyph glyph-name="colon" unicode=":" horiz-adv-x="444" 
d="M158 918q0 26 18 42.5t45 16.5q29 0 47.5 -16.5t18.5 -42.5q0 -25 -18.5 -41.5t-47.5 -16.5q-26 0 -44.5 16.5t-18.5 41.5zM158 37q0 26 18 42.5t45 16.5q29 0 47.5 -16.5t18.5 -42.5q0 -25 -18.5 -41t-47.5 -16q-27 0 -45 16t-18 41z" />
    <glyph glyph-name="semicolon" unicode=";" horiz-adv-x="530" 
d="M221 918q0 26 18.5 42.5t45.5 16.5q29 0 47 -16.5t18 -42.5q0 -25 -18 -41.5t-47 -16.5q-26 0 -45 16.5t-19 41.5zM186 -289l-47 19q123 170 117 391h61q3 -218 -131 -410z" />
    <glyph glyph-name="less" unicode="&#x3c;" horiz-adv-x="1306" 
d="M1151 889l-969 -373l969 -369v-65l-1042 399v74l1042 399v-65z" />
    <glyph glyph-name="equal" unicode="=" horiz-adv-x="1245" 
d="M166 690v62h913v-62h-913zM166 254v61h913v-61h-913z" />
    <glyph glyph-name="greater" unicode="&#x3e;" horiz-adv-x="1306" 
d="M156 82v65l968 369l-968 373v65l1042 -399v-74z" />
    <glyph glyph-name="question" unicode="?" horiz-adv-x="968" 
d="M160 1083l-62 7q15 156 121 243q109 92 258 92q163 0 281 -106q119 -104 119 -270q0 -132 -77.5 -230.5t-201.5 -136.5q-119 -34 -168 -83.5t-49 -154.5v-127h-62v127q0 140 62 199q63 57 199 98q105 33 170 115.5t65 192.5q0 140 -100 227q-101 88 -238 88
q-129 0 -218 -77.5t-99 -203.5zM287 49q0 26 18 43t45 17q29 0 47.5 -17t18.5 -43q0 -25 -18.5 -41t-47.5 -16q-27 0 -45 16t-18 41z" />
    <glyph glyph-name="at" unicode="@" horiz-adv-x="2058" 
d="M1087 -410h-69q-383 3 -643 269q-260 263 -260 647q0 383 262 651q264 270 645 270q185 4 360.5 -64t306 -186t208 -284t73.5 -348q0 -63 -8 -127t-25 -130t-46.5 -123t-68.5 -102t-95 -70.5t-123 -25.5q-122 0 -193.5 64t-71.5 198v289q0 143 -100 240q-97 100 -240 100
q-141 0 -241 -100q-99 -99 -99 -240q0 -138 101 -239t239 -101q120 0 199 64v-68q-89 -57 -199 -57q-163 0 -282 119t-119 282q0 168 117 285q120 117 284 117q166 0 283 -117q119 -116 119 -285v-289q0 -101 55 -150.5t148 -49.5q65 0 118.5 33.5t87.5 86t57 122t32.5 138
t9.5 136.5q3 169 -69.5 324t-194.5 264.5t-286 173t-337 59.5q-354 0 -600 -252t-246 -608q0 -354 244 -604q241 -247 598 -250h69v-62z" />
    <glyph glyph-name="A" unicode="A" horiz-adv-x="1265" 
d="M989 393h-713l-151 -393h-66l541 1411h66l538 -1411h-65zM969 449l-336 876l-336 -876h672z" />
    <glyph glyph-name="B" unicode="B" horiz-adv-x="1265" 
d="M1067 1081q0 -112 -47 -201t-133 -126q112 -40 186 -154q74 -115 74 -223q0 -156 -107 -266q-105 -111 -274 -111h-549v1413h488q168 0 265 -87t97 -245zM737 721h-458v-660h487q141 0 231 93q88 94 88 223q0 115 -79 219q-80 105 -205 123q-14 2 -64 2zM705 1352h-426
v-574h479q31 0 39 2q100 20 154.5 102.5t54.5 198.5q0 128 -81.5 199.5t-219.5 71.5z" />
    <glyph glyph-name="C" unicode="C" horiz-adv-x="1345" 
d="M1229 199l41 -45q-192 -174 -457 -174q-293 0 -494 210q-200 212 -200 512t200 512q204 213 494 213q262 0 459 -176l-41 -45q-183 160 -418 160q-262 0 -448 -195q-185 -194 -185 -469t185 -469q183 -192 448 -192q235 0 416 158z" />
    <glyph glyph-name="D" unicode="D" horiz-adv-x="1482" 
d="M737 0h-520v1411h520q290 0 453 -199q166 -199 166 -510q0 -309 -166 -505q-164 -197 -453 -197zM279 1350v-1289h458q261 0 408 179q149 180 149 462q0 285 -149 465q-148 183 -408 183h-458z" />
    <glyph glyph-name="E" unicode="E" horiz-adv-x="1122" 
d="M217 0v1411h766v-61h-704v-627h616v-61h-616v-601h729v-61h-791z" />
    <glyph glyph-name="F" unicode="F" horiz-adv-x="1046" 
d="M217 0v1411h756v-61h-694v-627h550v-61h-550v-662h-62z" />
    <glyph glyph-name="G" unicode="G" horiz-adv-x="1562" 
d="M1413 590h-446v61h512q-7 -328 -179 -501t-473 -173q-298 0 -503 211t-205 514q0 304 205 515q204 210 503 210q229 0 416 -135l-37 -49q-170 123 -379 123q-271 0 -460 -195q-187 -193 -187 -469q0 -278 187 -471q186 -192 460 -192q253 0 406.5 142.5t179.5 408.5z" />
    <glyph glyph-name="H" unicode="H" horiz-adv-x="1458" 
d="M1180 1411h61v-1411h-61v674h-901v-674h-62v1411h62v-680h901v680z" />
    <glyph glyph-name="I" unicode="I" horiz-adv-x="495" 
d="M217 1411h62v-1411h-62v1411z" />
    <glyph glyph-name="J" unicode="J" horiz-adv-x="495" 
d="M-215 -471l8 61q47 -6 82 -6q171 0 256.5 100t85.5 273v1454h62v-1454q0 -203 -100.5 -318.5t-303.5 -115.5q-43 0 -90 6z" />
    <glyph glyph-name="K" unicode="K" horiz-adv-x="1060" 
d="M967 0l-688 635v-635h-62v1411h62v-727l606 727h80l-627 -749l715 -662h-86z" />
    <glyph glyph-name="L" unicode="L" horiz-adv-x="972" 
d="M217 0v1411h62v-1350h632v-61h-694z" />
    <glyph glyph-name="M" unicode="M" horiz-adv-x="1957" 
d="M315 1411h66l600 -1225l598 1225h63l181 -1411h-62l-166 1315l-581 -1182h-68l-584 1186l-167 -1319h-60z" />
    <glyph glyph-name="N" unicode="N" horiz-adv-x="1402" 
d="M1124 1411h62v-1411h-74l-833 1319v-1319h-62v1411h74l833 -1325v1325z" />
    <glyph glyph-name="O" unicode="O" horiz-adv-x="1656" 
d="M827 1427q300 0 504 -210q207 -213 207 -515q0 -299 -207 -512q-204 -210 -504 -210q-299 0 -503 210q-205 211 -205 512t205 512q207 213 503 213zM180 702q0 -274 189 -469q186 -192 458 -192q275 0 461 192q189 195 189 469t-189 469t-461 195q-269 0 -458 -195
t-189 -469z" />
    <glyph glyph-name="P" unicode="P" horiz-adv-x="1224" 
d="M752 582h-473v-582h-62v1411h545q192 0 287 -121q94 -119 94 -295q0 -173 -96 -295q-93 -118 -295 -118zM762 1350h-483v-707h473q164 0 246.5 96t82.5 256q0 149 -80 252q-77 103 -239 103z" />
    <glyph glyph-name="Q" unicode="Q" horiz-adv-x="1656" 
d="M827 1427q300 0 504 -210q207 -213 207 -515q0 -205 -101 -375.5t-274 -263.5l172 -268l-53 -33l-174 273q-137 -55 -281 -55q-299 0 -503 210q-205 211 -205 512t205 512q207 213 503 213zM1073 88l-172 272l53 33l176 -278q156 82 252 241q95 157 95 346
q0 274 -189 469t-461 195q-269 0 -458 -195t-189 -469t189 -469q186 -192 458 -192q128 0 246 47z" />
    <glyph glyph-name="R" unicode="R" horiz-adv-x="1230" 
d="M592 582h-313v-582h-62v1411h516q192 0 287 -121q94 -119 94 -295q0 -173 -96 -295q-93 -118 -295 -118h-55l411 -582h-73zM733 1350h-454v-707h444q164 0 247 96t83 256q0 149 -80 252q-77 103 -240 103z" />
    <glyph glyph-name="S" unicode="S" horiz-adv-x="1144" 
d="M123 340h61q21 -122 123 -211q104 -88 256 -88q172 0 279 82q108 83 129 196q22 143 -64 233.5t-254 129.5l-200 47q-320 71 -320 334q0 158 129 260q128 104 299 104q175 0 293 -93.5t131 -250.5h-61q-13 128 -113.5 205.5t-249.5 77.5q-144 0 -256 -86
q-110 -85 -110 -217q0 -217 270 -275l201 -47q194 -43 293 -152t71 -282q-27 -131 -149 -229q-119 -98 -318 -98q-181 0 -299 106q-120 108 -141 254z" />
    <glyph glyph-name="T" unicode="T" horiz-adv-x="1128" 
d="M55 1350v61h1018v-61h-479v-1350h-62v1350h-477z" />
    <glyph glyph-name="U" unicode="U" horiz-adv-x="1380" 
d="M1116 1411h62v-948q0 -214 -142 -350t-346 -136t-346 136q-141 135 -141 350v948h61v-948q0 -187 123 -307q123 -117 303 -117t303 117q123 120 123 307v948z" />
    <glyph glyph-name="V" unicode="V" horiz-adv-x="1103" 
d="M598 0h-90l-424 1411h66l403 -1343l401 1343h66z" />
    <glyph glyph-name="W" unicode="W" horiz-adv-x="1892" 
d="M1309 82l450 1329h66l-479 -1411h-76l-324 1104l-323 -1104h-76l-479 1411h63l451 -1327l323 1102h82z" />
    <glyph glyph-name="X" unicode="X" horiz-adv-x="1157" 
d="M975 1411h76l-437 -647l514 -764h-75l-475 715l-476 -715h-73l512 764l-435 647h74l398 -598z" />
    <glyph glyph-name="Y" unicode="Y" horiz-adv-x="1214" 
d="M1094 1411h73l-530 -735v-676h-62v678l-526 733h74l483 -676z" />
    <glyph glyph-name="Z" unicode="Z" horiz-adv-x="1071" 
d="M989 1370l-819 -1309h819v-61h-907v33l825 1317h-825v61h907v-41z" />
    <glyph glyph-name="bracketleft" unicode="[" horiz-adv-x="559" 
d="M469 -463h-272v1874h272v-61h-211v-1751h211v-62z" />
    <glyph glyph-name="backslash" unicode="\" horiz-adv-x="911" 
d="M764 0l-684 1411h67l684 -1411h-67z" />
    <glyph glyph-name="bracketright" unicode="]" horiz-adv-x="559" 
d="M90 1411h272v-1874h-272v62h211v1751h-211v61z" />
    <glyph glyph-name="underscore" unicode="_" horiz-adv-x="1345" 
d="M156 -119v62h1034v-62h-1034z" />
    <glyph glyph-name="grave" unicode="`" horiz-adv-x="862" 
d="M500 1102h-56l-180 260h74z" />
    <glyph glyph-name="a" unicode="a" 
d="M1106 0h-62v238q-64 -118 -181 -188t-257 -70q-207 0 -352 145q-145 148 -145 354q0 205 145 350q148 148 352 148q140 0 257 -70t181 -188v237h62v-956zM606 41q177 0 303 123q129 123 135 297v18q0 181 -129 307q-129 129 -309 129t-309 -129q-127 -127 -127 -307
q0 -179 127 -309q129 -129 309 -129z" />
    <glyph glyph-name="b" unicode="b" 
d="M240 238v-238h-62v1520h62v-801q64 118 181 188t257 70q207 0 352 -148q146 -146 146 -350q0 -205 -146 -354q-145 -145 -352 -145q-140 0 -257 70t-181 188zM240 479v-18q6 -173 133 -297q129 -123 305 -123q181 0 307 129q129 129 129 309q0 181 -129 307
q-126 129 -307 129q-180 0 -309 -129q-129 -126 -129 -307z" />
    <glyph glyph-name="c" unicode="c" horiz-adv-x="1021" 
d="M883 131l37 -49q-138 -102 -314 -102q-209 0 -354 139q-143 137 -143 362q0 222 143 359t354 137q167 0 312 -103l-35 -49q-131 90 -277 90q-185 0 -311 -120q-125 -119 -125 -314t125 -317q126 -123 311 -123q152 0 277 90z" />
    <glyph glyph-name="d" unicode="d" 
d="M1106 0h-62v238q-64 -118 -181 -188t-257 -70q-207 0 -352 145q-145 148 -145 354q0 205 145 350q148 148 352 148q140 0 257 -70t181 -188v801h62v-1520zM606 41q177 0 303 123q129 123 135 297v18q0 181 -129 307q-129 129 -309 129t-309 -129q-127 -127 -127 -307
q0 -179 127 -309q129 -129 309 -129z" />
    <glyph glyph-name="e" unicode="e" horiz-adv-x="1150" 
d="M1059 481v-26h-887q9 -189 127 -301q119 -113 293 -113q112 0 206.5 51.5t151.5 143.5l54 -33q-66 -105 -175 -164t-237 -59q-205 0 -344 139q-137 137 -137 362q0 222 137 359t344 137q205 0 336 -137q131 -134 131 -359zM172 510h825q-9 187 -120 295
q-113 110 -285 110q-173 0 -291 -112q-120 -111 -129 -293z" />
    <glyph glyph-name="f" unicode="f" horiz-adv-x="632" 
d="M258 0v901h-197v55h197v162q0 402 320 402h69v-62h-69q-259 0 -259 -340v-162h271v-55h-271v-901h-61z" />
    <glyph glyph-name="g" unicode="g" 
d="M606 41q177 0 303 123q129 123 135 297v18q0 181 -129 307q-129 129 -309 129t-309 -129q-127 -127 -127 -307q0 -179 127 -309q129 -129 309 -129zM201 -274l51 34q126 -176 340 -176q217 0 334 123q118 121 118 430v101q-64 -118 -181 -188t-257 -70q-207 0 -352 145
q-145 148 -145 354q0 205 145 350q148 148 352 148q140 0 257 -70t181 -188v237h62v-819q0 -336 -133 -475t-381 -139q-247 0 -391 203z" />
    <glyph glyph-name="h" unicode="h" horiz-adv-x="1150" 
d="M240 0h-62v1520h62v-775q35 114 131 173t223 59q170 0 280 -113q111 -114 111 -301v-563h-61v563q0 159 -92.5 255.5t-237.5 96.5q-156 0 -252 -93t-102 -275v-547z" />
    <glyph glyph-name="i" unicode="i" horiz-adv-x="417" 
d="M145 1309q0 26 18.5 42.5t45.5 16.5q29 0 47 -16.5t18 -42.5q0 -25 -18 -41.5t-47 -16.5q-26 0 -45 16.5t-19 41.5zM240 0h-62v956h62v-956z" />
    <glyph glyph-name="j" unicode="j" horiz-adv-x="417" 
d="M178 956h62v-1026q0 -401 -320 -401h-70v61h70q258 0 258 340v1026zM145 1309q0 26 18.5 42.5t45.5 16.5q29 0 47 -16.5t18 -42.5q0 -25 -18 -41.5t-47 -16.5q-26 0 -45 16.5t-19 41.5z" />
    <glyph glyph-name="k" unicode="k" horiz-adv-x="886" 
d="M313 537l561 -537h-90l-544 520v-520h-62v1520h62v-971l397 407h88z" />
    <glyph glyph-name="l" unicode="l" horiz-adv-x="417" 
d="M240 0h-62v1520h62v-1520z" />
    <glyph glyph-name="m" unicode="m" horiz-adv-x="1894" 
d="M985 0h-61v563q0 159 -92.5 255.5t-237.5 96.5q-156 0 -252 -93t-102 -275v-547h-62v956h62v-211q35 114 131 173t223 59q138 0 235 -72.5t132 -204.5q21 96 79 159.5t133 90.5t166 27q171 0 281 -113q111 -114 111 -301v-563h-62v563q0 159 -92.5 255.5t-237.5 96.5
q-156 0 -252 -93t-102 -275v-547z" />
    <glyph glyph-name="n" unicode="n" horiz-adv-x="1148" 
d="M240 0h-62v956h62v-211q35 114 131 173t223 59q170 0 280 -113q111 -114 111 -301v-563h-61v563q0 159 -92.5 255.5t-237.5 96.5q-156 0 -252 -93t-102 -275v-547z" />
    <glyph glyph-name="o" unicode="o" horiz-adv-x="1216" 
d="M109 481q0 222 143 359t356 137q212 0 355 -137q145 -139 145 -359q0 -223 -145 -362t-355 -139q-211 0 -356 139q-143 137 -143 362zM608 41q185 0 312 121q127 124 127 319q0 193 -127 314q-126 120 -312 120q-187 0 -313 -120q-125 -119 -125 -314q0 -197 125 -319
q127 -121 313 -121z" />
    <glyph glyph-name="p" unicode="p" 
d="M178 956h62v-237q64 118 181 188t257 70q207 0 352 -148q146 -146 146 -352t-146 -352q-145 -145 -352 -145q-140 0 -257 70t-181 188v-701h-62v1419zM678 915q-177 0 -305 -122q-127 -124 -133 -297v-19q0 -180 129 -309q130 -127 309 -127q180 0 307 127
q129 129 129 309t-129 309q-126 129 -307 129z" />
    <glyph glyph-name="q" unicode="q" 
d="M1044 719v237h62v-1419h-62v701q-64 -118 -181 -188t-257 -70q-204 0 -352 145q-145 145 -145 352t145 352q145 148 352 148q140 0 257 -70t181 -188zM1044 477v19q-6 174 -135 297q-125 122 -303 122q-180 0 -309 -129q-127 -130 -127 -309t127 -309q130 -127 309 -127
t309 127q129 129 129 309z" />
    <glyph glyph-name="r" unicode="r" horiz-adv-x="745" 
d="M240 0h-62v956h62v-270q33 129 124 210t218 81q71 0 133 -19l-19 -59q-56 16 -114 16q-97 0 -169 -51.5t-108 -140.5q-62 -154 -65 -346v-377z" />
    <glyph glyph-name="s" unicode="s" horiz-adv-x="858" 
d="M432 977q119 0 200 -64.5t91 -169.5h-64q-10 78 -72.5 125t-154.5 47t-159 -43.5t-74 -111.5q-21 -173 182 -223l141 -33q234 -58 234 -256q0 -121 -89 -194.5t-237 -73.5q-128 0 -221.5 64.5t-116.5 178.5h62q68 -182 276 -182q121 0 192.5 57t71.5 150q0 150 -184 196
l-143 33q-112 28 -177 90q-68 65 -53 199q12 93 95.5 152t199.5 59z" />
    <glyph glyph-name="t" unicode="t" horiz-adv-x="583" 
d="M530 956v-55h-237v-901h-62v901h-174v55h174v406h62v-406h237z" />
    <glyph glyph-name="u" unicode="u" horiz-adv-x="1148" 
d="M909 956h62v-956h-62v211q-35 -114 -131 -172.5t-223 -58.5q-172 0 -281 112q-110 113 -110 301v563h61v-563q0 -159 92.5 -255.5t237.5 -96.5q156 0 252 93.5t102 275.5v546z" />
    <glyph glyph-name="v" unicode="v" horiz-adv-x="1019" 
d="M508 63l383 893h67l-409 -956h-80l-406 956h68z" />
    <glyph glyph-name="w" unicode="w" horiz-adv-x="1689" 
d="M1554 956h66l-360 -956h-64l-354 915l-342 -915h-66l-368 956h65l336 -870l326 870h100l334 -866z" />
    <glyph glyph-name="x" unicode="x" horiz-adv-x="919" 
d="M727 956h78l-305 -426l381 -530h-78l-342 475l-344 -475h-78l383 530l-307 426h78l268 -372z" />
    <glyph glyph-name="y" unicode="y" horiz-adv-x="1019" 
d="M958 956l-409 -956l-199 -463h-67l190 453l-410 966h68l377 -893l383 893h67z" />
    <glyph glyph-name="z" unicode="z" horiz-adv-x="956" 
d="M868 61v-61h-780v37l686 858h-686v61h780v-41l-682 -854h682z" />
    <glyph glyph-name="braceleft" unicode="{" horiz-adv-x="729" 
d="M645 -401v-62h-45q-158 0 -266 105q-109 103 -109 268v360q0 63 -38.5 114.5t-98.5 68.5v53q60 17 98.5 68t38.5 114v367q-3 165 109 268q110 104 266 104h45v-61h-45q-131 0 -223 -86q-93 -87 -90 -225v-367q0 -135 -113 -211q113 -82 113 -207v-360q0 -138 90 -225
q89 -86 223 -86h45z" />
    <glyph glyph-name="bar" unicode="|" horiz-adv-x="454" 
d="M197 1632h61v-1896h-61v1896z" />
    <glyph glyph-name="braceright" unicode="}" horiz-adv-x="729" 
d="M129 -463h-45v62h45q134 0 223 86q90 87 90 225v360q0 125 113 207q-113 76 -113 211v367q3 138 -90 225q-92 86 -223 86h-45v61h45q156 0 266 -104q112 -103 109 -268v-367q0 -63 38.5 -114t98.5 -68v-53q-60 -17 -98.5 -68.5t-38.5 -114.5v-360q0 -165 -109 -268
q-108 -105 -266 -105z" />
    <glyph glyph-name="exclamdown" unicode="&#xa1;" horiz-adv-x="430" 
d="M246 653v-1116h-62v1116h62zM152 922q0 25 18 41t45 16q29 0 47.5 -16t18.5 -41q0 -26 -18.5 -43t-47.5 -17q-27 0 -45 17t-18 43z" />
    <glyph glyph-name="cent" unicode="&#xa2;" horiz-adv-x="1064" 
d="M621 -20v-224h-62v226q-192 18 -317 155t-125 344q0 206 125 340q127 136 317 154v205h62v-203q164 -3 305 -103l-35 -49q-131 90 -277 90q-185 0 -311 -120q-125 -119 -125 -314t125 -317q126 -123 311 -123q152 0 277 90l37 -49q-132 -99 -307 -102z" />
    <glyph glyph-name="sterling" unicode="&#xa3;" horiz-adv-x="1290" 
d="M307 61v555h-174v58h174v389q0 166 119 270q119 107 281 107q149 0 258 -92q108 -91 120 -244h-61q-12 123 -101.5 198.5t-215.5 75.5q-137 0 -238 -88q-100 -87 -100 -227v-389h247v-58h-247v-555h659q37 0 61.5 27t24.5 68v88h62v-88q0 -66 -43 -111t-105 -45h-932v61
h211z" />
    <glyph glyph-name="currency" unicode="&#xa4;" horiz-adv-x="1218" 
d="M324 952l-160 160l43 43l162 -162q104 87 237 84q139 0 240 -88l166 166l43 -43l-166 -166q86 -103 86 -237q3 -132 -82 -240l164 -164l-43 -43l-164 164q-106 -89 -244 -92q-135 -3 -244 86l-155 -154l-43 43l155 154q-88 107 -88 246q3 136 93 243zM385 926
q-92 -89 -92 -219t92 -222q90 -90 219 -90q128 0 221 90q90 93 90 222t-90 219q-93 90 -221 90q-129 0 -219 -90z" />
    <glyph glyph-name="yen" unicode="&#xa5;" horiz-adv-x="1259" 
d="M659 0h-61v246h-338v61h338v189h-338v61h338v121l-526 733h73l484 -676l487 676h74l-531 -735v-119h338v-61h-338v-189h338v-61h-338v-246z" />
    <glyph glyph-name="brokenbar" unicode="&#xa6;" horiz-adv-x="462" 
d="M262 899h-61v733h61v-733zM201 467h61v-731h-61v731z" />
    <glyph glyph-name="section" unicode="&#xa7;" horiz-adv-x="1015" 
d="M662 471v-63q-68 -21 -134 -21q-161 0 -272 102q-109 106 -109 275v287q0 166 109 272q110 104 272 104q113 0 205.5 -53t136.5 -145l-55 -27q-37 75 -115 119.5t-172 44.5q-136 0 -227 -88q-92 -86 -92 -227v-287q0 -143 92 -229t227 -86q63 0 134 22zM356 692v64
q64 20 133 20q164 0 271 -104q110 -101 110 -273v-286q0 -169 -110 -273q-107 -104 -271 -104q-113 0 -205.5 53t-136.5 145l56 27q37 -75 114.5 -119.5t171.5 -44.5q137 0 228 88q92 86 92 228v286q0 144 -92 230t-228 86q-59 0 -133 -23z" />
    <glyph glyph-name="dieresis" unicode="&#xa8;" horiz-adv-x="933" 
d="M246 1272q0 26 18 42.5t45 16.5q29 0 47.5 -16.5t18.5 -42.5q0 -25 -18.5 -41.5t-47.5 -16.5q-26 0 -44.5 16.5t-18.5 41.5zM559 1272q0 26 18.5 42.5t45.5 16.5q29 0 47 -16.5t18 -42.5q0 -25 -18 -41.5t-47 -16.5q-26 0 -45 16.5t-19 41.5z" />
    <glyph glyph-name="copyright" unicode="&#xa9;" horiz-adv-x="1685" 
d="M334 190q-207 213 -207 512t207 512q210 213 508 213t508 -213q209 -212 209 -512t-209 -512q-207 -210 -508 -210t-508 210zM379 1171q-191 -194 -191 -469t191 -469q189 -192 463 -192t463 192q192 192 192 469t-192 469q-192 195 -463 195t-463 -195zM1081 428
q-100 -86 -229 -86q-145 0 -246 104q-100 106 -100 256q0 153 100 256q101 107 246 107q135 0 229 -88l-41 -45q-78 72 -188 72q-120 0 -203 -89q-82 -88 -82 -213q0 -122 82 -210q83 -89 203 -89q104 0 188 72z" />
    <glyph glyph-name="ordfeminine" unicode="&#xaa;" horiz-adv-x="1001" 
d="M821 735h-61v127q-95 -139 -268 -139q-138 0 -232 94q-96 96 -96 234q0 135 96 231t232 96q174 0 268 -141v127h61v-629zM492 782q109 0 186 74q79 79 82 182v13q0 111 -80 188q-78 78 -188 78q-108 0 -189 -78q-78 -78 -78 -188t78 -191q81 -78 189 -78zM811 555h-625
v59h625v-59z" />
    <glyph glyph-name="guillemotleft" unicode="&#xab;" horiz-adv-x="821" 
d="M469 899l-283 -424l285 -424h-76l-282 424l282 424h74zM700 899l-282 -424l284 -424h-75l-283 424l283 424h73z" />
    <glyph glyph-name="logicalnot" unicode="&#xac;" horiz-adv-x="1339" 
d="M193 680h981v-408h-62v346h-919v62z" />
    <glyph glyph-name="registered" unicode="&#xae;" horiz-adv-x="1685" 
d="M334 190q-207 213 -207 512t207 512q210 213 508 213t508 -213q209 -212 209 -512t-209 -512q-207 -210 -508 -210t-508 210zM379 1171q-191 -194 -191 -469t191 -469q189 -192 463 -192t463 192q192 192 192 469t-192 469q-192 195 -463 195t-463 -195zM852 598h-172
v-260h-62v737h271q108 0 164.5 -67t56.5 -172q0 -97 -47.5 -160.5t-140.5 -75.5l170 -262h-70zM889 1014h-209v-355h205q81 0 122.5 49t41.5 128t-41 128.5t-119 49.5z" />
    <glyph glyph-name="overscore" unicode="&#xaf;" horiz-adv-x="958" 
d="M246 1233v55h467v-55h-467z" />
    <glyph glyph-name="degree" unicode="&#xb0;" horiz-adv-x="724" 
d="M199 1034q-66 69 -66 164q0 96 66 162q67 67 163 67q98 0 162 -67q68 -65 68 -162q0 -96 -68 -164q-65 -65 -162 -65q-95 0 -163 65zM244 1317q-50 -49 -50 -119t50 -119t119 -49t118 49t49 119t-49 119t-118 49t-119 -49z" />
    <glyph glyph-name="plusminus" unicode="&#xb1;" horiz-adv-x="1134" 
d="M166 561h371v336h61v-336h371v-61h-371v-340h-61v340h-371v61zM969 61v-61h-803v61h803z" />
    <glyph glyph-name="twosuperior" unicode="&#xb2;" horiz-adv-x="645" 
d="M188 1028h371v-61h-479v22l342 410q74 89 74 166q0 73 -52.5 120.5t-130.5 47.5q-68 0 -119 -37t-63 -97l-57 17q17 80 83 129t156 49q105 0 174.5 -65t69.5 -164q0 -100 -90 -207z" />
    <glyph glyph-name="threesuperior" unicode="&#xb3;" horiz-adv-x="663" 
d="M483 1571q5 67 -38 111.5t-121 50.5q-54 5 -104 -19t-73 -65l-51 30q33 56 96 87.5t136 27.5q110 -7 168.5 -71.5t50.5 -159.5q-9 -110 -117 -156q68 -17 111 -84.5t37 -142.5q-9 -101 -91 -168q-80 -65 -190 -56q-83 5 -136 37t-91 103l49 32q49 -101 182 -110
q87 -4 147 44t68 128q1 79 -53 131.5t-133 52.5h-80v60h80q58 0 103.5 39t49.5 98z" />
    <glyph glyph-name="acute" unicode="&#xb4;" horiz-adv-x="862" 
d="M426 1362h74l-181 -260h-55z" />
    <glyph glyph-name="mu" unicode="&#xb5;" horiz-adv-x="1148" 
d="M254 -283h-61v1239h61v-563q0 -159 92.5 -255.5t237.5 -96.5q156 0 252 93.5t102 275.5v546h61v-956h-61v211q-35 -114 -131 -172.5t-223 -58.5q-222 0 -330 176v-439z" />
    <glyph glyph-name="paragraph" unicode="&#xb6;" horiz-adv-x="1216" 
d="M504 1411h102v-1561h-61v707q-195 0 -332 125t-137 303q0 176 125 301t303 125zM545 -397v61h80q67 0 115 49t48 117v1581h103q103 0 174 -74q72 -72 72 -174v-129h-62v129q0 78 -54.5 132.5t-129.5 54.5h-41v-1520q0 -90 -68 -158q-66 -69 -157 -69h-80z" />
    <glyph glyph-name="middot" unicode="&#xb7;" horiz-adv-x="444" 
d="M158 479q0 26 18 43t45 17q29 0 47.5 -17t18.5 -43q0 -25 -18.5 -41t-47.5 -16q-27 0 -45 16t-18 41z" />
    <glyph glyph-name="cedilla" unicode="&#xb8;" horiz-adv-x="1021" 
d="M549 10h65l64 -153q31 -73 3 -143t-101 -99q-69 -29 -137 -0.5t-99 100.5q-16 46 -16 80h59q0 -29 12 -59v2q35 -78 111 -78q31 0 47 8q78 35 78 113q0 26 -12 53z" />
    <glyph glyph-name="onesuperior" unicode="&#xb9;" horiz-adv-x="385" 
d="M262 1780v-813h-61v727l-142 -49v61z" />
    <glyph glyph-name="ordmasculine" unicode="&#xba;" horiz-adv-x="991" 
d="M494 723q-140 0 -236 90q-94 91 -94 238q0 149 94 237q96 90 236 90q137 0 233 -90t96 -237q0 -145 -96 -238q-96 -90 -233 -90zM494 1317q-117 0 -193 -73t-76 -193q0 -119 77 -194t192 -75q114 0 191 76t77 193t-77 191.5t-191 74.5zM811 555h-625v59h625v-59z" />
    <glyph glyph-name="guillemotright" unicode="&#xbb;" horiz-adv-x="821" 
d="M426 51h-76l285 424l-283 424h74l283 -424zM195 51h-76l284 424l-282 424h74l282 -424z" />
    <glyph glyph-name="onequarter" unicode="&#xbc;" horiz-adv-x="1507" 
d="M1231 233v461l-316 -461h316zM1419 233v-57h-127v-176h-61v176h-428l444 641h45v-584h127zM303 1356v-813h-61v727l-142 -49v61zM1102 1378h74l-918 -1398h-74z" />
    <glyph glyph-name="onehalf" unicode="&#xbd;" horiz-adv-x="1593" 
d="M1108 61h371v-61h-480v23l342 409q74 89 74 166q0 73 -52 120.5t-130 47.5q-68 0 -119 -37t-63 -96l-58 16q17 80 83 129t157 49q105 0 174.5 -65t69.5 -164t-91 -207zM303 1356v-813h-61v727l-142 -49v61zM1102 1378h74l-918 -1398h-74z" />
    <glyph glyph-name="threequarters" unicode="&#xbe;" horiz-adv-x="1736" 
d="M524 1147q5 67 -38 111.5t-121 50.5q-54 5 -104 -19t-73 -65l-51 30q33 56 96 87.5t136 27.5q110 -7 168.5 -71.5t50.5 -159.5q-9 -110 -117 -156q68 -17 110.5 -84.5t36.5 -142.5q-9 -102 -90 -168q-80 -65 -190 -56q-83 5 -136 37t-91 103l49 33q49 -102 182 -111
q87 -4 147 44t68 128q1 79 -53 131.5t-133 52.5h-80v60h80q58 0 103.5 39t49.5 98zM1460 233v461l-315 -461h315zM1649 233v-57h-127v-176h-62v176h-428l445 641h45v-584h127zM1331 1378h74l-918 -1398h-73z" />
    <glyph glyph-name="questiondown" unicode="&#xbf;" horiz-adv-x="942" 
d="M797 -131l61 -6q-15 -158 -121 -244q-109 -92 -258 -92q-164 0 -282 106q-117 105 -117 271q0 132 77 230t201 136q119 34 168 83.5t49 154.5v145h62v-145q0 -141 -64 -199q-60 -57 -196 -98q-106 -33 -171 -115t-65 -192q0 -140 101 -228t237 -88q129 0 218.5 77.5
t99.5 203.5zM670 922q0 -26 -18.5 -43t-45.5 -17q-29 0 -47 17t-18 43q0 25 18 41t47 16q27 0 45.5 -16.5t18.5 -40.5z" />
    <glyph glyph-name="Agrave" unicode="&#xc0;" horiz-adv-x="1265" 
d="M125 0h-66l541 1411h66l538 -1411h-65l-150 393h-713zM297 449h672l-336 876zM653 1556h-55l-180 261h74z" />
    <glyph glyph-name="Aacute" unicode="&#xc1;" horiz-adv-x="1265" 
d="M989 393h-713l-151 -393h-66l541 1411h66l538 -1411h-65zM969 449l-336 876l-336 -876h672zM788 1817h74l-180 -261h-55z" />
    <glyph glyph-name="Acircumflex" unicode="&#xc2;" horiz-adv-x="1265" 
d="M989 393h-713l-151 -393h-66l541 1411h66l538 -1411h-65zM969 449l-336 876l-336 -876h672zM356 1556l226 261h98l225 -261h-61l-213 224l-213 -224h-62z" />
    <glyph glyph-name="Atilde" unicode="&#xc3;" horiz-adv-x="1265" 
d="M989 393h-713l-151 -393h-66l541 1411h66l538 -1411h-65zM969 449l-336 876l-336 -876h672zM616 1657q-58 43 -86 43q-29 0 -51.5 -24t-23.5 -66h-62q1 69 43 107t94 38q53 0 119 -51q51 -39 84 -39q29 0 52 24t24 66h61q-1 -69 -43 -107t-94 -38t-117 47z" />
    <glyph glyph-name="Adieresis" unicode="&#xc4;" horiz-adv-x="1265" 
d="M125 0h-66l541 1411h66l538 -1411h-65l-150 393h-713zM297 449h672l-336 876zM410 1726q0 26 18 43t45 17q29 0 47.5 -17t18.5 -43q0 -25 -18.5 -41t-47.5 -16q-27 0 -45 16t-18 41zM723 1726q0 26 18 43t45 17q29 0 47.5 -17t18.5 -43q0 -25 -18.5 -41t-47.5 -16
q-27 0 -45 16t-18 41z" />
    <glyph glyph-name="Aring" unicode="&#xc5;" horiz-adv-x="1265" 
d="M125 0h-66l541 1411h66l538 -1411h-65l-150 393h-713zM297 449h672l-336 876zM463 1763q0 72 48.5 122t117.5 50q72 0 122 -50t50 -122q0 -69 -50 -118.5t-122 -49.5q-69 0 -117.5 49.5t-48.5 118.5zM518 1763q0 -47 32 -79.5t79 -32.5q49 0 82.5 32.5t33.5 79.5
q0 50 -33.5 83.5t-82.5 33.5q-47 0 -79 -33.5t-32 -83.5z" />
    <glyph glyph-name="AE" unicode="&#xc6;" horiz-adv-x="1996" 
d="M1092 461v889h-91l-585 -889h676zM41 0l930 1411h887v-61h-705v-627h616v-61h-616v-601h729v-61h-790v399h-715l-262 -399h-74z" />
    <glyph glyph-name="Ccedilla" unicode="&#xc7;" horiz-adv-x="1347" 
d="M795 -18l51 -125q31 -73 3 -143t-101 -99q-69 -29 -137 -0.5t-99 100.5q-16 46 -16 80h59q0 -29 12 -59v2q35 -78 111 -78q31 0 47 8q78 35 78 113q0 26 -12 53l-64 152q-260 34 -434 235q-172 205 -172 481q0 299 201 512q204 213 493 213q262 0 459 -176l-41 -45
q-183 160 -418 160q-262 0 -448 -195q-185 -194 -185 -469t185 -469q183 -192 448 -192q235 0 416 158l41 -45q-192 -174 -457 -174q-3 0 -11 1t-9 1z" />
    <glyph glyph-name="Egrave" unicode="&#xc8;" horiz-adv-x="1122" 
d="M983 1411v-61h-704v-627h616v-61h-616v-601h729v-61h-791v1411h766zM637 1556h-55l-181 261h74z" />
    <glyph glyph-name="Eacute" unicode="&#xc9;" horiz-adv-x="1122" 
d="M217 0v1411h766v-61h-704v-627h616v-61h-616v-601h729v-61h-791zM659 1817h74l-180 -261h-55z" />
    <glyph glyph-name="Ecircumflex" unicode="&#xca;" horiz-adv-x="1122" 
d="M297 1556l225 261h99l225 -261h-62l-213 224l-213 -224h-61zM217 0v1411h766v-61h-704v-627h616v-61h-616v-601h729v-61h-791z" />
    <glyph glyph-name="Edieresis" unicode="&#xcb;" horiz-adv-x="1122" 
d="M983 1411v-61h-704v-627h616v-61h-616v-601h729v-61h-791v1411h766zM350 1726q0 26 18.5 43t45.5 17q29 0 47 -17t18 -43q0 -25 -18 -41t-47 -16q-27 0 -45.5 16.5t-18.5 40.5zM664 1726q0 26 18 43t45 17q29 0 47.5 -17t18.5 -43q0 -25 -18.5 -41t-47.5 -16
q-27 0 -45 16t-18 41z" />
    <glyph glyph-name="Igrave" unicode="&#xcc;" horiz-adv-x="495" 
d="M279 0h-62v1411h62v-1411zM274 1556h-55l-180 261h74z" />
    <glyph glyph-name="Iacute" unicode="&#xcd;" horiz-adv-x="495" 
d="M377 1817h74l-181 -261h-55zM217 1411h62v-1411h-62v1411z" />
    <glyph glyph-name="Icircumflex" unicode="&#xce;" horiz-adv-x="495" 
d="M-27 1556l226 261h98l225 -261h-61l-213 224l-213 -224h-62zM217 1411h62v-1411h-62v1411z" />
    <glyph glyph-name="Idieresis" unicode="&#xcf;" horiz-adv-x="495" 
d="M279 0h-62v1411h62v-1411zM27 1726q0 26 18 43t45 17q29 0 47.5 -17t18.5 -43q0 -25 -18.5 -41t-47.5 -16q-27 0 -45 16t-18 41zM340 1726q0 26 18 43t45 17q29 0 47.5 -17t18.5 -43q0 -25 -18.5 -41t-47.5 -16q-27 0 -45 16t-18 41z" />
    <glyph glyph-name="Eth" unicode="&#xd0;" horiz-adv-x="1486" 
d="M741 0h-520v666h-201v57h201v688h520q290 0 453 -199q166 -199 166 -510q0 -309 -166 -505q-164 -197 -453 -197zM283 1350v-627h395v-57h-395v-605h458q261 0 408 179q149 180 149 462q0 285 -149 465q-148 183 -408 183h-458z" />
    <glyph glyph-name="Ntilde" unicode="&#xd1;" horiz-adv-x="1402" 
d="M686 1657q-58 43 -86 43q-29 0 -52 -24t-24 -66h-61q1 69 43 107t94 38q53 0 119 -51q51 -39 84 -39q29 0 52 24t24 66h61q-1 -69 -43 -107t-94 -38t-117 47zM1124 1411h62v-1411h-74l-833 1319v-1319h-62v1411h74l833 -1325v1325z" />
    <glyph glyph-name="Ograve" unicode="&#xd2;" horiz-adv-x="1656" 
d="M827 -20q-299 0 -503 210q-205 211 -205 512t205 512q207 213 503 213q300 0 504 -210q207 -213 207 -515q0 -299 -207 -512q-204 -210 -504 -210zM180 702q0 -274 189 -469q186 -192 458 -192q275 0 461 192q189 195 189 469t-189 469t-461 195q-269 0 -458 -195
t-189 -469zM852 1559h-55l-181 260h74z" />
    <glyph glyph-name="Oacute" unicode="&#xd3;" horiz-adv-x="1656" 
d="M827 1427q300 0 504 -210q207 -213 207 -515q0 -299 -207 -512q-204 -210 -504 -210q-299 0 -503 210q-205 211 -205 512t205 512q207 213 503 213zM180 702q0 -274 189 -469q186 -192 458 -192q275 0 461 192q189 195 189 469t-189 469t-461 195q-269 0 -458 -195
t-189 -469zM944 1819h74l-180 -260h-56z" />
    <glyph glyph-name="Ocircumflex" unicode="&#xd4;" horiz-adv-x="1656" 
d="M827 1427q300 0 504 -210q207 -213 207 -515q0 -299 -207 -512q-204 -210 -504 -210q-299 0 -503 210q-205 211 -205 512t205 512q207 213 503 213zM180 702q0 -274 189 -469q186 -192 458 -192q275 0 461 192q189 195 189 469t-189 469t-461 195q-269 0 -458 -195
t-189 -469zM561 1559l225 260h99l225 -260h-61l-213 223l-213 -223h-62z" />
    <glyph glyph-name="Otilde" unicode="&#xd5;" horiz-adv-x="1656" 
d="M821 1659q-58 43 -86 43q-29 0 -52 -24t-24 -66h-61q1 69 43 107t94 38q53 0 119 -51q51 -39 84 -39q29 0 52 24t24 66h61q-1 -69 -43 -107t-94 -38t-117 47zM827 1427q300 0 504 -210q207 -213 207 -515q0 -299 -207 -512q-204 -210 -504 -210q-299 0 -503 210
q-205 211 -205 512t205 512q207 213 503 213zM180 702q0 -274 189 -469q186 -192 458 -192q275 0 461 192q189 195 189 469t-189 469t-461 195q-269 0 -458 -195t-189 -469z" />
    <glyph glyph-name="Odieresis" unicode="&#xd6;" horiz-adv-x="1656" 
d="M827 -20q-299 0 -503 210q-205 211 -205 512t205 512q207 213 503 213q300 0 504 -210q207 -213 207 -515q0 -299 -207 -512q-204 -210 -504 -210zM180 702q0 -274 189 -469q186 -192 458 -192q275 0 461 192q189 195 189 469t-189 469t-461 195q-269 0 -458 -195
t-189 -469zM614 1729q0 26 18.5 42.5t45.5 16.5q29 0 47 -16.5t18 -42.5q0 -25 -18 -41.5t-47 -16.5q-26 0 -45 16.5t-19 41.5zM928 1729q0 26 18 42.5t45 16.5q29 0 47.5 -16.5t18.5 -42.5q0 -25 -18.5 -41.5t-47.5 -16.5q-26 0 -44.5 16.5t-18.5 41.5z" />
    <glyph glyph-name="multiply" unicode="&#xd7;" horiz-adv-x="937" 
d="M164 293l262 262l-260 260l43 43l260 -260l262 262l43 -43l-260 -262l262 -264l-43 -43l-264 262l-262 -260z" />
    <glyph glyph-name="Oslash" unicode="&#xd8;" horiz-adv-x="1654" 
d="M344 170l-188 -190l-43 43l188 190q-184 205 -184 489q0 301 205 512q207 213 503 213q282 0 486 -192l190 192l43 -41l-192 -194q184 -205 184 -490q0 -299 -207 -512q-204 -210 -504 -210q-282 0 -481 190zM178 702q0 -259 166 -446l922 934q-188 176 -441 176
q-269 0 -458 -195t-189 -469zM825 41q275 0 461 192q189 195 189 469q0 258 -166 445l-922 -934q184 -172 438 -172z" />
    <glyph glyph-name="Ugrave" unicode="&#xd9;" horiz-adv-x="1380" 
d="M1178 463q0 -214 -142 -350t-346 -136t-346 136q-141 135 -141 350v948h61v-948q0 -187 123 -307q123 -117 303 -117t303 117q123 120 123 307v948h62v-948zM729 1556h-55l-180 261h73z" />
    <glyph glyph-name="Uacute" unicode="&#xda;" horiz-adv-x="1380" 
d="M1116 1411h62v-948q0 -214 -142 -350t-346 -136t-346 136q-141 135 -141 350v948h61v-948q0 -187 123 -307q123 -117 303 -117t303 117q123 120 123 307v948zM793 1817h73l-180 -261h-55z" />
    <glyph glyph-name="Ucircumflex" unicode="&#xdb;" horiz-adv-x="1380" 
d="M416 1556l225 261h98l226 -261h-62l-213 224l-213 -224h-61zM1116 1411h62v-948q0 -214 -142 -350t-346 -136t-346 136q-141 135 -141 350v948h61v-948q0 -187 123 -307q123 -117 303 -117t303 117q123 120 123 307v948z" />
    <glyph glyph-name="Udieresis" unicode="&#xdc;" horiz-adv-x="1380" 
d="M1178 463q0 -214 -142 -350t-346 -136t-346 136q-141 135 -141 350v948h61v-948q0 -187 123 -307q123 -117 303 -117t303 117q123 120 123 307v948h62v-948zM469 1726q0 26 18 43t45 17q29 0 47.5 -17t18.5 -43q0 -25 -18.5 -41t-47.5 -16q-27 0 -45 16t-18 41zM782 1726
q0 26 18.5 43t45.5 17q29 0 47 -17t18 -43q0 -25 -18 -41t-47 -16q-27 0 -45.5 16.5t-18.5 40.5z" />
    <glyph glyph-name="Yacute" unicode="&#xdd;" horiz-adv-x="1214" 
d="M1094 1411h73l-530 -735v-676h-62v678l-526 733h74l483 -676zM694 1817h74l-180 -261h-56z" />
    <glyph glyph-name="Thorn" unicode="&#xde;" horiz-adv-x="1159" 
d="M670 311h-391v-311h-62v1411h62v-276h391q173 0 286 -113q117 -114 117 -295q0 -184 -117 -301q-115 -115 -286 -115zM279 1073v-700h391q145 0 243 98q99 99 99 256q0 156 -99 250q-101 96 -243 96h-391z" />
    <glyph glyph-name="germandbls" unicode="&#xdf;" horiz-adv-x="1181" 
d="M1014 428q-9 153 -113 260t-266 107h-70v57h70q114 0 188 74q76 76 76 182q0 116 -86 199q-87 84 -213 84h-20q-154 0 -247 -97.5t-93 -263.5v-1030h-62v1030q0 194 110.5 308t291.5 114h20q156 0 256 -100q105 -102 105 -244q0 -96 -62 -182q-59 -86 -151 -101
q142 -12 233 -137q94 -125 94 -258q0 -190 -129 -319t-330 -129q-108 -3 -210 41l22 57q101 -40 186 -37q173 0 287 111q113 110 113 274z" />
    <glyph glyph-name="agrave" unicode="&#xe0;" 
d="M1106 0h-62v238q-64 -118 -181 -188t-257 -70q-207 0 -352 145q-145 148 -145 354q0 205 145 350q148 148 352 148q140 0 257 -70t181 -188v237h62v-956zM606 41q177 0 303 123q129 123 135 297v18q0 181 -129 307q-129 129 -309 129t-309 -129q-127 -127 -127 -307
q0 -179 127 -309q129 -129 309 -129zM649 1102h-55l-180 260h73z" />
    <glyph glyph-name="aacute" unicode="&#xe1;" 
d="M1106 0h-62v238q-64 -118 -181 -188t-257 -70q-207 0 -352 145q-145 148 -145 354q0 205 145 350q148 148 352 148q140 0 257 -70t181 -188v237h62v-956zM606 41q177 0 303 123q129 123 135 297v18q0 181 -129 307q-129 129 -309 129t-309 -129q-127 -127 -127 -307
q0 -179 127 -309q129 -129 309 -129zM735 1362h74l-180 -260h-56z" />
    <glyph glyph-name="acircumflex" unicode="&#xe2;" 
d="M1106 0h-62v238q-64 -118 -181 -188t-257 -70q-207 0 -352 145q-145 148 -145 354q0 205 145 350q148 148 352 148q140 0 257 -70t181 -188v237h62v-956zM606 41q177 0 303 123q129 123 135 297v18q0 181 -129 307q-129 129 -309 129t-309 -129q-127 -127 -127 -307
q0 -179 127 -309q129 -129 309 -129zM362 1102l226 260h98l225 -260h-61l-213 223l-213 -223h-62z" />
    <glyph glyph-name="atilde" unicode="&#xe3;" 
d="M1106 0h-62v238q-64 -118 -181 -188t-257 -70q-207 0 -352 145q-145 148 -145 354q0 205 145 350q148 148 352 148q140 0 257 -70t181 -188v237h62v-956zM606 41q177 0 303 123q129 123 135 297v18q0 181 -129 307q-129 129 -309 129t-309 -129q-127 -127 -127 -307
q0 -179 127 -309q129 -129 309 -129zM623 1202q-58 43 -86 43q-29 0 -52 -24t-24 -66h-62q1 69 43 107t95 38q52 0 118 -51q51 -39 84 -39q29 0 52 24t24 66h62q-1 -69 -43 -107t-95 -38q-51 0 -116 47z" />
    <glyph glyph-name="adieresis" unicode="&#xe4;" 
d="M1106 0h-62v238q-64 -118 -181 -188t-257 -70q-207 0 -352 145q-145 148 -145 354q0 205 145 350q148 148 352 148q140 0 257 -70t181 -188v237h62v-956zM606 41q177 0 303 123q129 123 135 297v18q0 181 -129 307q-129 129 -309 129t-309 -129q-127 -127 -127 -307
q0 -179 127 -309q129 -129 309 -129zM416 1272q0 26 18 42.5t45 16.5q29 0 47.5 -16.5t18.5 -42.5q0 -25 -18.5 -41.5t-47.5 -16.5q-26 0 -44.5 16.5t-18.5 41.5zM729 1272q0 26 18.5 42.5t45.5 16.5q29 0 47 -16.5t18 -42.5q0 -25 -18 -41.5t-47 -16.5q-26 0 -45 16.5
t-19 41.5z" />
    <glyph glyph-name="aring" unicode="&#xe5;" 
d="M1106 0h-62v238q-64 -118 -181 -188t-257 -70q-207 0 -352 145q-145 148 -145 354q0 205 145 350q148 148 352 148q140 0 257 -70t181 -188v237h62v-956zM606 41q177 0 303 123q129 123 135 297v18q0 181 -129 307q-129 129 -309 129t-309 -129q-127 -127 -127 -307
q0 -179 127 -309q129 -129 309 -129zM469 1309q0 72 48.5 122t117.5 50q72 0 122 -50t50 -122q0 -69 -50 -118.5t-122 -49.5q-69 0 -117.5 49.5t-48.5 118.5zM524 1309q0 -47 32 -80t79 -33q49 0 83 33t34 80q0 49 -33.5 82.5t-83.5 33.5q-47 0 -79 -33.5t-32 -82.5z" />
    <glyph glyph-name="ae" unicode="&#xe6;" horiz-adv-x="2086" 
d="M606 41q177 0 303 123q129 123 135 297v18q0 181 -129 307q-129 129 -309 129t-309 -129q-127 -127 -127 -307q0 -179 127 -309q129 -129 309 -129zM1044 956h62v-225q60 115 172.5 180.5t249.5 65.5q205 0 336 -137q131 -134 131 -359v-26h-887q9 -189 127 -301
q119 -113 293 -113q112 0 206.5 51.5t151.5 143.5l53 -33q-66 -105 -174.5 -164t-236.5 -59q-140 0 -251 65t-171 182v-227h-62v238q-64 -118 -181 -188t-257 -70q-207 0 -352 145q-145 148 -145 354q0 205 145 350q148 148 352 148q140 0 257 -70t181 -188v237zM1108 510
h825q-9 186 -121 295q-113 110 -284 110q-173 0 -291 -112q-120 -111 -129 -293z" />
    <glyph glyph-name="ccedilla" unicode="&#xe7;" horiz-adv-x="1024" 
d="M608 -20h-4l51 -123q31 -73 3 -143t-101 -99q-69 -29 -136.5 -0.5t-98.5 100.5q-17 49 -17 80h60q0 -29 12 -59v2q35 -78 110 -78q32 0 48 8q77 35 77 113q0 26 -12 53l-63 152q-185 24 -306 157q-120 135 -120 338q0 222 143 359t354 137q167 0 312 -103l-35 -49
q-131 90 -277 90q-185 0 -311 -120q-125 -119 -125 -314t125 -317q126 -123 311 -123q152 0 277 90l37 -49q-138 -102 -314 -102z" />
    <glyph glyph-name="egrave" unicode="&#xe8;" horiz-adv-x="1150" 
d="M1059 455h-887q9 -189 127 -301q119 -113 293 -113q112 0 206.5 51.5t151.5 143.5l54 -33q-66 -105 -175 -164t-237 -59q-205 0 -344 139q-137 137 -137 362q0 222 137 359t344 137q205 0 336 -137q131 -134 131 -359v-26zM997 510q-9 187 -120 295q-113 110 -285 110
q-173 0 -291 -112q-120 -111 -129 -293h825zM621 1102h-56l-180 260h74z" />
    <glyph glyph-name="eacute" unicode="&#xe9;" horiz-adv-x="1150" 
d="M1059 481v-26h-887q9 -189 127 -301q119 -113 293 -113q112 0 206.5 51.5t151.5 143.5l54 -33q-66 -105 -175 -164t-237 -59q-205 0 -344 139q-137 137 -137 362q0 222 137 359t344 137q205 0 336 -137q131 -134 131 -359zM172 510h825q-9 187 -120 295
q-113 110 -285 110q-173 0 -291 -112q-120 -111 -129 -293zM702 1362h74l-180 -260h-55z" />
    <glyph glyph-name="ecircumflex" unicode="&#xea;" horiz-adv-x="1150" 
d="M1059 481v-26h-887q9 -189 127 -301q119 -113 293 -113q112 0 206.5 51.5t151.5 143.5l54 -33q-66 -105 -175 -164t-237 -59q-205 0 -344 139q-137 137 -137 362q0 222 137 359t344 137q205 0 336 -137q131 -134 131 -359zM172 510h825q-9 187 -120 295
q-113 110 -285 110q-173 0 -291 -112q-120 -111 -129 -293zM309 1102l226 260h98l225 -260h-61l-213 223l-213 -223h-62z" />
    <glyph glyph-name="edieresis" unicode="&#xeb;" horiz-adv-x="1150" 
d="M1059 455h-887q9 -189 127 -301q119 -113 293 -113q112 0 206.5 51.5t151.5 143.5l54 -33q-66 -105 -175 -164t-237 -59q-205 0 -344 139q-137 137 -137 362q0 222 137 359t344 137q205 0 336 -137q131 -134 131 -359v-26zM997 510q-9 187 -120 295q-113 110 -285 110
q-173 0 -291 -112q-120 -111 -129 -293h825zM362 1272q0 26 18.5 42.5t45.5 16.5q29 0 47.5 -16.5t18.5 -42.5q0 -25 -18.5 -41.5t-47.5 -16.5q-26 0 -45 16.5t-19 41.5zM676 1272q0 26 18 42.5t45 16.5q29 0 47.5 -16.5t18.5 -42.5q0 -25 -18.5 -41.5t-47.5 -16.5
q-26 0 -44.5 16.5t-18.5 41.5z" />
    <glyph glyph-name="igrave" unicode="&#xec;" horiz-adv-x="419" 
d="M242 0h-64v956h64v-956zM242 1102h-56l-180 260h74z" />
    <glyph glyph-name="iacute" unicode="&#xed;" horiz-adv-x="419" 
d="M178 956h64v-956h-64v956zM340 1362h74l-181 -260h-55z" />
    <glyph glyph-name="icircumflex" unicode="&#xee;" horiz-adv-x="419" 
d="M178 956h64v-956h-64v956zM-74 1102l226 260h98l225 -260h-61l-213 223l-213 -223h-62z" />
    <glyph glyph-name="idieresis" unicode="&#xef;" horiz-adv-x="419" 
d="M242 0h-64v956h64v-956zM-20 1272q0 26 18 42.5t45 16.5q29 0 47.5 -16.5t18.5 -42.5q0 -25 -18.5 -41.5t-47.5 -16.5q-26 0 -44.5 16.5t-18.5 41.5zM293 1272q0 26 18 42.5t45 16.5q29 0 47.5 -16.5t18.5 -42.5q0 -25 -18.5 -41.5t-47.5 -16.5q-26 0 -44.5 16.5
t-18.5 41.5z" />
    <glyph glyph-name="eth" unicode="&#xf0;" horiz-adv-x="1222" 
d="M815 934l-285 350l-190 -123l-31 45l187 125l-148 189h76l125 -158l156 94l30 -41l-153 -96l436 -537q94 -119 94 -301q0 -222 -145 -364q-146 -140 -357 -140q-210 0 -356 140q-145 142 -145 364q0 221 141 359q143 137 342 137q133 0 223 -43zM299 164
q129 -123 311 -123q184 0 310 123q129 123 129 317q0 193 -127 314q-126 120 -312 120q-185 0 -311 -120q-127 -121 -127 -314t127 -317z" />
    <glyph glyph-name="ntilde" unicode="&#xf1;" horiz-adv-x="1148" 
d="M565 1202q-58 43 -86 43q-29 0 -52 -24t-24 -66h-61q1 69 43 107t94 38q53 0 119 -51q51 -39 84 -39q29 0 52 24t24 66h61q-1 -69 -43 -107t-94 -38t-117 47zM240 0h-62v956h62v-211q35 114 131 173t223 59q170 0 280 -113q111 -114 111 -301v-563h-61v563
q0 159 -92.5 255.5t-237.5 96.5q-156 0 -252 -93t-102 -275v-547z" />
    <glyph glyph-name="ograve" unicode="&#xf2;" horiz-adv-x="1216" 
d="M1108 481q0 -223 -145 -362t-355 -139q-211 0 -356 139q-143 137 -143 362q0 222 143 359t356 137q212 0 355 -137q145 -139 145 -359zM608 41q185 0 312 121q127 124 127 319q0 193 -127 314q-126 120 -312 120q-187 0 -313 -120q-125 -119 -125 -314q0 -197 125 -319
q127 -121 313 -121zM649 1102h-55l-180 260h73z" />
    <glyph glyph-name="oacute" unicode="&#xf3;" horiz-adv-x="1216" 
d="M109 481q0 222 143 359t356 137q212 0 355 -137q145 -139 145 -359q0 -223 -145 -362t-355 -139q-211 0 -356 139q-143 137 -143 362zM608 41q185 0 312 121q127 124 127 319q0 193 -127 314q-126 120 -312 120q-187 0 -313 -120q-125 -119 -125 -314q0 -197 125 -319
q127 -121 313 -121zM723 1362h74l-181 -260h-55z" />
    <glyph glyph-name="ocircumflex" unicode="&#xf4;" horiz-adv-x="1216" 
d="M109 481q0 222 143 359t356 137q212 0 355 -137q145 -139 145 -359q0 -223 -145 -362t-355 -139q-211 0 -356 139q-143 137 -143 362zM608 41q185 0 312 121q127 124 127 319q0 193 -127 314q-126 120 -312 120q-187 0 -313 -120q-125 -119 -125 -314q0 -197 125 -319
q127 -121 313 -121zM334 1102l225 260h98l226 -260h-62l-213 223l-213 -223h-61z" />
    <glyph glyph-name="otilde" unicode="&#xf5;" horiz-adv-x="1216" 
d="M592 1202q-58 43 -86 43q-29 0 -52 -24t-24 -66h-61q1 69 43 107t94 38q53 0 119 -51q51 -39 84 -39q29 0 51.5 24t23.5 66h62q-1 -69 -43 -107t-94 -38t-117 47zM109 481q0 222 143 359t356 137q212 0 355 -137q145 -139 145 -359q0 -223 -145 -362t-355 -139
q-211 0 -356 139q-143 137 -143 362zM608 41q185 0 312 121q127 124 127 319q0 193 -127 314q-126 120 -312 120q-187 0 -313 -120q-125 -119 -125 -314q0 -197 125 -319q127 -121 313 -121z" />
    <glyph glyph-name="odieresis" unicode="&#xf6;" horiz-adv-x="1216" 
d="M1108 481q0 -223 -145 -362t-355 -139q-211 0 -356 139q-143 137 -143 362q0 222 143 359t356 137q212 0 355 -137q145 -139 145 -359zM608 41q185 0 312 121q127 124 127 319q0 193 -127 314q-126 120 -312 120q-187 0 -313 -120q-125 -119 -125 -314q0 -197 125 -319
q127 -121 313 -121zM387 1272q0 26 18.5 42.5t45.5 16.5q29 0 47 -16.5t18 -42.5q0 -25 -18 -41.5t-47 -16.5q-26 0 -45 16.5t-19 41.5zM700 1272q0 26 18.5 42.5t45.5 16.5q29 0 47 -16.5t18 -42.5q0 -25 -18 -41.5t-47 -16.5q-26 0 -45 16.5t-19 41.5z" />
    <glyph glyph-name="divide" unicode="&#xf7;" horiz-adv-x="1173" 
d="M522 811q0 26 18.5 42.5t45.5 16.5q29 0 47 -16.5t18 -42.5q0 -25 -18 -41t-47 -16q-27 0 -45.5 16.5t-18.5 40.5zM522 96q0 26 18.5 43t45.5 17q29 0 47 -17t18 -43q0 -25 -18 -41t-47 -16q-27 0 -45.5 16.5t-18.5 40.5zM1008 489v-61h-842v61h842z" />
    <glyph glyph-name="oslash" unicode="&#xf8;" horiz-adv-x="1216" 
d="M272 100l-118 -120l-43 43l118 118q-120 138 -120 340q0 222 143 359t356 137q194 0 334 -119l121 123l43 -41l-121 -123q123 -135 123 -336q0 -223 -145 -362t-355 -139q-198 0 -336 120zM608 41q185 0 312 121q127 124 127 319q0 172 -107 291l-625 -629
q120 -102 293 -102zM608 915q-187 0 -313 -120q-125 -119 -125 -314q0 -179 104 -295l623 629q-121 100 -289 100z" />
    <glyph glyph-name="ugrave" unicode="&#xf9;" horiz-adv-x="1148" 
d="M909 956h62v-956h-62v211q-35 -114 -131 -172.5t-223 -58.5q-172 0 -281 112q-110 113 -110 301v563h61v-563q0 -159 92.5 -255.5t237.5 -96.5q156 0 252 93.5t102 275.5v546zM631 1102h-56l-180 260h74z" />
    <glyph glyph-name="uacute" unicode="&#xfa;" horiz-adv-x="1148" 
d="M909 956h62v-956h-62v211q-35 -114 -131 -172.5t-223 -58.5q-172 0 -281 112q-110 113 -110 301v563h61v-563q0 -159 92.5 -255.5t237.5 -96.5q156 0 252 93.5t102 275.5v546zM657 1362h74l-180 -260h-55z" />
    <glyph glyph-name="ucircumflex" unicode="&#xfb;" horiz-adv-x="1148" 
d="M909 956h62v-956h-62v211q-35 -114 -131 -172.5t-223 -58.5q-172 0 -281 112q-110 113 -110 301v563h61v-563q0 -159 92.5 -255.5t237.5 -96.5q156 0 252 93.5t102 275.5v546zM293 1102l225 260h98l226 -260h-62l-213 223l-213 -223h-61z" />
    <glyph glyph-name="udieresis" unicode="&#xfc;" horiz-adv-x="1148" 
d="M909 956h62v-956h-62v211q-35 -114 -131 -172.5t-223 -58.5q-172 0 -281 112q-110 113 -110 301v563h61v-563q0 -159 92.5 -255.5t237.5 -96.5q156 0 252 93.5t102 275.5v546zM348 1272q0 26 18.5 42.5t45.5 16.5q29 0 47 -16.5t18 -42.5q0 -25 -18 -41.5t-47 -16.5
q-26 0 -45 16.5t-19 41.5zM662 1272q0 26 18 42.5t45 16.5q29 0 47.5 -16.5t18.5 -42.5q0 -25 -18.5 -41.5t-47.5 -16.5q-26 0 -44.5 16.5t-18.5 41.5z" />
    <glyph glyph-name="yacute" unicode="&#xfd;" horiz-adv-x="1019" 
d="M958 956l-409 -956l-199 -463h-67l190 453l-410 966h68l377 -893l383 893h67zM592 1362h74l-181 -260h-55z" />
    <glyph glyph-name="thorn" unicode="&#xfe;" 
d="M240 238v-701h-62v1983h62v-801q64 118 181 188t257 70q207 0 352 -148q146 -146 146 -350q0 -205 -146 -354q-145 -145 -352 -145q-140 0 -257 70t-181 188zM240 479v-18q6 -173 133 -297q129 -123 305 -123q181 0 307 129q129 129 129 309q0 181 -129 307
q-126 129 -307 129q-180 0 -309 -129q-129 -126 -129 -307z" />
    <glyph glyph-name="ydieresis" unicode="&#xff;" horiz-adv-x="1019" 
d="M350 -463h-67l190 453l-410 966h68l377 -893l383 893h67l-409 -956zM291 1272q0 26 18 42.5t45 16.5q29 0 47.5 -16.5t18.5 -42.5q0 -25 -18.5 -41.5t-47.5 -16.5q-26 0 -44.5 16.5t-18.5 41.5zM604 1272q0 26 18.5 42.5t45.5 16.5q29 0 47 -16.5t18 -42.5
q0 -25 -18 -41.5t-47 -16.5q-26 0 -45 16.5t-19 41.5z" />
    <glyph glyph-name="Amacron" unicode="&#x100;" horiz-adv-x="1265" 
d="M989 393h-713l-151 -393h-66l541 1411h66l538 -1411h-65zM969 449l-336 876l-336 -876h672zM397 1688v55h467v-55h-467z" />
    <glyph glyph-name="amacron" unicode="&#x101;" 
d="M1106 0h-62v238q-64 -118 -181 -188t-257 -70q-207 0 -352 145q-145 148 -145 354q0 205 145 350q148 148 352 148q140 0 257 -70t181 -188v237h62v-956zM606 41q177 0 303 123q129 123 135 297v18q0 181 -129 307q-129 129 -309 129t-309 -129q-127 -127 -127 -307
q0 -179 127 -309q129 -129 309 -129zM403 1233v55h467v-55h-467z" />
    <glyph glyph-name="Abreve" unicode="&#x102;" horiz-adv-x="1265" 
d="M989 393h-713l-151 -393h-66l541 1411h66l538 -1411h-65zM969 449l-336 876l-336 -876h672zM801 1786h55q0 -93 -61.5 -149t-163.5 -56q-106 0 -164.5 58t-58.5 147h55q0 -66 43.5 -108t124.5 -42q78 0 124 41t46 109z" />
    <glyph glyph-name="abreve" unicode="&#x103;" 
d="M1106 0h-62v238q-64 -118 -181 -188t-257 -70q-207 0 -352 145q-145 148 -145 354q0 205 145 350q148 148 352 148q140 0 257 -70t181 -188v237h62v-956zM606 41q177 0 303 123q129 123 135 297v18q0 181 -129 307q-129 129 -309 129t-309 -129q-127 -127 -127 -307
q0 -179 127 -309q129 -129 309 -129zM807 1331h55q0 -92 -62.5 -148.5t-162.5 -56.5q-106 0 -164.5 58t-58.5 147h55q0 -66 43 -107.5t125 -41.5q78 0 124 40.5t46 108.5z" />
    <glyph glyph-name="Aogonek" unicode="&#x104;" horiz-adv-x="1265" 
d="M989 393h-713l-151 -393h-66l541 1411h66l538 -1411l-69 -166q-13 -29 -13 -53q0 -78 78 -113q16 -8 47 -8q76 0 111 78v-2q12 30 12 59h60q0 -31 -17 -80q-31 -72 -98.5 -100.5t-136.5 0.5q-73 29 -101.5 99t2.5 143l60 143zM969 449l-336 876l-336 -876h672z" />
    <glyph glyph-name="aogonek" unicode="&#x105;" 
d="M606 41q177 0 303 123q129 123 135 297v18q0 181 -129 307q-129 129 -309 129t-309 -129q-127 -127 -127 -307q0 -179 127 -309q129 -129 309 -129zM1106 956v-956l-66 -166q-12 -37 -12 -53q0 -78 78 -113q16 -8 47 -8q76 0 111 78v-2q12 30 12 59h59q0 -34 -16 -80
q-31 -72 -99 -100.5t-137 0.5q-73 29 -101 99t3 143l59 143v238q-64 -118 -181 -188t-257 -70q-207 0 -352 145q-145 148 -145 354q0 205 145 350q148 148 352 148q140 0 257 -70t181 -188v237h62z" />
    <glyph glyph-name="Cacute" unicode="&#x106;" horiz-adv-x="1345" 
d="M1229 199l41 -45q-192 -174 -457 -174q-293 0 -494 210q-200 212 -200 512t200 512q204 213 494 213q262 0 459 -176l-41 -45q-183 160 -418 160q-262 0 -448 -195q-185 -194 -185 -469t185 -469q183 -192 448 -192q235 0 416 158zM897 1817h74l-180 -261h-56z" />
    <glyph glyph-name="cacute" unicode="&#x107;" horiz-adv-x="1021" 
d="M883 131l37 -49q-138 -102 -314 -102q-209 0 -354 139q-143 137 -143 362q0 222 143 359t354 137q167 0 312 -103l-35 -49q-131 90 -277 90q-185 0 -311 -120q-125 -119 -125 -314t125 -317q126 -123 311 -123q152 0 277 90zM696 1362h74l-180 -260h-55z" />
    <glyph glyph-name="Ccircumflex" unicode="&#x108;" horiz-adv-x="1345" 
d="M512 1556l225 261h99l225 -261h-62l-213 224l-213 -224h-61zM1229 199l41 -45q-192 -174 -457 -174q-293 0 -494 210q-200 212 -200 512t200 512q204 213 494 213q262 0 459 -176l-41 -45q-183 160 -418 160q-262 0 -448 -195q-185 -194 -185 -469t185 -469
q183 -192 448 -192q235 0 416 158z" />
    <glyph glyph-name="ccircumflex" unicode="&#x109;" horiz-adv-x="1021" 
d="M303 1102l225 260h99l225 -260h-61l-213 223l-213 -223h-62zM883 131l37 -49q-138 -102 -314 -102q-209 0 -354 139q-143 137 -143 362q0 222 143 359t354 137q167 0 312 -103l-35 -49q-131 90 -277 90q-185 0 -311 -120q-125 -119 -125 -314t125 -317q126 -123 311 -123
q152 0 277 90z" />
    <glyph glyph-name="Cdotaccent" unicode="&#x10a;" horiz-adv-x="1345" 
d="M1229 199l41 -45q-192 -174 -457 -174q-293 0 -494 210q-200 212 -200 512t200 512q204 213 494 213q262 0 459 -176l-41 -45q-183 160 -418 160q-262 0 -448 -195q-185 -194 -185 -469t185 -469q183 -192 448 -192q235 0 416 158zM723 1726q0 26 18 43t45 17
q29 0 47.5 -17t18.5 -43q0 -25 -18.5 -41t-47.5 -16q-27 0 -45 16t-18 41z" />
    <glyph glyph-name="cdotaccent" unicode="&#x10b;" horiz-adv-x="1021" 
d="M920 82q-138 -102 -314 -102q-209 0 -354 139q-143 137 -143 362q0 222 143 359t354 137q167 0 312 -103l-35 -49q-131 90 -277 90q-185 0 -311 -120q-125 -119 -125 -314t125 -317q126 -123 311 -123q152 0 277 90zM532 1272q0 26 18.5 42.5t45.5 16.5q29 0 47.5 -16.5
t18.5 -42.5q0 -25 -18.5 -41.5t-47.5 -16.5q-26 0 -45 16.5t-19 41.5z" />
    <glyph glyph-name="Ccaron" unicode="&#x10c;" horiz-adv-x="1345" 
d="M1229 199l41 -45q-192 -174 -457 -174q-293 0 -494 210q-200 212 -200 512t200 512q204 213 494 213q262 0 459 -176l-41 -45q-183 160 -418 160q-262 0 -448 -195q-185 -194 -185 -469t185 -469q183 -192 448 -192q235 0 416 158zM1059 1817l-225 -261h-99l-225 261h61
l213 -224l213 224h62z" />
    <glyph glyph-name="ccaron" unicode="&#x10d;" horiz-adv-x="1021" 
d="M920 82q-138 -102 -314 -102q-209 0 -354 139q-143 137 -143 362q0 222 143 359t354 137q167 0 312 -103l-35 -49q-131 90 -277 90q-185 0 -311 -120q-125 -119 -125 -314t125 -317q126 -123 311 -123q152 0 277 90zM858 1362l-225 -260h-98l-226 260h62l213 -223
l213 223h61z" />
    <glyph glyph-name="Dcaron" unicode="&#x10e;" horiz-adv-x="1482" 
d="M217 0v1411h520q290 0 453 -199q166 -199 166 -510q0 -309 -166 -505q-164 -197 -453 -197h-520zM737 61q261 0 408 179q149 180 149 462q0 285 -149 465q-148 183 -408 183h-458v-1289h458zM981 1817l-225 -261h-99l-225 261h62l213 -224l213 224h61z" />
    <glyph glyph-name="dcaron" unicode="&#x10f;" 
d="M1233 1157l-29 8q98 162 80 310h78q-3 -216 -129 -318zM1106 0h-62v238q-64 -118 -181 -188t-257 -70q-207 0 -352 145q-145 148 -145 354q0 205 145 350q148 148 352 148q140 0 257 -70t181 -188v801h62v-1520zM606 41q177 0 303 123q129 123 135 297v18q0 181 -129 307
q-129 129 -309 129t-309 -129q-127 -127 -127 -307q0 -179 127 -309q129 -129 309 -129z" />
    <glyph glyph-name="Dcroat" unicode="&#x110;" horiz-adv-x="1486" 
d="M741 0h-520v666h-201v57h201v688h520q290 0 453 -199q166 -199 166 -510q0 -309 -166 -505q-164 -197 -453 -197zM283 1350v-627h395v-57h-395v-605h458q261 0 408 179q149 180 149 462q0 285 -149 465q-148 183 -408 183h-458z" />
    <glyph glyph-name="dslash" unicode="&#x111;" 
d="M700 1214v54h344v252h62v-252h192v-54h-192v-1214h-62v238q-64 -118 -181 -188t-257 -70q-207 0 -352 145q-145 148 -145 354q0 205 145 350q148 148 352 148q140 0 257 -70t181 -188v495h-344zM606 41q177 0 303 123q129 123 135 297v18q0 181 -129 307
q-129 129 -309 129t-309 -129q-127 -127 -127 -307q0 -179 127 -309q129 -129 309 -129z" />
    <glyph glyph-name="Emacron" unicode="&#x112;" horiz-adv-x="1122" 
d="M217 0v1411h766v-61h-704v-627h616v-61h-616v-601h729v-61h-791zM350 1688v55h467v-55h-467z" />
    <glyph glyph-name="emacron" unicode="&#x113;" horiz-adv-x="1150" 
d="M1059 481v-26h-887q9 -189 127 -301q119 -113 293 -113q112 0 206.5 51.5t151.5 143.5l54 -33q-66 -105 -175 -164t-237 -59q-205 0 -344 139q-137 137 -137 362q0 222 137 359t344 137q205 0 336 -137q131 -134 131 -359zM172 510h825q-9 187 -120 295
q-113 110 -285 110q-173 0 -291 -112q-120 -111 -129 -293zM350 1233v55h467v-55h-467z" />
    <glyph glyph-name="Ebreve" unicode="&#x114;" horiz-adv-x="1122" 
d="M217 0v1411h766v-61h-704v-627h616v-61h-616v-601h729v-61h-791zM782 1786h56q0 -92 -63 -148.5t-163 -56.5q-106 0 -164.5 58t-58.5 147h55q0 -66 43.5 -108t124.5 -42q78 0 124 41t46 109z" />
    <glyph glyph-name="ebreve" unicode="&#x115;" horiz-adv-x="1150" 
d="M1059 481v-26h-887q9 -189 127 -301q119 -113 293 -113q112 0 206.5 51.5t151.5 143.5l54 -33q-66 -105 -175 -164t-237 -59q-205 0 -344 139q-137 137 -137 362q0 222 137 359t344 137q205 0 336 -137q131 -134 131 -359zM172 510h825q-9 187 -120 295
q-113 110 -285 110q-173 0 -291 -112q-120 -111 -129 -293zM754 1331h55q0 -92 -62.5 -148.5t-162.5 -56.5q-106 0 -165 58t-59 147h56q0 -66 43 -107.5t125 -41.5q78 0 124 40.5t46 108.5z" />
    <glyph glyph-name="Edotaccent" unicode="&#x116;" horiz-adv-x="1122" 
d="M983 1411v-61h-704v-627h616v-61h-616v-601h729v-61h-791v1411h766zM543 1726q0 26 18 43t45 17q29 0 47.5 -17t18.5 -43q0 -25 -18.5 -41t-47.5 -16q-27 0 -45 16t-18 41z" />
    <glyph glyph-name="edotaccent" unicode="&#x117;" horiz-adv-x="1150" 
d="M1059 455h-887q9 -189 127 -301q119 -113 293 -113q112 0 206.5 51.5t151.5 143.5l54 -33q-66 -105 -175 -164t-237 -59q-205 0 -344 139q-137 137 -137 362q0 222 137 359t344 137q205 0 336 -137q131 -134 131 -359v-26zM997 510q-9 187 -120 295q-113 110 -285 110
q-173 0 -291 -112q-120 -111 -129 -293h825zM520 1272q0 26 18.5 42.5t45.5 16.5q29 0 47 -16.5t18 -42.5q0 -25 -18 -41.5t-47 -16.5q-26 0 -45 16.5t-19 41.5z" />
    <glyph glyph-name="Eogonek" unicode="&#x118;" horiz-adv-x="1122" 
d="M217 0v1411h766v-61h-704v-627h616v-61h-616v-601h729v-61l-70 -166q-12 -27 -12 -53q0 -78 78 -113q16 -8 47 -8q75 0 110 78v-2q13 33 13 59h59q0 -34 -16 -80q-31 -72 -99 -100.5t-137 0.5q-73 29 -101 99t3 143l59 143h-725z" />
    <glyph glyph-name="eogonek" unicode="&#x119;" horiz-adv-x="1153" 
d="M1059 481v-26h-887q9 -189 127 -301q119 -113 293 -113q112 0 206.5 51.5t151.5 143.5l54 -33q-57 -79 -160 -158q-76 -57 -142 -211q-21 -51 -2 -98.5t68 -67.5q16 -8 47 -8q76 0 111 78v-2q12 30 12 59h59q0 -34 -16 -80q-31 -72 -99 -100.5t-137 0.5q-71 29 -98 99
t0 143q20 62 88 149q-56 -26 -143 -26q-205 0 -344 139q-137 137 -137 362q0 222 137 359t344 137q205 0 336 -137q131 -134 131 -359zM172 510h825q-9 187 -120 295q-113 110 -285 110q-173 0 -291 -112q-120 -111 -129 -293z" />
    <glyph glyph-name="Ecaron" unicode="&#x11a;" horiz-adv-x="1122" 
d="M983 1411v-61h-704v-627h616v-61h-616v-601h729v-61h-791v1411h766zM860 1817l-225 -261h-98l-226 261h62l213 -224l213 224h61z" />
    <glyph glyph-name="ecaron" unicode="&#x11b;" horiz-adv-x="1150" 
d="M1059 455h-887q9 -189 127 -301q119 -113 293 -113q112 0 206.5 51.5t151.5 143.5l54 -33q-66 -105 -175 -164t-237 -59q-205 0 -344 139q-137 137 -137 362q0 222 137 359t344 137q205 0 336 -137q131 -134 131 -359v-26zM997 510q-9 187 -120 295q-113 110 -285 110
q-173 0 -291 -112q-120 -111 -129 -293h825zM858 1362l-225 -260h-98l-226 260h62l213 -223l213 223h61z" />
    <glyph glyph-name="Gcircumflex" unicode="&#x11c;" horiz-adv-x="1562" 
d="M1413 590h-446v61h512q-7 -328 -179 -501t-473 -173q-298 0 -503 211t-205 514q0 304 205 515q204 210 503 210q229 0 416 -135l-37 -49q-170 123 -379 123q-271 0 -460 -195q-187 -193 -187 -469q0 -278 187 -471q186 -192 460 -192q253 0 406.5 142.5t179.5 408.5z
M516 1556l225 261h99l225 -261h-61l-213 224l-213 -224h-62z" />
    <glyph glyph-name="gcircumflex" unicode="&#x11d;" 
d="M606 41q177 0 303 123q129 123 135 297v18q0 181 -129 307q-129 129 -309 129t-309 -129q-127 -127 -127 -307q0 -179 127 -309q129 -129 309 -129zM201 -274l51 34q126 -176 340 -176q217 0 334 123q118 121 118 430v101q-64 -118 -181 -188t-257 -70q-207 0 -352 145
q-145 148 -145 354q0 205 145 350q148 148 352 148q140 0 257 -70t181 -188v237h62v-819q0 -336 -133 -475t-381 -139q-247 0 -391 203zM362 1102l226 260h98l225 -260h-61l-213 223l-213 -223h-62z" />
    <glyph glyph-name="Gbreve" unicode="&#x11e;" horiz-adv-x="1562" 
d="M1413 590h-446v61h512q-7 -328 -179 -501t-473 -173q-298 0 -503 211t-205 514q0 304 205 515q204 210 503 210q229 0 416 -135l-37 -49q-170 123 -379 123q-271 0 -460 -195q-187 -193 -187 -469q0 -278 187 -471q186 -192 460 -192q253 0 406.5 142.5t179.5 408.5z
M991 1786h56q0 -92 -63 -148.5t-163 -56.5q-106 0 -164.5 58t-58.5 147h55q0 -66 43.5 -108t124.5 -42q78 0 124 41t46 109z" />
    <glyph glyph-name="gbreve" unicode="&#x11f;" 
d="M606 41q177 0 303 123q129 123 135 297v18q0 181 -129 307q-129 129 -309 129t-309 -129q-127 -127 -127 -307q0 -179 127 -309q129 -129 309 -129zM201 -274l51 34q126 -176 340 -176q217 0 334 123q118 121 118 430v101q-64 -118 -181 -188t-257 -70q-207 0 -352 145
q-145 148 -145 354q0 205 145 350q148 148 352 148q140 0 257 -70t181 -188v237h62v-819q0 -336 -133 -475t-381 -139q-247 0 -391 203zM778 1331h56q0 -92 -63 -148.5t-163 -56.5q-106 0 -164.5 58t-58.5 147h55q0 -66 43 -107.5t125 -41.5q78 0 124 40.5t46 108.5z" />
    <glyph glyph-name="Gdotaccent" unicode="&#x120;" horiz-adv-x="1562" 
d="M1413 590h-446v61h512q-7 -328 -179 -501t-473 -173q-298 0 -503 211t-205 514q0 304 205 515q204 210 503 210q229 0 416 -135l-37 -49q-170 123 -379 123q-271 0 -460 -195q-187 -193 -187 -469q0 -278 187 -471q186 -192 460 -192q253 0 406.5 142.5t179.5 408.5z
M756 1726q0 26 18 43t45 17q29 0 47.5 -17t18.5 -43q0 -25 -18.5 -41t-47.5 -16q-27 0 -45 16t-18 41z" />
    <glyph glyph-name="gdotaccent" unicode="&#x121;" 
d="M1044 479q0 181 -129 307q-129 129 -309 129t-309 -129q-127 -127 -127 -307q0 -179 127 -309q129 -129 309 -129q177 0 303 123q129 123 135 297v18zM252 -240q126 -176 340 -176q217 0 334 123q118 121 118 430v101q-64 -118 -181 -188t-257 -70q-207 0 -352 145
q-145 148 -145 354q0 205 145 350q148 148 352 148q140 0 257 -70t181 -188v237h62v-819q0 -336 -133 -475t-381 -139q-247 0 -391 203zM539 1272q0 26 18 42.5t45 16.5q29 0 47.5 -16.5t18.5 -42.5q0 -25 -18.5 -41.5t-47.5 -16.5q-26 0 -44.5 16.5t-18.5 41.5z" />
    <glyph glyph-name="Gcommaaccent" unicode="&#x122;" horiz-adv-x="1562" 
d="M1413 590h-446v61h512q-7 -328 -179 -501t-473 -173q-298 0 -503 211t-205 514q0 304 205 515q204 210 503 210q229 0 416 -135l-37 -49q-170 123 -379 123q-271 0 -460 -195q-187 -193 -187 -469q0 -278 187 -471q186 -192 460 -192q253 0 406.5 142.5t179.5 408.5z
M659 -440q130 133 142 299h67q-21 -194 -153 -299h-56z" />
    <glyph glyph-name="gcommaaccent" unicode="&#x123;" 
d="M1044 479q0 181 -129 307q-129 129 -309 129t-309 -129q-127 -127 -127 -307q0 -179 127 -309q129 -129 309 -129q177 0 303 123q129 123 135 297v18zM252 -240q126 -176 340 -176q217 0 334 123q118 121 118 430v101q-64 -118 -181 -188t-257 -70q-207 0 -352 145
q-145 148 -145 354q0 205 145 350q148 148 352 148q140 0 257 -70t181 -188v237h62v-819q0 -336 -133 -475t-381 -139q-247 0 -391 203zM629 1135h-60q-3 193 113 321l31 -18q-87 -116 -84 -303z" />
    <glyph glyph-name="Hcircumflex" unicode="&#x124;" horiz-adv-x="1458" 
d="M455 1556l225 261h98l226 -261h-62l-213 224l-213 -224h-61zM1180 1411h61v-1411h-61v674h-901v-674h-62v1411h62v-680h901v680z" />
    <glyph glyph-name="hcircumflex" unicode="&#x125;" horiz-adv-x="1150" 
d="M240 0h-62v1520h62v-775q35 114 131 173t223 59q170 0 280 -113q111 -114 111 -301v-563h-61v563q0 159 -92.5 255.5t-237.5 96.5q-156 0 -252 -93t-102 -275v-547zM-66 1577l226 260h98l225 -260h-61l-213 223l-213 -223h-62z" />
    <glyph glyph-name="Hbar" unicode="&#x126;" horiz-adv-x="1486" 
d="M1194 731v346h-901v-346h901zM1411 1077h-156v-1077h-61v674h-901v-674h-62v1077h-135v53h135v281h62v-281h901v281h61v-281h156v-53z" />
    <glyph glyph-name="hbar" unicode="&#x127;" horiz-adv-x="1148" 
d="M240 0h-62v1214h-184v54h184v252h62v-252h352v-54h-352v-469q35 114 131 173t223 59q170 0 280 -113q111 -114 111 -301v-563h-61v563q0 159 -92.5 255.5t-237.5 96.5q-156 0 -252 -93t-102 -275v-547z" />
    <glyph glyph-name="Itilde" unicode="&#x128;" horiz-adv-x="495" 
d="M233 1657q-58 43 -86 43q-29 0 -51.5 -24t-23.5 -66h-62q1 69 43 107t94 38q53 0 119 -51q51 -39 84 -39q29 0 52 24t24 66h61q-1 -69 -43 -107t-94 -38t-117 47zM217 1411h62v-1411h-62v1411z" />
    <glyph glyph-name="itilde" unicode="&#x129;" horiz-adv-x="419" 
d="M178 956h64v-956h-64v956zM186 1202q-58 43 -86 43q-29 0 -51.5 -24t-23.5 -66h-62q1 69 43 107t94 38q53 0 119 -51q51 -39 84 -39q29 0 52 24t24 66h61q-1 -69 -43 -107t-94 -38t-117 47z" />
    <glyph glyph-name="Imacron" unicode="&#x12a;" horiz-adv-x="495" 
d="M217 1411h62v-1411h-62v1411zM14 1688v55h467v-55h-467z" />
    <glyph glyph-name="imacron" unicode="&#x12b;" horiz-adv-x="419" 
d="M178 956h64v-956h-64v956zM-27 1233v55h467v-55h-467z" />
    <glyph glyph-name="Ibreve" unicode="&#x12c;" horiz-adv-x="495" 
d="M418 1786h55q0 -92 -62.5 -148.5t-162.5 -56.5q-106 0 -164.5 58t-58.5 147h55q0 -66 43.5 -108t124.5 -42q78 0 124 41t46 109zM217 1411h62v-1411h-62v1411z" />
    <glyph glyph-name="ibreve" unicode="&#x12d;" horiz-adv-x="419" 
d="M178 956h64v-956h-64v956zM371 1331h55q0 -93 -61.5 -149t-163.5 -56q-106 0 -165 58t-59 147h56q0 -66 43 -107.5t125 -41.5q78 0 124 40.5t46 108.5z" />
    <glyph glyph-name="Iogonek" unicode="&#x12e;" horiz-adv-x="495" 
d="M184 -143l60 143v1411h61v-1411l-65 -166q-13 -29 -13 -53q0 -78 78 -113q16 -8 47 -8q76 0 111 78v-2q12 30 12 59h60q0 -31 -17 -80q-31 -72 -98.5 -100.5t-136.5 0.5q-73 29 -101.5 99t2.5 143z" />
    <glyph glyph-name="iogonek" unicode="&#x12f;" horiz-adv-x="417" 
d="M205 0v956h61v-956l-65 -166q-13 -41 -13 -53q0 -78 78 -113q16 -8 47 -8q76 0 111 78v-2q12 30 12 59h60q0 -31 -17 -80q-31 -72 -98.5 -100.5t-136.5 0.5q-73 29 -101.5 99t2.5 143zM170 1309q0 26 18 42.5t45 16.5q29 0 47.5 -16.5t18.5 -42.5q0 -25 -18.5 -41.5
t-47.5 -16.5q-26 0 -44.5 16.5t-18.5 41.5z" />
    <glyph glyph-name="Idot" unicode="&#x130;" horiz-adv-x="495" 
d="M279 0h-62v1411h62v-1411zM184 1726q0 26 18.5 43t45.5 17q29 0 47 -17t18 -43q0 -25 -18 -41t-47 -16q-27 0 -45.5 16.5t-18.5 40.5z" />
    <glyph glyph-name="dotlessi" unicode="&#x131;" horiz-adv-x="417" 
d="M240 0h-62v956h62v-956z" />
    <glyph glyph-name="IJ" unicode="&#x132;" horiz-adv-x="991" 
d="M217 1411h62v-1411h-62v1411zM281 -471l8 61q47 -6 82 -6q171 0 256.5 100t85.5 273v1454h61v-1454q0 -203 -100 -318.5t-303 -115.5q-43 0 -90 6z" />
    <glyph glyph-name="ij" unicode="&#x133;" horiz-adv-x="835" 
d="M145 1309q0 26 18.5 42.5t45.5 16.5q29 0 47 -16.5t18 -42.5q0 -25 -18 -41.5t-47 -16.5q-26 0 -45 16.5t-19 41.5zM240 0h-62v956h62v-956zM596 956h61v-1026q0 -401 -319 -401h-70v61h70q258 0 258 340v1026zM563 1309q0 26 18.5 42.5t45.5 16.5q29 0 47 -16.5
t18 -42.5q0 -25 -18 -41.5t-47 -16.5q-26 0 -45 16.5t-19 41.5z" />
    <glyph glyph-name="Jcircumflex" unicode="&#x134;" horiz-adv-x="495" 
d="M-25 1556l226 261h98l225 -261h-61l-213 224l-213 -224h-62zM-215 -471l8 61q47 -6 82 -6q171 0 256.5 100t85.5 273v1454h62v-1454q0 -203 -100.5 -318.5t-303.5 -115.5q-43 0 -90 6z" />
    <glyph glyph-name="jcircumflex" unicode="&#x135;" horiz-adv-x="417" 
d="M178 956h62v-1026q0 -401 -320 -401h-70v61h70q258 0 258 340v1026zM-78 1102l225 260h99l225 -260h-61l-213 223l-213 -223h-62z" />
    <glyph glyph-name="Kcommaaccent" unicode="&#x136;" horiz-adv-x="1060" 
d="M967 0l-688 635v-635h-62v1411h62v-727l606 727h80l-627 -749l715 -662h-86zM485 -440h-55q129 132 141 299h68q-21 -193 -154 -299z" />
    <glyph glyph-name="kcommaaccent" unicode="&#x137;" horiz-adv-x="886" 
d="M313 537l561 -537h-90l-544 520v-520h-62v1520h62v-971l397 407h88zM334 -440q129 132 141 299h68q-21 -193 -154 -299h-55z" />
    <glyph glyph-name="kgreenlandic" unicode="&#x138;" horiz-adv-x="815" 
d="M692 0l-452 418v-418h-62v956h62v-489l407 489h80l-428 -512l479 -444h-86z" />
    <glyph glyph-name="Lacute" unicode="&#x139;" horiz-adv-x="972" 
d="M383 1817h74l-181 -261h-55zM217 0v1411h62v-1350h632v-61h-694z" />
    <glyph glyph-name="lacute" unicode="&#x13a;" horiz-adv-x="417" 
d="M346 1907h74l-180 -260h-56zM240 0h-62v1520h62v-1520z" />
    <glyph glyph-name="Lcommaaccent" unicode="&#x13b;" horiz-adv-x="972" 
d="M217 0v1411h62v-1350h632v-61h-694zM446 -440h-55q129 132 141 299h68q-21 -193 -154 -299z" />
    <glyph glyph-name="lcommaaccent" unicode="&#x13c;" horiz-adv-x="417" 
d="M240 0h-62v1520h62v-1520zM39 -440q129 132 141 299h68q-21 -193 -154 -299h-55z" />
    <glyph glyph-name="Lcaron" unicode="&#x13d;" horiz-adv-x="972" 
d="M217 0v1411h62v-1350h632v-61h-694zM549 1411h59q3 -194 -112 -321l-31 18q87 116 84 303z" />
    <glyph glyph-name="lcaron" unicode="&#x13e;" horiz-adv-x="417" 
d="M240 0h-62v1520h62v-1520zM422 1520h59q3 -195 -112 -322l-31 19q87 116 84 303z" />
    <glyph glyph-name="Ldot" unicode="&#x13f;" horiz-adv-x="972" 
d="M217 0v1411h62v-1350h632v-61h-694zM582 600q47 3 66.5 -34.5t0 -74.5t-66.5 -34q-49 -3 -69.5 34t0 74.5t69.5 34.5z" />
    <glyph glyph-name="ldot" unicode="&#x140;" horiz-adv-x="555" 
d="M240 0h-62v1520h62v-1520zM487 600q47 3 66.5 -34.5t0 -74.5t-66.5 -34q-49 -3 -69.5 34t0 74.5t69.5 34.5z" />
    <glyph glyph-name="Lslash" unicode="&#x141;" horiz-adv-x="987" 
d="M231 0v715l-172 -107v60l172 106v637h62v-598l227 143v-59l-227 -143v-693h633v-61h-695z" />
    <glyph glyph-name="lslash" unicode="&#x142;" horiz-adv-x="481" 
d="M195 717l-175 -109v60l175 108v744h61v-705l225 141v-59l-225 -141v-756h-61v717z" />
    <glyph glyph-name="Nacute" unicode="&#x143;" horiz-adv-x="1402" 
d="M1124 1411h62v-1411h-74l-833 1319v-1319h-62v1411h74l833 -1325v1325zM799 1817h73l-180 -261h-55z" />
    <glyph glyph-name="nacute" unicode="&#x144;" horiz-adv-x="1148" 
d="M240 0h-62v956h62v-211q35 114 131 173t223 59q170 0 280 -113q111 -114 111 -301v-563h-61v563q0 159 -92.5 255.5t-237.5 96.5q-156 0 -252 -93t-102 -275v-547zM707 1362h73l-180 -260h-55z" />
    <glyph glyph-name="Ncommaaccent" unicode="&#x145;" horiz-adv-x="1402" 
d="M1124 1411h62v-1411h-74l-833 1319v-1319h-62v1411h74l833 -1325v1325zM590 -440h-55q129 132 141 299h67q-21 -194 -153 -299z" />
    <glyph glyph-name="ncommaaccent" unicode="&#x146;" horiz-adv-x="1148" 
d="M240 0h-62v956h62v-211q35 114 131 173t223 59q170 0 280 -113q111 -114 111 -301v-563h-61v563q0 159 -92.5 255.5t-237.5 96.5q-156 0 -252 -93t-102 -275v-547zM428 -440q129 132 141 299h68q-21 -193 -154 -299h-55z" />
    <glyph glyph-name="Ncaron" unicode="&#x147;" horiz-adv-x="1402" 
d="M1186 0h-74l-833 1319v-1319h-62v1411h74l833 -1325v1325h62v-1411zM975 1817l-225 -261h-99l-225 261h61l213 -224l213 224h62z" />
    <glyph glyph-name="ncaron" unicode="&#x148;" horiz-adv-x="1148" 
d="M240 0h-62v956h62v-211q35 114 131 173t223 59q170 0 280 -113q111 -114 111 -301v-563h-61v563q0 159 -92.5 255.5t-237.5 96.5q-156 0 -252 -93t-102 -275v-547zM856 1362l-225 -260h-99l-225 260h62l213 -223l213 223h61z" />
    <glyph glyph-name="napostrophe" unicode="&#x149;" horiz-adv-x="1148" 
d="M53 1063l-28 8q92 151 77 291h62q0 -179 -111 -299zM240 0h-62v956h62v-211q35 114 131 173t223 59q170 0 280 -113q111 -114 111 -301v-563h-61v563q0 159 -92.5 255.5t-237.5 96.5q-156 0 -252 -93t-102 -275v-547z" />
    <glyph glyph-name="Eng" unicode="&#x14a;" horiz-adv-x="1402" 
d="M1186 -43q0 -203 -100.5 -318.5t-303.5 -115.5q-44 0 -90 6l8 61q46 -6 82 -6q171 0 256.5 100t85.5 273v43l-845 1319v-1319h-62v1411h74l833 -1311v1311h62v-1454z" />
    <glyph glyph-name="eng" unicode="&#x14b;" horiz-adv-x="1148" 
d="M924 -43v606q0 159 -92.5 255.5t-237.5 96.5q-156 0 -252 -93t-102 -275v-547h-62v956h62v-211q35 114 131 173t223 59q170 0 280 -113q111 -114 111 -301v-606q0 -203 -100 -318.5t-303 -115.5q-44 0 -90 6l8 61q46 -6 82 -6q171 0 256.5 100t85.5 273z" />
    <glyph glyph-name="Omacron" unicode="&#x14c;" horiz-adv-x="1656" 
d="M827 1427q300 0 504 -210q207 -213 207 -515q0 -299 -207 -512q-204 -210 -504 -210q-299 0 -503 210q-205 211 -205 512t205 512q207 213 503 213zM180 702q0 -274 189 -469q186 -192 458 -192q275 0 461 192q189 195 189 469t-189 469t-461 195q-269 0 -458 -195
t-189 -469zM602 1690v55h467v-55h-467z" />
    <glyph glyph-name="omacron" unicode="&#x14d;" horiz-adv-x="1216" 
d="M109 481q0 222 143 359t356 137q212 0 355 -137q145 -139 145 -359q0 -223 -145 -362t-355 -139q-211 0 -356 139q-143 137 -143 362zM608 41q185 0 312 121q127 124 127 319q0 193 -127 314q-126 120 -312 120q-187 0 -313 -120q-125 -119 -125 -314q0 -197 125 -319
q127 -121 313 -121zM375 1233v55h467v-55h-467z" />
    <glyph glyph-name="Obreve" unicode="&#x14e;" horiz-adv-x="1656" 
d="M827 1427q300 0 504 -210q207 -213 207 -515q0 -299 -207 -512q-204 -210 -504 -210q-299 0 -503 210q-205 211 -205 512t205 512q207 213 503 213zM180 702q0 -274 189 -469q186 -192 458 -192q275 0 461 192q189 195 189 469t-189 469t-461 195q-269 0 -458 -195
t-189 -469zM1006 1788h55q0 -93 -61.5 -149t-163.5 -56q-106 0 -165 58t-59 147h56q0 -66 43.5 -108t124.5 -42q78 0 124 41t46 109z" />
    <glyph glyph-name="obreve" unicode="&#x14f;" horiz-adv-x="1216" 
d="M109 481q0 222 143 359t356 137q212 0 355 -137q145 -139 145 -359q0 -223 -145 -362t-355 -139q-211 0 -356 139q-143 137 -143 362zM608 41q185 0 312 121q127 124 127 319q0 193 -127 314q-126 120 -312 120q-187 0 -313 -120q-125 -119 -125 -314q0 -197 125 -319
q127 -121 313 -121zM776 1331h55q0 -93 -61.5 -149t-163.5 -56q-106 0 -164.5 58t-58.5 147h55q0 -66 43 -107.5t125 -41.5q78 0 124 40.5t46 108.5z" />
    <glyph glyph-name="Ohungarumlaut" unicode="&#x150;" horiz-adv-x="1656" 
d="M827 1427q300 0 504 -210q207 -213 207 -515q0 -299 -207 -512q-204 -210 -504 -210q-299 0 -503 210q-205 211 -205 512t205 512q207 213 503 213zM180 702q0 -274 189 -469q186 -192 458 -192q275 0 461 192q189 195 189 469t-189 469t-461 195q-269 0 -458 -195
t-189 -469zM836 1819h73l-180 -260h-55zM1061 1819h74l-181 -260h-55z" />
    <glyph glyph-name="ohungarumlaut" unicode="&#x151;" horiz-adv-x="1216" 
d="M109 481q0 222 143 359t356 137q212 0 355 -137q145 -139 145 -359q0 -223 -145 -362t-355 -139q-211 0 -356 139q-143 137 -143 362zM608 41q185 0 312 121q127 124 127 319q0 193 -127 314q-126 120 -312 120q-187 0 -313 -120q-125 -119 -125 -314q0 -197 125 -319
q127 -121 313 -121zM614 1362h74l-180 -260h-55zM840 1362h73l-180 -260h-55z" />
    <glyph glyph-name="OE" unicode="&#x152;" horiz-adv-x="2383" 
d="M1479 995v416h766v-61h-705v-627h617v-61h-617v-601h729v-61h-790v410q-83 -194 -258 -314q-174 -116 -394 -116q-299 0 -503 210q-205 211 -205 512t205 512q207 213 503 213q221 0 394 -118q175 -120 258 -314zM180 702q0 -274 189 -469q186 -192 458 -192
q275 0 461 192q189 195 189 469t-189 469t-461 195q-269 0 -458 -195t-189 -469z" />
    <glyph glyph-name="oe" unicode="&#x153;" horiz-adv-x="2086" 
d="M1995 481v-26h-887q9 -189 127 -301q119 -113 293 -113q112 0 206.5 51.5t151.5 143.5l53 -33q-66 -105 -174.5 -164t-236.5 -59q-159 0 -280.5 84.5t-172.5 230.5q-54 -146 -180.5 -230.5t-286.5 -84.5q-211 0 -356 139q-143 137 -143 362q0 222 143 359t356 137
q161 0 287 -84t180 -229q51 146 172.5 229.5t280.5 83.5q205 0 336 -137q131 -134 131 -359zM608 41q178 0 305 115q125 116 134 305v20v19q-9 188 -134 301q-126 114 -305 114q-187 0 -313 -120q-125 -119 -125 -314q0 -197 125 -319q127 -121 313 -121zM1108 510h825
q-9 186 -121 295q-113 110 -284 110q-173 0 -291 -112q-120 -111 -129 -293z" />
    <glyph glyph-name="Racute" unicode="&#x154;" horiz-adv-x="1230" 
d="M592 582h-313v-582h-62v1411h516q192 0 287 -121q94 -119 94 -295q0 -173 -96 -295q-93 -118 -295 -118h-55l411 -582h-73zM733 1350h-454v-707h444q164 0 247 96t83 256q0 149 -80 252q-77 103 -240 103zM723 1817h74l-181 -261h-55z" />
    <glyph glyph-name="racute" unicode="&#x155;" horiz-adv-x="745" 
d="M240 0h-62v956h62v-270q33 129 124 210t218 81q71 0 133 -19l-19 -59q-56 16 -114 16q-97 0 -169 -51.5t-108 -140.5q-62 -154 -65 -346v-377zM340 1362h74l-181 -260h-55z" />
    <glyph glyph-name="Rcommaaccent" unicode="&#x156;" horiz-adv-x="1230" 
d="M592 582h-313v-582h-62v1411h516q192 0 287 -121q94 -119 94 -295q0 -173 -96 -295q-93 -118 -295 -118h-55l411 -582h-73zM733 1350h-454v-707h444q164 0 247 96t83 256q0 149 -80 252q-77 103 -240 103zM494 -440h-56q130 133 142 299h67q-21 -194 -153 -299z" />
    <glyph glyph-name="rcommaaccent" unicode="&#x157;" horiz-adv-x="745" 
d="M240 0h-62v956h62v-270q33 129 124 210t218 81q71 0 133 -19l-19 -59q-56 16 -114 16q-97 0 -169 -51.5t-108 -140.5q-62 -154 -65 -346v-377zM37 -440q129 132 141 299h68q-21 -193 -154 -299h-55z" />
    <glyph glyph-name="Rcaron" unicode="&#x158;" horiz-adv-x="1230" 
d="M279 0h-62v1411h516q192 0 287 -121q94 -119 94 -295q0 -173 -96 -295q-93 -118 -295 -118h-55l411 -582h-73l-414 582h-313v-582zM279 1350v-707h444q164 0 247 96t83 256q0 149 -80 252q-77 103 -240 103h-454zM895 1817l-225 -261h-99l-225 261h62l213 -224l213 224
h61z" />
    <glyph glyph-name="rcaron" unicode="&#x159;" horiz-adv-x="745" 
d="M678 1362l-225 -260h-99l-225 260h61l213 -223l213 223h62zM240 0h-62v956h62v-270q33 129 124 210t218 81q71 0 133 -19l-19 -59q-56 16 -114 16q-97 0 -169 -51.5t-108 -140.5q-62 -154 -65 -346v-377z" />
    <glyph glyph-name="Sacute" unicode="&#x15a;" horiz-adv-x="1144" 
d="M123 340h61q21 -122 123 -211q104 -88 256 -88q172 0 279 82q108 83 129 196q22 143 -64 233.5t-254 129.5l-200 47q-320 71 -320 334q0 158 129 260q128 104 299 104q175 0 293 -93.5t131 -250.5h-61q-13 128 -113.5 205.5t-249.5 77.5q-144 0 -256 -86
q-110 -85 -110 -217q0 -217 270 -275l201 -47q194 -43 293 -152t71 -282q-27 -131 -149 -229q-119 -98 -318 -98q-181 0 -299 106q-120 108 -141 254zM682 1817h74l-181 -261h-55z" />
    <glyph glyph-name="sacute" unicode="&#x15b;" horiz-adv-x="858" 
d="M432 977q119 0 200 -64.5t91 -169.5h-64q-10 78 -72.5 125t-154.5 47t-159 -43.5t-74 -111.5q-21 -173 182 -223l141 -33q234 -58 234 -256q0 -121 -89 -194.5t-237 -73.5q-128 0 -221.5 64.5t-116.5 178.5h62q68 -182 276 -182q121 0 192.5 57t71.5 150q0 150 -184 196
l-143 33q-112 28 -177 90q-68 65 -53 199q12 93 95.5 152t199.5 59zM543 1362h73l-180 -260h-55z" />
    <glyph glyph-name="Scircumflex" unicode="&#x15c;" horiz-adv-x="1144" 
d="M123 340h61q21 -122 123 -211q104 -88 256 -88q172 0 279 82q108 83 129 196q22 143 -64 233.5t-254 129.5l-200 47q-320 71 -320 334q0 158 129 260q128 104 299 104q175 0 293 -93.5t131 -250.5h-61q-13 128 -113.5 205.5t-249.5 77.5q-144 0 -256 -86
q-110 -85 -110 -217q0 -217 270 -275l201 -47q194 -43 293 -152t71 -282q-27 -131 -149 -229q-119 -98 -318 -98q-181 0 -299 106q-120 108 -141 254zM305 1556l225 261h99l225 -261h-61l-213 224l-213 -224h-62z" />
    <glyph glyph-name="scircumflex" unicode="&#x15d;" horiz-adv-x="858" 
d="M432 977q119 0 200 -64.5t91 -169.5h-64q-10 78 -72.5 125t-154.5 47t-159 -43.5t-74 -111.5q-21 -173 182 -223l141 -33q234 -58 234 -256q0 -121 -89 -194.5t-237 -73.5q-128 0 -221.5 64.5t-116.5 178.5h62q68 -182 276 -182q121 0 192.5 57t71.5 150q0 150 -184 196
l-143 33q-112 28 -177 90q-68 65 -53 199q12 93 95.5 152t199.5 59zM150 1102l225 260h98l225 -260h-61l-213 223l-213 -223h-61z" />
    <glyph glyph-name="Scedilla" unicode="&#x15e;" horiz-adv-x="1144" 
d="M123 340h61q21 -122 123 -211q104 -88 256 -88q172 0 279 82q108 83 129 196q22 143 -64 233.5t-254 129.5l-200 47q-320 71 -320 334q0 158 129 260q128 104 299 104q175 0 293 -93.5t131 -250.5h-61q-13 128 -113.5 205.5t-249.5 77.5q-144 0 -256 -86
q-110 -85 -110 -217q0 -217 270 -275l201 -47q194 -43 293 -152t71 -282q-24 -122 -131 -215q-106 -93 -281 -108l54 -127q31 -73 2.5 -143t-101.5 -99q-69 -29 -136.5 -0.5t-98.5 100.5q-16 46 -16 80h59q0 -29 12 -59v2q35 -78 111 -78q31 0 47 8q78 35 78 113
q0 24 -13 53l-61 146q-178 3 -295 108q-116 107 -137 252z" />
    <glyph glyph-name="scedilla" unicode="&#x15f;" horiz-adv-x="862" 
d="M479 -18l53 -125q31 -73 3 -143t-101 -99q-69 -29 -136.5 -0.5t-98.5 100.5q-17 49 -17 80h60q0 -29 12 -59v2q35 -78 111 -78q31 0 47 8q77 35 77 113q0 26 -12 53l-61 146q-122 5 -210.5 69t-111.5 174h62q68 -182 276 -182q121 0 192.5 57t71.5 150q0 150 -184 196
l-143 33q-111 28 -176 90q-69 66 -54 199q12 93 95.5 152t199.5 59q119 0 200 -64.5t91 -169.5h-63q-10 78 -73 125t-155 47t-159 -43.5t-74 -111.5q-21 -173 182 -223l141 -33q234 -58 234 -256q0 -110 -75 -182t-204 -84z" />
    <glyph glyph-name="Scaron" unicode="&#x160;" horiz-adv-x="1144" 
d="M123 340h61q21 -122 123 -211q104 -88 256 -88q172 0 279 82q108 83 129 196q22 143 -64 233.5t-254 129.5l-200 47q-320 71 -320 334q0 158 129 260q128 104 299 104q175 0 293 -93.5t131 -250.5h-61q-13 128 -113.5 205.5t-249.5 77.5q-144 0 -256 -86
q-110 -85 -110 -217q0 -217 270 -275l201 -47q194 -43 293 -152t71 -282q-27 -131 -149 -229q-119 -98 -318 -98q-181 0 -299 106q-120 108 -141 254zM854 1817l-225 -261h-99l-225 261h62l213 -224l213 224h61z" />
    <glyph glyph-name="scaron" unicode="&#x161;" horiz-adv-x="858" 
d="M432 977q119 0 200 -64.5t91 -169.5h-64q-10 78 -72.5 125t-154.5 47t-159 -43.5t-74 -111.5q-21 -173 182 -223l141 -33q234 -58 234 -256q0 -121 -89 -194.5t-237 -73.5q-128 0 -221.5 64.5t-116.5 178.5h62q68 -182 276 -182q121 0 192.5 57t71.5 150q0 150 -184 196
l-143 33q-112 28 -177 90q-68 65 -53 199q12 93 95.5 152t199.5 59zM698 1362l-225 -260h-98l-225 260h61l213 -223l213 223h61z" />
    <glyph glyph-name="Tcommaaccent" unicode="&#x162;" horiz-adv-x="1128" 
d="M55 1350v61h1018v-61h-479v-1350h-62v1350h-477zM449 -440h-56q130 133 142 299h67q-21 -194 -153 -299z" />
    <glyph glyph-name="tcommaaccent" unicode="&#x163;" horiz-adv-x="583" 
d="M530 956v-55h-237v-901h-62v901h-174v55h174v406h62v-406h237zM92 -440q129 132 141 299h68q-21 -193 -154 -299h-55z" />
    <glyph glyph-name="Tcaron" unicode="&#x164;" horiz-adv-x="1128" 
d="M1073 1411v-61h-479v-1350h-62v1350h-477v61h1018zM838 1817l-226 -261h-98l-225 261h61l213 -224l213 224h62z" />
    <glyph glyph-name="tcaron" unicode="&#x165;" horiz-adv-x="583" 
d="M530 956v-55h-237v-901h-62v901h-174v55h174v406h62v-406h237zM500 1362h59q3 -194 -113 -322l-30 19q87 116 84 303z" />
    <glyph glyph-name="Tbar" unicode="&#x166;" horiz-adv-x="1128" 
d="M532 0v743h-258v62h258v545h-477v61h1018v-61h-479v-545h256v-62h-256v-743h-62z" />
    <glyph glyph-name="tbar" unicode="&#x167;" horiz-adv-x="589" 
d="M297 0h-61v485h-132v56h132v360h-175v55h175v406h61v-406h238v-55h-238v-360h152v-56h-152v-485z" />
    <glyph glyph-name="Utilde" unicode="&#x168;" horiz-adv-x="1380" 
d="M674 1657q-58 43 -86 43q-29 0 -52 -24t-24 -66h-61q1 69 43 107t94 38q53 0 119 -51q51 -39 84 -39q29 0 51.5 24t23.5 66h62q-1 -69 -43 -107t-94 -38t-117 47zM1116 1411h62v-948q0 -214 -142 -350t-346 -136t-346 136q-141 135 -141 350v948h61v-948q0 -187 123 -307
q123 -117 303 -117t303 117q123 120 123 307v948z" />
    <glyph glyph-name="utilde" unicode="&#x169;" horiz-adv-x="1148" 
d="M571 1202q-58 43 -86 43q-29 0 -51.5 -24t-23.5 -66h-62q1 69 43 107t94 38q53 0 119 -51q51 -39 84 -39q29 0 52 24t24 66h61q-1 -69 -43 -107t-94 -38t-117 47zM909 956h62v-956h-62v211q-35 -114 -131 -172.5t-223 -58.5q-172 0 -281 112q-110 113 -110 301v563h61
v-563q0 -159 92.5 -255.5t237.5 -96.5q156 0 252 93.5t102 275.5v546z" />
    <glyph glyph-name="Umacron" unicode="&#x16a;" horiz-adv-x="1380" 
d="M1116 1411h62v-948q0 -214 -142 -350t-346 -136t-346 136q-141 135 -141 350v948h61v-948q0 -187 123 -307q123 -117 303 -117t303 117q123 120 123 307v948zM457 1688v55h467v-55h-467z" />
    <glyph glyph-name="umacron" unicode="&#x16b;" horiz-adv-x="1148" 
d="M909 956h62v-956h-62v211q-35 -114 -131 -172.5t-223 -58.5q-172 0 -281 112q-110 113 -110 301v563h61v-563q0 -159 92.5 -255.5t237.5 -96.5q156 0 252 93.5t102 275.5v546zM354 1233v55h467v-55h-467z" />
    <glyph glyph-name="Ubreve" unicode="&#x16c;" horiz-adv-x="1380" 
d="M1116 1411h62v-948q0 -214 -142 -350t-346 -136t-346 136q-141 135 -141 350v948h61v-948q0 -187 123 -307q123 -117 303 -117t303 117q123 120 123 307v948zM858 1786h55q0 -93 -61.5 -149t-163.5 -56q-106 0 -164.5 58t-58.5 147h55q0 -66 43.5 -108t124.5 -42
q78 0 124 41t46 109z" />
    <glyph glyph-name="ubreve" unicode="&#x16d;" horiz-adv-x="1148" 
d="M909 956h62v-956h-62v211q-35 -114 -131 -172.5t-223 -58.5q-172 0 -281 112q-110 113 -110 301v563h61v-563q0 -159 92.5 -255.5t237.5 -96.5q156 0 252 93.5t102 275.5v546zM725 1331h55q0 -92 -62.5 -148.5t-162.5 -56.5q-106 0 -164.5 58t-58.5 147h55
q0 -66 43 -107.5t125 -41.5q78 0 124 40.5t46 108.5z" />
    <glyph glyph-name="Uring" unicode="&#x16e;" horiz-adv-x="1380" 
d="M1178 463q0 -214 -142 -350t-346 -136t-346 136q-141 135 -141 350v948h61v-948q0 -187 123 -307q123 -117 303 -117t303 117q123 120 123 307v948h62v-948zM520 1763q0 72 48.5 122t117.5 50q72 0 122 -50t50 -122q0 -69 -50 -118.5t-122 -49.5q-69 0 -117.5 49.5
t-48.5 118.5zM575 1763q0 -47 32 -79.5t79 -32.5q49 0 83 32.5t34 79.5q0 49 -33.5 83t-83.5 34q-47 0 -79 -33.5t-32 -83.5z" />
    <glyph glyph-name="uring" unicode="&#x16f;" horiz-adv-x="1148" 
d="M391 1309q0 72 48.5 122t117.5 50q72 0 122 -50t50 -122q0 -69 -50 -118.5t-122 -49.5q-69 0 -117.5 49.5t-48.5 118.5zM446 1309q0 -47 32 -80t79 -33q49 0 83 33t34 80q0 49 -33.5 82.5t-83.5 33.5q-47 0 -79 -33.5t-32 -82.5zM909 956h62v-956h-62v211
q-35 -114 -131 -172.5t-223 -58.5q-172 0 -281 112q-110 113 -110 301v563h61v-563q0 -159 92.5 -255.5t237.5 -96.5q156 0 252 93.5t102 275.5v546z" />
    <glyph glyph-name="Uhungarumlaut" unicode="&#x170;" horiz-adv-x="1380" 
d="M1116 1411h62v-948q0 -214 -142 -350t-346 -136t-346 136q-141 135 -141 350v948h61v-948q0 -187 123 -307q123 -117 303 -117t303 117q123 120 123 307v948zM676 1817h74l-181 -261h-55zM901 1817h74l-180 -261h-56z" />
    <glyph glyph-name="uhungarumlaut" unicode="&#x171;" horiz-adv-x="1148" 
d="M909 956h62v-956h-62v211q-35 -114 -131 -172.5t-223 -58.5q-172 0 -281 112q-110 113 -110 301v563h61v-563q0 -159 92.5 -255.5t237.5 -96.5q156 0 252 93.5t102 275.5v546zM557 1362h74l-180 -260h-56zM782 1362h74l-180 -260h-55z" />
    <glyph glyph-name="Uogonek" unicode="&#x172;" horiz-adv-x="1380" 
d="M1116 1411h62v-948q0 -208 -136 -344q-136 -133 -333 -142l-60 -143q-12 -27 -12 -53q0 -78 78 -113q16 -8 47 -8q75 0 110 78v-2q13 32 13 59h59q0 -34 -16 -80q-31 -72 -99 -100.5t-137 0.5q-73 29 -101 99t3 143l49 123q-189 15 -315 147q-125 131 -125 336v948h61
v-948q0 -187 123 -307q123 -117 303 -117t303 117q123 120 123 307v948z" />
    <glyph glyph-name="uogonek" unicode="&#x173;" horiz-adv-x="1148" 
d="M909 956h62v-956l-66 -166q-12 -38 -12 -53q0 -78 78 -113q16 -8 47 -8q75 0 110 78v-2q13 33 13 59h59q0 -34 -16 -80q-31 -72 -99 -100.5t-137 0.5q-73 29 -101 99t3 143l59 143v211q-35 -114 -131 -172.5t-223 -58.5q-172 0 -281 112q-110 113 -110 301v563h61v-563
q0 -159 92.5 -255.5t237.5 -96.5q156 0 252 93.5t102 275.5v546z" />
    <glyph glyph-name="Wcircumflex" unicode="&#x174;" horiz-adv-x="1892" 
d="M1309 82l450 1329h66l-479 -1411h-70l-330 1104l-330 -1104h-69l-479 1411h63l451 -1327l329 1102h70zM672 1556l225 261h98l226 -261h-62l-213 224l-213 -224h-61z" />
    <glyph glyph-name="wcircumflex" unicode="&#x175;" horiz-adv-x="1689" 
d="M1554 956h66l-360 -956h-64l-354 915l-342 -915h-66l-368 956h65l336 -870l326 870h100l334 -866zM567 1102l226 260h98l225 -260h-61l-213 223l-213 -223h-62z" />
    <glyph glyph-name="Ycircumflex" unicode="&#x176;" horiz-adv-x="1214" 
d="M1094 1411h73l-530 -735v-676h-62v678l-526 733h74l483 -676zM334 1556l225 261h98l226 -261h-62l-213 224l-213 -224h-61z" />
    <glyph glyph-name="ycircumflex" unicode="&#x177;" horiz-adv-x="1019" 
d="M958 956l-409 -956l-199 -463h-67l190 453l-410 966h68l377 -893l383 893h67zM238 1102l225 260h98l225 -260h-61l-213 223l-213 -223h-61z" />
    <glyph glyph-name="Ydieresis" unicode="&#x178;" horiz-adv-x="1214" 
d="M637 676v-676h-62v678l-526 733h74l483 -676l488 676h73zM387 1726q0 26 18.5 43t45.5 17q29 0 47 -17t18 -43q0 -25 -18 -41t-47 -16q-27 0 -45.5 16.5t-18.5 40.5zM700 1726q0 26 18.5 43t45.5 17q29 0 47 -17t18 -43q0 -25 -18 -41t-47 -16q-27 0 -45.5 16.5
t-18.5 40.5z" />
    <glyph glyph-name="Zacute" unicode="&#x179;" horiz-adv-x="1071" 
d="M989 1370l-819 -1309h819v-61h-907v33l825 1317h-825v61h907v-41zM612 1817h74l-180 -261h-55z" />
    <glyph glyph-name="zacute" unicode="&#x17a;" horiz-adv-x="956" 
d="M868 61v-61h-780v37l686 858h-686v61h780v-41l-682 -854h682zM551 1362h74l-181 -260h-55z" />
    <glyph glyph-name="Zdotaccent" unicode="&#x17b;" horiz-adv-x="1071" 
d="M989 61v-61h-907v33l825 1317h-825v61h907v-41l-819 -1309h819zM471 1726q0 26 18.5 43t45.5 17q29 0 47 -17t18 -43q0 -25 -18 -41t-47 -16q-27 0 -45.5 16.5t-18.5 40.5z" />
    <glyph glyph-name="zdotaccent" unicode="&#x17c;" horiz-adv-x="956" 
d="M868 61v-61h-780v37l686 858h-686v61h780v-41l-682 -854h682zM414 1272q0 26 18 42.5t45 16.5q29 0 47.5 -16.5t18.5 -42.5q0 -25 -18.5 -41.5t-47.5 -16.5q-26 0 -44.5 16.5t-18.5 41.5z" />
    <glyph glyph-name="Zcaron" unicode="&#x17d;" horiz-adv-x="1071" 
d="M989 61v-61h-907v33l825 1317h-825v61h907v-41l-819 -1309h819zM809 1817l-225 -261h-99l-225 261h62l213 -224l213 224h61z" />
    <glyph glyph-name="zcaron" unicode="&#x17e;" horiz-adv-x="956" 
d="M868 61v-61h-780v37l686 858h-686v61h780v-41l-682 -854h682zM754 1362l-226 -260h-98l-225 260h61l213 -223l213 223h62z" />
    <glyph glyph-name="longs" unicode="&#x17f;" horiz-adv-x="538" 
d="M258 0v901h-197v55h197v162q0 402 320 402h69v-62h-69q-259 0 -259 -340v-1118h-61z" />
    <glyph glyph-name="florin" unicode="&#x192;" horiz-adv-x="1175" 
d="M678 901l-158 -958q-64 -402 -385 -402h-69l10 62h69q259 0 314 340l157 958h-196l10 55h197l26 162q65 402 385 402h70l-10 -62h-70q-258 0 -313 -340l-27 -162h270l-10 -55h-270z" />
    <glyph glyph-name="Aringacute" unicode="&#x1fa;" horiz-adv-x="1265" 
d="M989 393h-713l-151 -393h-66l541 1411h66l538 -1411h-65zM969 449l-336 876l-336 -876h672zM731 2060h74l-143 -205q60 -10 99.5 -57.5t39.5 -109.5q0 -69 -50 -118.5t-122 -49.5q-69 0 -117.5 49.5t-48.5 118.5q0 63 40.5 111t100.5 59zM518 1688q0 -47 32 -80t79 -33
q49 0 82.5 33t33.5 80q0 50 -33.5 83t-82.5 33q-47 0 -79 -33.5t-32 -82.5z" />
    <glyph glyph-name="aringacute" unicode="&#x1fb;" 
d="M1106 0h-62v238q-64 -118 -181 -188t-257 -70q-207 0 -352 145q-145 148 -145 354q0 205 145 350q148 148 352 148q140 0 257 -70t181 -188v237h62v-956zM606 41q177 0 303 123q129 123 135 297v18q0 181 -129 307q-129 129 -309 129t-309 -129q-127 -127 -127 -307
q0 -179 127 -309q129 -129 309 -129zM715 1640h73l-143 -204q60 -10 99.5 -58t39.5 -110q0 -69 -50 -118.5t-122 -49.5q-69 0 -117.5 49.5t-48.5 118.5q0 63 41 111t101 59zM502 1268q0 -48 31.5 -80.5t78.5 -32.5q49 0 83 33t34 80q0 49 -33.5 82.5t-83.5 33.5
q-47 0 -78.5 -33t-31.5 -83z" />
    <glyph glyph-name="AEacute" unicode="&#x1fc;" horiz-adv-x="1996" 
d="M1092 461v889h-91l-585 -889h676zM41 0l930 1411h887v-61h-705v-627h616v-61h-616v-601h729v-61h-790v399h-715l-262 -399h-74zM1184 1819h73l-180 -260h-55z" />
    <glyph glyph-name="aeacute" unicode="&#x1fd;" horiz-adv-x="2086" 
d="M606 41q177 0 303 123q129 123 135 297v18q0 181 -129 307q-129 129 -309 129t-309 -129q-127 -127 -127 -307q0 -179 127 -309q129 -129 309 -129zM1044 956h62v-225q60 115 172.5 180.5t249.5 65.5q205 0 336 -137q131 -134 131 -359v-26h-887q9 -189 127 -301
q119 -113 293 -113q112 0 206.5 51.5t151.5 143.5l53 -33q-66 -105 -174.5 -164t-236.5 -59q-140 0 -251 65t-171 182v-227h-62v238q-64 -118 -181 -188t-257 -70q-207 0 -352 145q-145 148 -145 354q0 205 145 350q148 148 352 148q140 0 257 -70t181 -188v237zM1108 510
h825q-9 186 -121 295q-113 110 -284 110q-173 0 -291 -112q-120 -111 -129 -293zM1200 1362h74l-180 -260h-56z" />
    <glyph glyph-name="Oslashacute" unicode="&#x1fe;" horiz-adv-x="1654" 
d="M344 170l-188 -190l-43 43l188 190q-184 205 -184 489q0 301 205 512q207 213 503 213q282 0 486 -192l190 192l43 -41l-192 -194q184 -205 184 -490q0 -299 -207 -512q-204 -210 -504 -210q-282 0 -481 190zM178 702q0 -259 166 -446l922 934q-188 176 -441 176
q-269 0 -458 -195t-189 -469zM825 41q275 0 461 192q189 195 189 469q0 258 -166 445l-922 -934q184 -172 438 -172zM958 1819h74l-180 -260h-55z" />
    <glyph glyph-name="oslashacute" unicode="&#x1ff;" horiz-adv-x="1216" 
d="M272 100l-118 -120l-43 43l118 118q-120 138 -120 340q0 222 143 359t356 137q194 0 334 -119l121 123l43 -41l-121 -123q123 -135 123 -336q0 -223 -145 -362t-355 -139q-198 0 -336 120zM608 41q185 0 312 121q127 124 127 319q0 172 -107 291l-625 -629
q120 -102 293 -102zM608 915q-187 0 -313 -120q-125 -119 -125 -314q0 -179 104 -295l623 629q-121 100 -289 100zM739 1362h74l-180 -260h-55z" />
    <glyph glyph-name="Scommaaccent" unicode="&#x218;" horiz-adv-x="1144" 
d="M123 340h61q21 -122 123 -211q104 -88 256 -88q172 0 279 82q108 83 129 196q22 143 -64 233.5t-254 129.5l-200 47q-320 71 -320 334q0 158 129 260q128 104 299 104q175 0 293 -93.5t131 -250.5h-61q-13 128 -113.5 205.5t-249.5 77.5q-144 0 -256 -86
q-110 -85 -110 -217q0 -217 270 -275l201 -47q194 -43 293 -152t71 -282q-27 -131 -149 -229q-119 -98 -318 -98q-181 0 -299 106q-120 108 -141 254zM406 -440q129 132 141 299h67q-21 -194 -153 -299h-55z" />
    <glyph glyph-name="scommaaccent" unicode="&#x219;" horiz-adv-x="858" 
d="M432 977q119 0 200 -64.5t91 -169.5h-64q-10 78 -72.5 125t-154.5 47t-159 -43.5t-74 -111.5q-21 -173 182 -223l141 -33q234 -58 234 -256q0 -121 -89 -194.5t-237 -73.5q-128 0 -221.5 64.5t-116.5 178.5h62q68 -182 276 -182q121 0 192.5 57t71.5 150q0 150 -184 196
l-143 33q-112 28 -177 90q-68 65 -53 199q12 93 95.5 152t199.5 59zM317 -440h-55q129 132 141 299h68q-21 -193 -154 -299z" />
    <glyph glyph-name="circumflex" unicode="&#x2c6;" horiz-adv-x="978" 
d="M215 1102l225 260h99l225 -260h-62l-213 223l-213 -223h-61z" />
    <glyph glyph-name="caron" unicode="&#x2c7;" horiz-adv-x="978" 
d="M764 1362l-225 -260h-99l-225 260h61l213 -223l213 223h62z" />
    <glyph glyph-name="breve" unicode="&#x2d8;" horiz-adv-x="1103" 
d="M721 1331h55q0 -92 -62.5 -148.5t-162.5 -56.5q-106 0 -164.5 58t-58.5 147h55q0 -66 43 -107.5t125 -41.5q78 0 124 40.5t46 108.5z" />
    <glyph glyph-name="dotaccent" unicode="&#x2d9;" horiz-adv-x="948" 
d="M410 1272q0 26 18 42.5t45 16.5q29 0 47.5 -16.5t18.5 -42.5q0 -25 -18.5 -41.5t-47.5 -16.5q-26 0 -44.5 16.5t-18.5 41.5z" />
    <glyph glyph-name="ring" unicode="&#x2da;" horiz-adv-x="993" 
d="M328 1309q0 72 48.5 122t117.5 50q72 0 122 -50t50 -122q0 -69 -50 -118.5t-122 -49.5q-69 0 -117.5 49.5t-48.5 118.5zM383 1309q0 -47 32 -80t79 -33q49 0 82.5 33t33.5 80q0 49 -33 82.5t-83 33.5q-47 0 -79 -33.5t-32 -82.5z" />
    <glyph glyph-name="ogonek" unicode="&#x2db;" horiz-adv-x="1021" 
d="M371 -143l63 153h66l-74 -176q-12 -27 -12 -53q0 -78 78 -113q16 -8 47 -8q75 0 110 78v-2q13 32 13 59h59q0 -34 -16 -80q-31 -72 -99 -100.5t-137 0.5q-73 29 -101 99t3 143z" />
    <glyph glyph-name="tilde" unicode="&#x2dc;" horiz-adv-x="968" 
d="M469 1202q-58 43 -86 43q-29 0 -52 -24t-24 -66h-61q1 69 43 107t94 38q53 0 119 -51q51 -39 84 -39q29 0 52 24t24 66h61q-1 -69 -43 -107t-94 -38t-117 47z" />
    <glyph glyph-name="hungarumlaut" unicode="&#x2dd;" horiz-adv-x="788" 
d="M326 1362h73l-180 -260h-55zM551 1362h74l-181 -260h-55z" />
    <glyph glyph-name="Wgrave" unicode="&#x1e80;" horiz-adv-x="1892" 
d="M1825 1411l-479 -1411h-76l-324 1104l-323 -1104h-76l-479 1411h63l451 -1327l323 1102h82l322 -1104l450 1329h66zM958 1556h-55l-180 261h74z" />
    <glyph glyph-name="wgrave" unicode="&#x1e81;" horiz-adv-x="1689" 
d="M1260 0h-64l-354 915l-342 -915h-66l-368 956h65l336 -870l326 870h100l334 -866l327 866h66zM872 1102h-55l-180 260h74z" />
    <glyph glyph-name="Wacute" unicode="&#x1e82;" horiz-adv-x="1892" 
d="M1309 82l450 1329h66l-479 -1411h-76l-324 1104l-323 -1104h-76l-479 1411h63l451 -1327l323 1102h82zM1075 1817h74l-180 -261h-56z" />
    <glyph glyph-name="wacute" unicode="&#x1e83;" horiz-adv-x="1689" 
d="M1554 956h66l-360 -956h-64l-354 915l-342 -915h-66l-368 956h65l336 -870l326 870h100l334 -866zM967 1362h73l-180 -260h-55z" />
    <glyph glyph-name="Wdieresis" unicode="&#x1e84;" horiz-adv-x="1892" 
d="M1825 1411l-479 -1411h-76l-324 1104l-323 -1104h-76l-479 1411h63l451 -1327l323 1102h82l322 -1104l450 1329h66zM725 1726q0 26 18 43t45 17q29 0 47.5 -17t18.5 -43q0 -25 -18.5 -41t-47.5 -16q-27 0 -45 16t-18 41zM1038 1726q0 26 18.5 43t45.5 17q29 0 47 -17
t18 -43q0 -25 -18 -41t-47 -16q-27 0 -45.5 16.5t-18.5 40.5z" />
    <glyph glyph-name="wdieresis" unicode="&#x1e85;" horiz-adv-x="1689" 
d="M1260 0h-64l-354 915l-342 -915h-66l-368 956h65l336 -870l326 870h100l334 -866l327 866h66zM621 1272q0 26 18 42.5t45 16.5q29 0 47.5 -16.5t18.5 -42.5q0 -25 -18.5 -41.5t-47.5 -16.5q-26 0 -44.5 16.5t-18.5 41.5zM934 1272q0 26 18 42.5t45 16.5q29 0 47.5 -16.5
t18.5 -42.5q0 -25 -18.5 -41.5t-47.5 -16.5q-26 0 -44.5 16.5t-18.5 41.5z" />
    <glyph glyph-name="Ygrave" unicode="&#x1ef2;" horiz-adv-x="1214" 
d="M637 676v-676h-62v678l-526 733h74l483 -676l488 676h73zM635 1556h-55l-181 261h74z" />
    <glyph glyph-name="ygrave" unicode="&#x1ef3;" horiz-adv-x="1019" 
d="M350 -463h-67l190 453l-410 966h68l377 -893l383 893h67l-409 -956zM563 1102h-55l-180 260h73z" />
    <glyph glyph-name="thinspace" unicode="&#x2009;" horiz-adv-x="28" 
 />
    <glyph glyph-name="endash" unicode="&#x2013;" horiz-adv-x="1210" 
d="M158 422v61h895v-61h-895z" />
    <glyph glyph-name="emdash" unicode="&#x2014;" horiz-adv-x="1622" 
d="M158 422v61h1306v-61h-1306z" />
    <glyph glyph-name="quoteleft" unicode="&#x2018;" horiz-adv-x="438" 
d="M287 1430l47 -19q-123 -170 -117 -391h-61q-3 218 131 410z" />
    <glyph glyph-name="quoteright" unicode="&#x2019;" horiz-adv-x="440" 
d="M174 1001l-47 19q123 170 117 391h61q3 -218 -131 -410z" />
    <glyph glyph-name="quotesinglbase" unicode="&#x201a;" horiz-adv-x="428" 
d="M121 -176l-47 18q122 168 116 391h62q3 -217 -131 -409z" />
    <glyph glyph-name="quotedblleft" unicode="&#x201c;" horiz-adv-x="630" 
d="M479 1430l47 -19q-122 -168 -116 -391h-62q-3 218 131 410zM287 1430l47 -19q-123 -170 -117 -391h-61q-3 218 131 410z" />
    <glyph glyph-name="quotedblright" unicode="&#x201d;" horiz-adv-x="632" 
d="M174 1001l-47 19q123 170 117 391h61q3 -218 -131 -410zM367 1001l-48 19q123 170 117 391h62q3 -218 -131 -410z" />
    <glyph glyph-name="quotedblbase" unicode="&#x201e;" horiz-adv-x="620" 
d="M121 -176l-47 18q122 168 116 391h62q3 -217 -131 -409zM313 -176l-47 18q123 170 117 391h61q3 -217 -131 -409z" />
    <glyph glyph-name="dagger" unicode="&#x2020;" horiz-adv-x="815" 
d="M438 1411v-412h277v-61h-277v-1214h-61v1214h-277v61h277v412h61z" />
    <glyph glyph-name="daggerdbl" unicode="&#x2021;" horiz-adv-x="860" 
d="M461 1411v-412h276v-61h-276v-686h276v-62h-276v-466h-62v466h-276v62h276v686h-276v61h276v412h62z" />
    <glyph glyph-name="bullet" unicode="&#x2022;" horiz-adv-x="862" 
d="M430 702q101 0 170.5 -64.5t69.5 -160.5t-69.5 -160.5t-170.5 -64.5q-99 0 -168 64.5t-69 160.5t69 160.5t168 64.5z" />
    <glyph glyph-name="ellipsis" unicode="&#x2026;" horiz-adv-x="1236" 
d="M158 37q0 26 18 42.5t45 16.5q29 0 47.5 -16.5t18.5 -42.5q0 -25 -18.5 -41t-47.5 -16q-27 0 -45 16t-18 41zM553 37q0 26 18 42.5t45 16.5q29 0 47.5 -16.5t18.5 -42.5q0 -25 -18.5 -41t-47.5 -16q-27 0 -45 16t-18 41zM948 37q0 26 18.5 42.5t45.5 16.5q29 0 47 -16.5
t18 -42.5q0 -25 -18 -41t-47 -16q-27 0 -45.5 16.5t-18.5 40.5z" />
    <glyph glyph-name="perthousand" unicode="&#x2030;" horiz-adv-x="1908" 
d="M334 1378q104 0 174 -73q74 -71 74 -175t-72 -176q-69 -69 -176 -69t-176 69q-70 70 -70 176q0 104 71 176t175 72zM360 0h-69l663 1360h66zM334 1317q-78 0 -131 -54.5t-53 -132.5t53 -131t131 -53t132 53t54 131q0 77 -55 132t-131 55zM1008 475q103 0 174 -74
q73 -70 73 -174q0 -105 -71 -176q-69 -69 -176 -69q-108 0 -177 69t-69 176q0 104 71 176t175 72zM1194 227q0 76 -54.5 131.5t-131.5 55.5q-78 0 -131.5 -54.5t-53.5 -132.5t53.5 -131t131.5 -53t132 53t54 131zM1585 475q103 0 174 -74q74 -71 74 -174q0 -104 -72 -176
q-69 -69 -176 -69t-176 69q-70 70 -70 176q0 104 71 176t175 72zM1772 227q0 76 -55 131.5t-132 55.5q-78 0 -131 -54.5t-53 -132.5t53 -131t131 -53t132.5 53t54.5 131z" />
    <glyph glyph-name="guilsinglleft" unicode="&#x2039;" horiz-adv-x="589" 
d="M469 899l-283 -424l285 -424h-76l-282 424l282 424h74z" />
    <glyph glyph-name="guilsinglright" unicode="&#x203a;" horiz-adv-x="589" 
d="M195 51h-76l284 424l-282 424h74l282 -424z" />
    <glyph glyph-name="fraction" unicode="&#x2044;" horiz-adv-x="368" 
d="M600 1378h74l-918 -1398h-73z" />
    <glyph glyph-name="zerosuperior" unicode="&#x2070;" horiz-adv-x="727" 
d="M365 1763q144 0 206 -102.5t62 -300.5q0 -199 -62.5 -301.5t-205.5 -102.5q-146 0 -209.5 102.5t-63.5 301.5q0 198 63.5 300.5t209.5 102.5zM365 1018q206 0 206 342t-206 342q-211 0 -211 -342t211 -342z" />
    <glyph glyph-name="foursuperior" unicode="&#x2074;" horiz-adv-x="722" 
d="M473 1200v461l-315 -461h315zM662 1200v-57h-127v-176h-62v176h-428l444 641h46v-584h127z" />
    <glyph glyph-name="fivesuperior" unicode="&#x2075;" horiz-adv-x="696" 
d="M565 1784v-64h-338l-55 -299q107 52 184 52q109 0 185 -70q80 -68 80 -184q0 -119 -77 -191t-210 -72q-79 0 -154 46t-112 116q5 5 28.5 20.5t24.5 16.5q29 -59 89 -97t124 -38q102 0 162.5 55.5t60.5 143.5q0 85 -59.5 137.5t-141.5 52.5q-98 0 -229 -61l-23 30l70 406
h391z" />
    <glyph glyph-name="sixsuperior" unicode="&#x2076;" horiz-adv-x="692" 
d="M106 1225q-7 62 -5 129t7 131t25.5 121t50.5 100t82 67t121 23q154 -3 213 -139l-55 -25q-47 100 -160 103q-136 3 -186 -129q-36 -107 -33 -254q23 60 82.5 94t128.5 29q104 -3 176 -84q71 -77 68 -187q-6 -110 -82 -180q-77 -71 -183 -68q-106 5 -174.5 77t-75.5 192z
M168 1225q0 -85 55 -143.5t135 -63.5q82 -2 139.5 52t61.5 138q2 85 -50 143t-134 62q-82 5 -144 -51t-63 -137z" />
    <glyph glyph-name="sevensuperior" unicode="&#x2077;" horiz-adv-x="634" 
d="M604 1784l-448 -817h-74l418 755h-422v62h526z" />
    <glyph glyph-name="eightsuperior" unicode="&#x2078;" horiz-adv-x="708" 
d="M346 1466h14q59 0 99.5 40t40.5 96t-42.5 94.5t-103.5 38.5t-102 -38.5t-41 -94.5t39 -96t96 -40zM143 1212q0 -82 60.5 -138t150.5 -56q53 -3 98.5 19t72 61t37.5 84t-4 91t-54 79q-59 59 -148 59q-87 0 -150 -59.5t-63 -139.5zM150 1602q0 82 58.5 138t145.5 56
q88 0 147.5 -56t59.5 -138q0 -101 -90 -160q70 -29 113 -92.5t43 -137.5q0 -108 -80 -182q-77 -74 -193 -74q-117 0 -194 74q-78 75 -78 182q0 75 42.5 138t111.5 94q-86 53 -86 158z" />
    <glyph glyph-name="ninesuperior" unicode="&#x2079;" horiz-adv-x="692" 
d="M598 1526q6 -62 4 -128.5t-7.5 -130.5t-26 -121.5t-50.5 -100t-81.5 -67t-119.5 -22.5q-158 3 -217 140l56 22q48 -97 163 -100q68 -1 116.5 31.5t68.5 93.5q38 101 35 256q-23 -60 -82.5 -94t-128.5 -29q-105 3 -178 82q-69 78 -66 188q6 110 82 181.5t182 66.5
t174.5 -76.5t75.5 -191.5zM537 1528q0 86 -54.5 143t-136.5 62q-82 2 -138.5 -51.5t-60.5 -137.5q-5 -85 48 -144.5t135 -60.5q83 -5 144.5 50t62.5 139z" />
    <glyph glyph-name="zeroinferior" unicode="&#x2080;" horiz-adv-x="727" 
d="M365 418q143 0 205.5 -102.5t62.5 -301.5q0 -198 -62 -300.5t-206 -102.5q-146 0 -209.5 102.5t-63.5 300.5q0 199 63.5 301.5t209.5 102.5zM365 -328q206 0 206 342t-206 342q-211 0 -211 -342t211 -342z" />
    <glyph glyph-name="oneinferior" unicode="&#x2081;" horiz-adv-x="382" 
d="M260 434v-813h-61v727l-142 -49v61z" />
    <glyph glyph-name="twoinferior" unicode="&#x2082;" horiz-adv-x="647" 
d="M188 -317h371v-62h-479v23l342 409q74 89 74 166q0 73 -52.5 120.5t-130.5 47.5q-68 0 -119 -37t-63 -96l-57 16q17 80 83 129.5t156 49.5q105 0 174.5 -65.5t69.5 -164.5q0 -100 -90 -207z" />
    <glyph glyph-name="threeinferior" unicode="&#x2083;" horiz-adv-x="663" 
d="M483 225q5 67 -38 111.5t-121 50.5q-54 5 -104 -19t-73 -65l-51 31q33 56 96 87.5t136 27.5q110 -7 168.5 -72t50.5 -160q-9 -110 -117 -156q68 -17 111 -84.5t37 -142.5q-9 -99 -91 -166q-81 -66 -190 -57q-83 5 -136 36.5t-91 102.5l49 33q49 -102 182 -111
q87 -4 147 44t68 128q1 79 -53 132t-133 53h-80v59h80q58 0 103.5 39t49.5 98z" />
    <glyph glyph-name="fourinferior" unicode="&#x2084;" horiz-adv-x="720" 
d="M473 -145v460l-315 -460h315zM662 -145v-58h-127v-176h-62v176h-428l444 641h46v-583h127z" />
    <glyph glyph-name="fiveinferior" unicode="&#x2085;" horiz-adv-x="692" 
d="M565 438v-63h-338l-55 -299q105 51 184 51q109 0 185 -70q80 -68 80 -184q0 -119 -77 -190.5t-210 -71.5q-79 0 -154 46t-112 116q1 1 24.5 16.5t28.5 20.5q29 -60 89.5 -98t123.5 -38q102 0 162.5 55.5t60.5 143.5q0 85 -59.5 137.5t-141.5 52.5q-98 0 -229 -61l-23 31
l70 405h391z" />
    <glyph glyph-name="sixinferior" unicode="&#x2086;" horiz-adv-x="690" 
d="M106 -121q-7 62 -5 129t7 131t25.5 121.5t50.5 100t82 67t121 23.5q154 -3 213 -140l-55 -24q-47 99 -160 102q-136 3 -186 -129q-36 -107 -33 -254q23 60 82.5 94t128.5 29q104 -3 176 -84q71 -77 68 -186q-6 -111 -82 -181t-183 -67q-106 5 -174.5 76.5t-75.5 191.5z
M168 -121q0 -85 55 -143.5t135 -63.5q82 -2 139.5 52.5t61.5 138.5q2 85 -50 143t-134 62q-82 5 -144 -51.5t-63 -137.5z" />
    <glyph glyph-name="seveninferior" unicode="&#x2087;" horiz-adv-x="624" 
d="M600 438l-448 -817h-74l418 756h-422v61h526z" />
    <glyph glyph-name="eightinferior" unicode="&#x2088;" horiz-adv-x="708" 
d="M346 121h14q59 0 99.5 39.5t40.5 95.5t-42.5 94.5t-103.5 38.5t-102 -38.5t-41 -94.5t39 -95.5t96 -39.5zM143 -133q0 -82 60.5 -138.5t150.5 -56.5q53 -3 98.5 19t72 61t37.5 84t-4 91t-54 79q-60 60 -148 60q-87 0 -150 -59.5t-63 -139.5zM150 256q0 82 58.5 138.5
t145.5 56.5q88 0 147.5 -56.5t59.5 -138.5q0 -101 -90 -160q70 -30 113 -92.5t43 -136.5q0 -108 -80 -182q-77 -74 -193 -74q-117 0 -194 74q-78 75 -78 182q0 74 42 137t112 94q-86 53 -86 158z" />
    <glyph glyph-name="nineinferior" unicode="&#x2089;" horiz-adv-x="696" 
d="M600 180q6 -62 4 -128.5t-7.5 -130.5t-26 -121t-50.5 -99.5t-81.5 -67t-119.5 -22.5q-158 3 -217 139l56 23q48 -98 164 -101q68 -1 116 32t68 95q38 99 35 254q-23 -60 -82.5 -94t-128.5 -29q-105 3 -178 82q-69 78 -66 189q6 110 82 181.5t182 66.5t174.5 -77
t75.5 -192zM539 182q0 86 -54.5 143t-136.5 62q-82 2 -138 -51t-60 -137q-5 -85 47.5 -144.5t134.5 -60.5q83 -5 144.5 49.5t62.5 138.5z" />
    <glyph glyph-name="colonmonetary" unicode="&#x20a1;" horiz-adv-x="1382" 
d="M561 25l-80 -213l-59 22l82 217q-84 40 -146 96l-102 -274l-59 23l112 301q-196 205 -196 505q0 294 188 500q190 208 469 223l76 199l59 -22l-65 -175q88 -6 168 -30l63 166l59 -23l-61 -166q115 -50 197 -123l-41 -45q-85 73 -178 111l-465 -1235q109 -41 225 -41
q235 0 416 158l41 -45q-192 -174 -457 -174q-130 0 -246 45zM174 702q0 -253 160 -442l414 1102q-241 -21 -410 -211q-164 -188 -164 -449zM817 1366l-434 -1157q65 -60 141 -100l463 1230q-92 24 -170 27z" />
    <glyph glyph-name="lira" unicode="&#x20a4;" horiz-adv-x="1300" 
d="M317 514v176h-174v58h174v315q0 166 119 270q119 107 281 107q149 0 258 -92t121 -244h-62q-12 123 -101.5 198.5t-215.5 75.5q-137 0 -238 -88q-100 -87 -100 -227v-315h248v-58h-248v-176h248v-57h-248v-396h659q37 0 61.5 27t24.5 68v88h62v-88q0 -66 -43 -111
t-105 -45h-932v61h211v396h-174v57h174z" />
    <glyph glyph-name="uni20A6" unicode="&#x20a6;" horiz-adv-x="1468" 
d="M1214 1411v-526h129v-62h-129v-196h129v-62h-129v-565h-73l-359 565h-475v-565h-61v565h-121v62h121v196h-121v62h121v526h73l330 -526h504v526h61zM1153 823h-465l125 -196h340v196zM621 823h-314v-196h436zM1153 565h-301l301 -479v479zM582 885l-275 434v-434h275z
" />
    <glyph glyph-name="peseta" unicode="&#x20a7;" horiz-adv-x="1470" 
d="M1171 1149h191v-62h-178q8 -36 8 -92q0 -43 -6 -84h176v-61h-188q-33 -126 -127.5 -197t-245.5 -71h-473v-582h-62v850h-143v61h143v176h-143v62h143v262h545q143 0 233 -69.5t127 -192.5zM328 850v-207h473q239 0 307 207h-780zM811 1350h-483v-201h778
q-74 201 -295 201zM1130 995q0 37 -8 92h-794v-176h794q8 31 8 84z" />
    <glyph glyph-name="rupee" unicode="&#x20a8;" horiz-adv-x="1351" 
d="M547 582h-375v61h506q164 0 247 96t83 256q0 25 -2 33h-834v62h827q-24 121 -102.5 190.5t-208.5 69.5h-516v61h516h21h538v-61h-338q125 -84 152 -260h186v-62h-180q2 -8 2 -33q0 -173 -96 -295q-93 -118 -295 -118h-55l411 -582h-73z" />
    <glyph glyph-name="uni20A9" unicode="&#x20a9;" horiz-adv-x="2031" 
d="M1894 1411l-196 -573h196v-62h-217l-71 -211h288v-61h-309l-170 -504h-76l-147 504h-352l-148 -504h-76l-172 504h-309v61h289l-72 211h-217v62h197l-195 573h64l194 -573h477l103 348h82l100 -348h477l195 573h65zM854 776h-438l71 -211h306zM1614 776h-438l61 -211h305
zM1522 504h-267l123 -422zM774 504h-266l143 -420zM1112 776h-192l-62 -211h316zM1094 838l-78 266l-78 -266h156z" />
    <glyph glyph-name="afii57636" unicode="&#x20aa;" horiz-adv-x="1525" 
d="M555 1032h-274v-1032h-62v1094h336q184 0 299 -115t115 -287v-311h-62v311q0 148 -98 242q-94 98 -254 98zM971 61h274v1033h62v-1094h-336q-184 0 -299 115t-115 286v312h61v-312q0 -141 97 -243q102 -97 256 -97z" />
    <glyph glyph-name="Euro" unicode="&#x20ac;" horiz-adv-x="1611" 
d="M1026 831v-57h-913v57h202q43 256 234 426q194 170 450 170q262 0 459 -176l-41 -45q-183 160 -418 160q-227 0 -405 -152q-173 -148 -217 -383h649zM113 580v57h913v-57h-649q41 -235 215 -387q178 -152 407 -152q235 0 416 158l41 -45q-192 -174 -457 -174
q-256 0 -450 170q-194 173 -234 430h-202z" />
    <glyph glyph-name="uni2113" unicode="&#x2113;" horiz-adv-x="763" 
d="M416 61h180v-61h-180q-248 0 -248 303v864q0 301 248 301q241 0 241 -301v-417q0 -304 -241 -304h-187v-143q0 -242 187 -242zM229 1167v-659h187q180 0 180 242v417q0 242 -180 242q-187 0 -187 -242z" />
    <glyph glyph-name="afii61352" unicode="&#x2116;" horiz-adv-x="1961" 
d="M1460 1034q-65 68 -65 164q0 97 65 162q67 67 164 67q98 0 162 -67q67 -64 67 -162q0 -97 -67 -164q-65 -65 -162 -65q-96 0 -164 65zM1186 0h-74l-833 1319v-1319h-62v1411h74l833 -1325v1325h62v-1411zM1792 1198q0 72 -48 120t-120 48q-51 3 -93.5 -28t-61.5 -76
t-11 -96.5t47 -86.5q35 -39 86.5 -47t96.5 11t76 61.5t28 93.5zM1845 883v-56h-440v56h440z" />
    <glyph glyph-name="trademark" unicode="&#x2122;" horiz-adv-x="1775" 
d="M799 1288l-84 -682h-62l97 744h-299v-744h-62v744h-258v61h664l342 -657l342 657h37l102 -805h-59l-86 682l-314 -612h-45z" />
    <glyph glyph-name="estimated" unicode="&#x212e;" horiz-adv-x="1374" 
d="M1264 571h-879v-395q135 -129 311 -129q148 0 245.5 63.5t184.5 196.5l64 -39q-63 -98 -129.5 -158.5t-157.5 -95t-207 -34.5q-243 0 -399 172q-156 176 -156 421q0 251 154 422q153 172 410 172q256 0 405 -174q154 -174 154 -422zM385 639h633v334q-139 127 -313 127
q-196 0 -320 -127v-334z" />
    <glyph glyph-name="minus" unicode="&#x2212;" horiz-adv-x="1173" 
d="M166 508v61h842v-61h-842z" />
    <glyph glyph-name="notequal" unicode="&#x2260;" horiz-adv-x="1243" 
d="M1077 315v-61h-635l-170 -221h-73l170 221h-205v61h252l286 375h-538v62h586l157 204h74l-158 -204h254v-62h-301l-287 -375h588z" />
    <glyph glyph-name="lessequal" unicode="&#x2264;" horiz-adv-x="1343" 
d="M1186 991l-969 -373l969 -368v-66l-1043 400v73l1043 400v-66zM162 0v61h1024v-61h-1024z" />
    <glyph glyph-name="greaterequal" unicode="&#x2265;" horiz-adv-x="1343" 
d="M158 184v66l968 368l-968 373v66l1042 -400v-73zM158 0v61h1024v-61h-1024z" />
    <glyph glyph-name="commaaccent" unicode="&#xf6c3;" horiz-adv-x="495" 
d="M199 -440h-56q130 133 142 299h67q-21 -194 -153 -299z" />
    <glyph glyph-name="rupiah" unicode="&#xf6dd;" horiz-adv-x="2328" 
d="M537 582h-314v-582h-61v1411h516q192 0 287 -121q94 -119 94 -295q0 -173 -96 -295q-93 -118 -295 -118h-56l412 -582h-74zM678 1350h-455v-707h445q164 0 246.5 96t82.5 256q0 151 -79 252q-77 103 -240 103zM1255 956h62v-237q64 118 181 188t257 70q207 0 352 -148
q146 -146 146 -352t-146 -352q-145 -145 -352 -145q-140 0 -257 70t-181 188v-701h-62v1419zM1755 915q-177 0 -305 -122q-127 -124 -133 -297v-19q0 -180 129 -309q130 -127 309 -127q180 0 307 127q129 129 129 309t-129 309q-126 129 -307 129z" />
    <glyph glyph-name="apple" unicode="&#xf8ff;" horiz-adv-x="1734" 
d="M164 1407h1407v-1407h-1407v1407zM872 680l-536 539v-773h166l-152 154v365l522 -519l525 519v-365l-152 -154h172v773zM395 197l-28 73h-31v-108h18v76l27 -76h20l23 76v-76h18v108h-28zM508 270q-51 0 -51 -55q0 -24 13.5 -38.5t37.5 -14.5q22 0 34.5 15.5t12.5 37.5
q0 24 -12.5 39.5t-34.5 15.5zM508 182q-13 0 -24 11t-11 22q0 12 11 23.5t24 11.5q24 0 24 -35q0 -33 -24 -33zM582 203h-27q0 -41 45 -41t45 35q0 22 -31 28q-32 6 -32 13q0 12 18 12q21 0 21 -12h18q0 32 -39 32t-39 -32q0 -17 33 -31q27 0 27 -10q0 -15 -21 -15
q-18 0 -18 21zM645 270v-20h35v-88h16v88h31v20h-82zM815 162l-43 108h-18l-45 -108h24l8 26h45l7 -26h22zM760 244h6l14 -37h-32zM872 270h-57v-108h19v45h26q19 0 19 -19v-26h26q-6 6 -6 26q0 19 -14 27q14 6 14 23q0 32 -27 32zM860 221h-26v29h26q19 0 19 -12
q0 -17 -19 -17zM954 270h-41v-108h41q52 0 52 59q0 49 -52 49zM954 182h-16v68h8q35 0 35 -35q0 -12 -8.5 -22.5t-18.5 -10.5zM1087 250v20h-75v-108h82v20h-58v25h51v18h-51v25h51zM1112 203h-18q0 -41 45 -41t45 35q0 22 -31 28q-35 6 -35 13q0 12 15 12q24 0 24 -12h21
q0 32 -39 32q-11 0 -23 -5.5t-19.5 -13.5t1 -20t35.5 -24q24 0 24 -10q0 -15 -18 -15q-27 0 -27 21zM1206 162v108h-14v-108h14zM1296 176l9 -14h12v59h-45v-18h24q-9 -21 -24 -21q-13 0 -23 11t-10 22q0 13 10 24t23 11q18 0 18 -21h27q-9 41 -45 41q-23 0 -37 -15.5
t-14 -39.5q0 -21 14.5 -37t36.5 -16q18 0 24 14zM1391 203l-45 67h-17v-108h17v67l45 -67h26v108h-26v-67z" />
    <glyph glyph-name="NULL" horiz-adv-x="0" 
 />
    <glyph glyph-name="CR" horiz-adv-x="681" 
 />
    <glyph glyph-name="published" horiz-adv-x="1685" 
d="M334 190q-207 213 -207 512t207 512q210 213 508 213t508 -213q209 -212 209 -512t-209 -512q-207 -210 -508 -210t-508 210zM379 1171q-191 -194 -191 -469t191 -469q189 -192 463 -192t463 192q192 192 192 469t-192 469q-192 195 -463 195t-463 -195zM905 598h-205
v-260h-61v737h270q108 0 164.5 -67t56.5 -172t-56 -171.5t-169 -66.5zM909 1014h-209v-355h205q81 0 122.5 49t41.5 128t-41 128.5t-119 49.5z" />
    <glyph glyph-name="frenchfranc" horiz-adv-x="1417" 
d="M279 1350v-547h567v-219q64 239 342 239q74 0 133 -18l-18 -60q-60 17 -115 17q-201 0 -277 -137q-62 -111 -65 -289v-336h-62v741h-505v-741h-62v1411h756v-61h-694z" />
    <glyph glyph-name="parenleft.case" horiz-adv-x="686" 
d="M608 1651v-62q-197 -15 -311 -252q-115 -236 -115 -639q0 -402 115 -641q114 -235 311 -250v-61q-223 18 -356 268q-131 247 -131 684t131 684q133 251 356 269z" />
    <glyph glyph-name="parenright.case" horiz-adv-x="686" 
d="M78 -254v61q197 15 311 250q115 239 115 641q0 403 -115 639q-114 237 -311 252v62q223 -18 356 -269q131 -247 131 -684t-131 -684q-133 -250 -356 -268z" />
    <glyph glyph-name="hyphen.case" horiz-adv-x="972" 
d="M158 655v62h657v-62h-657z" />
    <glyph glyph-name="at.case" horiz-adv-x="2058" 
d="M1087 -236h-69q-382 3 -643 267q-260 266 -260 649t262 651q265 271 645 271q124 3 245 -27t226 -86t194.5 -138t152.5 -179.5t97.5 -214t32.5 -238.5q0 -63 -8 -127t-25 -130t-46.5 -123t-68.5 -102t-95 -70.5t-123 -25.5q-122 0 -193.5 64t-71.5 198v289
q0 143 -100 240q-97 100 -240 100q-141 0 -241 -100q-99 -99 -99 -240q0 -138 101 -239t239 -101q120 0 199 64v-68q-89 -57 -199 -57q-163 0 -282 119t-119 282q0 168 117 285q120 117 284 117q166 0 283 -117q119 -116 119 -285v-289q0 -101 55 -150.5t148 -49.5
q65 0 118.5 33.5t87.5 86t57 122t32.5 138t9.5 136.5q3 169 -69.5 324t-194.5 264.5t-286 173t-337 59.5q-354 0 -600 -252t-246 -608q0 -354 244 -604q241 -247 598 -250h69v-62z" />
    <glyph glyph-name="bracketleft.case" horiz-adv-x="559" 
d="M469 -238h-272v1874h272v-61h-211v-1751h211v-62z" />
    <glyph glyph-name="bracketright.case" horiz-adv-x="559" 
d="M90 1636h272v-1874h-272v62h211v1751h-211v61z" />
    <glyph glyph-name="braceleft.case" horiz-adv-x="731" 
d="M647 -176v-62h-45q-158 0 -266 105q-109 103 -109 268v361q0 63 -38.5 114t-98.5 68v53q60 17 98.5 68t38.5 114v367q-3 165 109 268q111 105 266 105h45v-62h-45q-131 0 -223 -86q-93 -87 -90 -225v-367q0 -135 -113 -211q113 -82 113 -206v-361q0 -138 90 -225
q89 -86 223 -86h45z" />
    <glyph glyph-name="braceright.case" horiz-adv-x="731" 
d="M129 -238h-45v62h45q134 0 223 86q90 87 90 225v361q0 124 113 206q-113 76 -113 211v367q3 138 -90 225q-92 86 -223 86h-45v62h45q155 0 266 -105q112 -103 109 -268v-367q0 -63 38.5 -114t98.5 -68v-53q-60 -17 -98.5 -68t-38.5 -114v-361q0 -165 -109 -268
q-108 -105 -266 -105z" />
    <glyph glyph-name="exclamdown.case" horiz-adv-x="477" 
d="M268 1102v-1102h-61v1102h61zM174 1370q0 24 18.5 40.5t45.5 16.5q29 0 47 -16t18 -41q0 -26 -18 -42.5t-47 -16.5q-27 0 -45.5 16.5t-18.5 42.5z" />
    <glyph glyph-name="guillemotleft.case" horiz-adv-x="872" 
d="M489 1124l-282 -424l285 -424h-76l-283 424l283 424h73zM721 1124l-283 -424l285 -424h-76l-282 424l282 424h74z" />
    <glyph glyph-name="periodcentered.case" horiz-adv-x="444" 
d="M158 705q0 26 18 42.5t45 16.5q29 0 47.5 -16.5t18.5 -42.5q0 -25 -18.5 -41.5t-47.5 -16.5q-26 0 -44.5 16.5t-18.5 41.5z" />
    <glyph glyph-name="guillemotright.case" horiz-adv-x="872" 
d="M457 276h-76l285 424l-283 424h74l282 -424zM225 276h-75l284 424l-282 424h73l283 -424z" />
    <glyph glyph-name="questiondown.case" horiz-adv-x="964" 
d="M807 322l61 -7q-15 -156 -120 -245q-110 -90 -259 -90q-161 0 -280 104q-119 107 -119 272q0 132 77.5 230.5t201.5 136.5q119 34 168 83.5t49 154.5v145h61v-145q0 -142 -63 -199q-60 -57 -197 -98q-105 -33 -170 -115.5t-65 -192.5q0 -140 100 -227q101 -88 237 -88
q129 0 218.5 77.5t99.5 203.5zM680 1370q0 -26 -18.5 -42.5t-45.5 -16.5q-29 0 -47 16.5t-18 42.5q0 25 18 41t47 16q27 0 45.5 -16.5t18.5 -40.5z" />
    <glyph glyph-name="endash.case" horiz-adv-x="1210" 
d="M158 647v62h895v-62h-895z" />
    <glyph glyph-name="emdash.case" horiz-adv-x="1622" 
d="M158 647v62h1306v-62h-1306z" />
    <glyph glyph-name="bullet.case" horiz-adv-x="854" 
d="M426 928q100 0 170 -65t70 -161t-69.5 -160.5t-170.5 -64.5q-99 0 -168.5 64.5t-69.5 160.5t69.5 161t168.5 65z" />
    <glyph glyph-name="guilsinglleft.case" horiz-adv-x="641" 
d="M489 1124l-282 -424l285 -424h-76l-283 424l283 424h73z" />
    <glyph glyph-name="guilsinglright.case" horiz-adv-x="641" 
d="M225 276h-75l284 424l-282 424h73l283 -424z" />
    <glyph glyph-name="cent.case" horiz-adv-x="1069" 
d="M621 211v-211h-62v213q-191 18 -317 156q-125 137 -125 344q0 206 125 340q126 135 317 153v205h62v-203q165 -3 305 -102l-35 -49q-131 90 -277 90q-184 0 -311 -121q-125 -119 -125 -313q0 -196 125 -318q126 -123 311 -123q152 0 277 90l37 -49q-132 -99 -307 -102z
" />
    <glyph glyph-name="zero.tnum" horiz-adv-x="1187" 
d="M121 678q0 312 94 493q106 207 379 207q272 0 375 -207q94 -181 94 -493q0 -308 -94 -492q-102 -206 -375 -206q-274 0 -379 206q-94 184 -94 492zM1001 678q1 112 -10 203t-39 174t-73 139.5t-117.5 89.5t-167.5 33q-327 0 -393 -389q-19 -114 -19 -250q0 -278 82 -449
q48 -92 127 -139q82 -49 203 -49q119 0 201 49q117 76 160 218t46 370z" />
    <glyph glyph-name="one.tnum" horiz-adv-x="1187" 
d="M680 0h-62v1262l-243 -91v66l305 113v-1350z" />
    <glyph glyph-name="two.tnum" horiz-adv-x="1187" 
d="M979 61v-61h-780v23l575 679q133 154 133 304q0 137 -92 223q-88 88 -231 88q-119 0 -209 -60.5t-119 -162.5l-59 16q32 122 138.5 195t248.5 73q169 0 276 -104q109 -106 109 -268q0 -168 -148 -342l-510 -603h668z" />
    <glyph glyph-name="three.tnum" horiz-adv-x="1187" 
d="M903 997q12 127 -72 218t-235 104q-95 9 -190 -41q-93 -47 -136 -123l-53 31q56 95 159.5 147t223.5 45q189 -15 283 -125q97 -106 82 -260q-6 -82 -59 -153.5t-134 -106.5q116 -27 186 -141q71 -115 62 -236q-15 -168 -158 -278q-144 -108 -330 -96q-130 10 -234 78
t-151 173l56 25q42 -90 131.5 -149t202.5 -66q164 -9 284 80q119 88 137 239q0 157 -92 246q-93 90 -225 90h-137v62h137q91 0 170 67q83 68 92 170z" />
    <glyph glyph-name="four.tnum" horiz-adv-x="1187" 
d="M1077 297h-217v-297h-61v297h-715l733 1063h43v-1002h217v-61zM799 1239l-602 -881h602v881z" />
    <glyph glyph-name="five.tnum" horiz-adv-x="1187" 
d="M948 1298h-577l-103 -561q194 84 344 84q166 0 297 -110t131 -299t-125 -308q-123 -120 -340 -120q-121 0 -245 71q-119 73 -185 183l54 30q57 -97 161 -159q107 -64 215 -64q187 0 295 102q109 106 109 265q0 160 -113 254t-254 94q-96 0 -186 -23q-89 -24 -201 -78
l-24 33l118 668h629v-62z" />
    <glyph glyph-name="six.tnum" horiz-adv-x="1187" 
d="M195 416l-11 157q-2 43 2 177q3 100 19 186q15 86 48.5 171.5t80.5 139.5q52 60 133 95.5t180 35.5q253 0 354 -235l-55 -25q-88 199 -301 199q-128 6 -212.5 -62t-125.5 -178q-27 -62 -39 -149q-20 -144 -20 -303v-54q40 126 146 192.5t243 61.5q176 -9 287 -135
q111 -123 108 -307q-9 -178 -133 -293q-119 -113 -297 -110q-170 3 -280 122q-112 121 -127 314zM256 418q-3 -159 98 -266q102 -108 250 -111q151 -3 254 94q104 101 113 252q3 153 -92 262t-244 115q-155 3 -264 -94q-112 -100 -115 -252z" />
    <glyph glyph-name="seven.tnum" horiz-adv-x="1187" 
d="M303 0h-70l717 1298h-743v62h846z" />
    <glyph glyph-name="eight.tnum" horiz-adv-x="1187" 
d="M264 1067q0 133 94 221q96 90 234 90q143 0 239 -90q97 -91 97 -221q0 -90 -50 -165.5t-135 -113.5q134 -43 215.5 -149.5t81.5 -239.5q0 -176 -129 -299q-129 -120 -319 -120q-192 0 -318 120q-127 121 -127 299q0 133 80 241t211 151q-80 37 -127 110.5t-47 165.5z
M209 399q0 -151 108 -256q111 -102 275 -102q163 0 274 102q113 104 113 256q0 143 -111 248q-108 108 -266 111h-27q-154 -3 -262 -111q-104 -104 -104 -248zM580 813h22q113 3 189 76q75 72 75 178q0 105 -80 176q-77 74 -194 74q-114 0 -191 -74q-75 -69 -75 -176
q0 -105 73 -179t181 -75z" />
    <glyph glyph-name="nine.tnum" horiz-adv-x="1187" 
d="M997 942q6 -87 9 -160q3 -70 0 -176q-3 -98 -19 -184q-15 -86 -48.5 -171.5t-80.5 -139.5q-52 -60 -133 -95.5t-180 -35.5q-254 0 -355 235l56 25q88 -199 301 -199q66 -3 123 15.5t97.5 53.5t69.5 77t48 92q27 65 39 149q20 146 20 305v53q-40 -126 -146 -192.5
t-243 -61.5q-176 9 -289 134q-109 124 -106 309q9 177 131 293q122 113 299 110q167 -3 280 -125q112 -121 127 -311zM936 940q3 157 -100 266q-102 108 -248 111q-152 3 -254 -96q-104 -98 -113 -250q-3 -158 90 -264q94 -107 246 -113q155 -3 264 94q112 100 115 252z" />
    <glyph glyph-name="zero.taboldstyle" horiz-adv-x="1187" 
d="M592 -23q-207 0 -354 150q-146 152 -146 387q0 238 146 387q145 148 354 148t354 -148q148 -148 148 -387q0 -236 -148 -387q-144 -150 -354 -150zM1032 514q0 213 -129 342q-125 131 -311 131q-183 0 -311 -131q-127 -133 -127 -342t127 -342q130 -133 311 -133t311 133
q129 132 129 342z" />
    <glyph glyph-name="one.taboldstyle" horiz-adv-x="1187" 
d="M330 872l420 164v-1036h-62v948l-358 -137v61z" />
    <glyph glyph-name="two.taboldstyle" horiz-adv-x="1187" 
d="M258 0v53l494 516q108 108 108 211q0 98 -76.5 161t-193.5 63q-101 0 -176.5 -45t-94.5 -119l-59 14q23 97 114 154t216 57q143 0 237.5 -80.5t94.5 -204.5q0 -135 -125 -254l-445 -465h578v-61h-672z" />
    <glyph glyph-name="six.taboldstyle" horiz-adv-x="1187" 
d="M195 416l-11 157q-2 43 2 177q3 100 19 186q15 86 48.5 171.5t80.5 139.5q52 60 133 95.5t180 35.5q253 0 354 -235l-55 -25q-88 199 -301 199q-128 6 -212.5 -62t-125.5 -178q-27 -62 -39 -149q-20 -144 -20 -303v-54q40 126 146 192.5t243 61.5q176 -9 287 -135
q111 -123 108 -307q-9 -178 -133 -293q-119 -113 -297 -110q-170 3 -280 122q-112 121 -127 314zM256 418q-3 -159 98 -266q102 -108 250 -111q151 -3 254 94q104 101 113 252q3 153 -92 262t-244 115q-155 3 -264 -94q-112 -100 -115 -252z" />
    <glyph glyph-name="eight.taboldstyle" horiz-adv-x="1187" 
d="M264 1067q0 133 94 221q96 90 234 90q143 0 239 -90q97 -91 97 -221q0 -90 -50 -165.5t-135 -113.5q134 -43 215.5 -149.5t81.5 -239.5q0 -176 -129 -299q-129 -120 -319 -120q-192 0 -318 120q-127 121 -127 299q0 133 80 241t211 151q-80 37 -127 110.5t-47 165.5z
M209 399q0 -151 108 -256q111 -102 275 -102q163 0 274 102q113 104 113 256q0 143 -111 248q-108 108 -266 111h-27q-154 -3 -262 -111q-104 -104 -104 -248zM580 813h22q113 3 189 76q75 72 75 178q0 105 -80 176q-77 74 -194 74q-114 0 -191 -74q-75 -69 -75 -176
q0 -105 73 -179t181 -75z" />
    <glyph glyph-name="three.taboldstyle" horiz-adv-x="1187" 
d="M905 596q12 127 -72 218t-235 104q-95 9 -190 -41q-93 -47 -136 -123l-53 30q56 95 159.5 147.5t223.5 45.5q189 -15 283 -125q97 -106 82 -260q-6 -82 -59 -153.5t-134 -106.5q116 -28 187 -142q70 -113 61 -235q-15 -170 -158 -277q-143 -110 -329 -98
q-130 10 -234 78.5t-151 173.5l55 25q42 -90 131.5 -149t202.5 -66q161 -9 284 82q120 89 138 237q0 156 -93 246t-225 90h-137v61h137q90 0 170 68q83 68 92 170z" />
    <glyph glyph-name="four.taboldstyle" horiz-adv-x="1187" 
d="M1081 -106h-217v-297h-61v297h-715l733 1062h43v-1001h217v-61zM803 836l-602 -881h602v881z" />
    <glyph glyph-name="five.taboldstyle" horiz-adv-x="1187" 
d="M950 893h-577l-103 -561q194 84 344 84q165 0 297 -111q131 -110 131 -299t-124 -307q-124 -121 -340 -121q-122 0 -246 74q-119 70 -185 180l54 31q56 -95 161 -158q109 -65 216 -65q187 0 294 104q109 103 109 262q0 160 -113 254t-254 94q-100 0 -186 -22
q-89 -24 -201 -78l-24 33l119 667h628v-61z" />
    <glyph glyph-name="seven.taboldstyle" horiz-adv-x="1187" 
d="M305 -403h-69l716 1298h-743v61h846z" />
    <glyph glyph-name="nine.taboldstyle" horiz-adv-x="1187" 
d="M1008 541q3 -47 8 -160q3 -70 0 -176q-3 -99 -19 -185q-15 -86 -48.5 -171.5t-80.5 -139.5q-52 -60 -133 -95.5t-180 -35.5q-252 0 -354 236l55 24q88 -198 301 -198q88 -4 158 30t112 86.5t68 122.5q27 61 39 148q20 146 20 305v53q-40 -126 -146 -192.5t-243 -61.5
q-177 9 -289 133q-109 124 -106 309q9 177 131 293q123 114 299 111q168 -3 281 -125q112 -121 127 -311zM946 539q3 157 -100 266q-101 107 -248 110q-152 3 -254 -96q-104 -98 -113 -250q-3 -157 91 -264q93 -106 245 -112q155 -3 264 94q112 100 115 252z" />
    <glyph glyph-name="zero.oldstyle" horiz-adv-x="1245" 
d="M621 -23q-208 0 -355 150q-145 151 -145 387q0 239 145 387t355 148q209 0 354 -148q147 -147 147 -387q0 -237 -147 -387q-144 -150 -354 -150zM1061 514q0 213 -129 342q-125 131 -311 131q-184 0 -312 -131q-127 -133 -127 -342t127 -342q130 -133 312 -133
q181 0 311 133q129 132 129 342z" />
    <glyph glyph-name="one.oldstyle" horiz-adv-x="704" 
d="M88 872l420 164v-1036h-62v948l-358 -137v61z" />
    <glyph glyph-name="two.oldstyle" horiz-adv-x="956" 
d="M143 0v53l494 516q108 108 108 211q0 98 -76.5 161t-193.5 63q-101 0 -176 -45t-94 -119l-60 14q23 97 114 154t216 57q143 0 237.5 -80.5t94.5 -204.5q0 -135 -125 -254l-444 -465h577v-61h-672z" />
    <glyph glyph-name="three.oldstyle" horiz-adv-x="1075" 
d="M850 596q12 127 -72 218t-235 104q-95 9 -191 -41q-92 -47 -135 -123l-53 30q56 95 159.5 147.5t223.5 45.5q188 -15 282 -125q97 -106 82 -260q-6 -82 -58.5 -153.5t-133.5 -106.5q115 -27 186 -142t62 -235q-15 -170 -158 -277q-143 -110 -330 -98q-130 10 -234 78.5
t-151 173.5l56 25q42 -90 131 -149t202 -66q162 -9 285 82q119 88 137 237q0 157 -92 246q-93 90 -225 90h-137v61h137q90 0 170 68q83 68 92 170z" />
    <glyph glyph-name="four.oldstyle" horiz-adv-x="1128" 
d="M1053 -106h-217v-297h-62v297h-715l734 1062h43v-1001h217v-61zM774 836l-602 -881h602v881z" />
    <glyph glyph-name="five.oldstyle" horiz-adv-x="1089" 
d="M901 893h-577l-103 -561q194 84 344 84q165 0 297 -111q131 -110 131 -299q0 -188 -125 -307q-124 -121 -340 -121q-121 0 -245 74q-119 70 -185 180l54 31q56 -95 161 -158q109 -65 215 -65q188 0 295 104q109 103 109 262q0 160 -113 254t-254 94q-100 0 -186 -22
q-89 -24 -201 -78l-24 33l118 667h629v-61z" />
    <glyph glyph-name="six.oldstyle" horiz-adv-x="1128" 
d="M166 416l-10 157q-2 43 2 177q3 106 18 186q15 86 48.5 171.5t80.5 139.5q52 60 133 95.5t180 35.5q254 0 355 -235l-55 -25q-88 199 -302 199q-128 6 -212 -62t-125 -178q-27 -62 -39 -149q-21 -151 -21 -303v-54q40 126 146 192.5t243 61.5q176 -9 287 -135
q112 -124 109 -307q-9 -177 -134 -293q-119 -113 -297 -110q-170 3 -280 122q-112 121 -127 314zM227 418q-3 -158 99 -266t249 -111q151 -3 254 94q104 101 113 252q3 153 -92 262t-244 115q-155 3 -264 -94q-112 -100 -115 -252z" />
    <glyph glyph-name="seven.oldstyle" horiz-adv-x="958" 
d="M190 -403h-69l717 1298h-744v61h846z" />
    <glyph glyph-name="eight.oldstyle" horiz-adv-x="1142" 
d="M242 1067q0 133 94 221q96 90 233 90q144 0 240 -90t96 -221q0 -91 -49.5 -166t-134.5 -113q134 -43 215.5 -149.5t81.5 -239.5q0 -176 -129 -299q-129 -120 -320 -120t-317 120q-127 121 -127 299q0 133 80 241t211 151q-80 37 -127 110.5t-47 165.5zM186 399
q0 -150 109 -256q111 -102 274 -102q164 0 275 102q112 103 112 256q0 144 -110 248q-108 108 -266 111h-27q-154 -3 -262 -111q-105 -105 -105 -248zM557 813h23q112 3 188 76t76 178t-80 176q-77 74 -195 74q-113 0 -190 -74q-76 -70 -76 -176q0 -105 73 -179t181 -75z
" />
    <glyph glyph-name="nine.oldstyle" horiz-adv-x="1081" 
d="M954 541q6 -87 9 -160q3 -70 0 -176q-3 -99 -19 -185q-15 -86 -48.5 -171.5t-80.5 -139.5q-52 -60 -133 -95.5t-180 -35.5q-253 0 -355 236l56 24q88 -198 301 -198q88 -4 158 30t112 86.5t68 122.5q27 61 39 148q20 146 20 305v53q-40 -126 -146 -192.5t-243 -61.5
q-177 9 -289 133q-109 124 -106 309q9 177 131 293q123 114 299 111q167 -3 280 -125q112 -121 127 -311zM893 539q3 157 -100 266q-101 107 -248 110q-152 3 -254 -96q-104 -98 -113 -250q-3 -158 90 -264t246 -112q155 -3 264 94q112 100 115 252z" />
    <glyph glyph-name="Lslash.sc" horiz-adv-x="870" 
d="M801 0h-596v604l-142 -88v57l142 89v538h61v-500l193 123v-59l-193 -121v-582h535v-61z" />
    <glyph glyph-name="Zcaron.sc" horiz-adv-x="960" 
d="M868 1153l-694 -1092h694v-61h-778v41l698 1098h-694v61h774v-47zM653 1550h62l-189 -223h-92l-188 223h61l172 -184z" />
    <glyph glyph-name="exclam.sc" horiz-adv-x="485" 
d="M272 279h-57l-2 921h61zM242 102q38 0 53.5 -27.5t0 -55t-53.5 -27.5q-36 0 -50.5 27.5t0 55t50.5 27.5z" />
    <glyph glyph-name="ampersand.sc" horiz-adv-x="1193" 
d="M510 41q135 0 225 84q91 88 94 213v324h-317q-136 0 -229 -93q-93 -90 -93 -217q0 -130 91 -221q90 -90 229 -90zM293 936q0 -94 62.5 -155.5t160.5 -61.5h313v158h62v-160h166v-55h-166v-310q0 -94 12 -153q13 -64 61 -108t126 -50v-61q-93 0 -158.5 54t-83.5 152
q-34 -101 -135 -153q-100 -53 -205 -53q-166 0 -272 106q-107 107 -107 266q0 108 66 206t170 136q-61 38 -97.5 105t-36.5 137q0 113 84 194q83 80 207 80q160 0 248 -116q-1 0 -25 -16.5t-26 -18.5q-66 90 -197 90q-98 0 -163.5 -61t-65.5 -152z" />
    <glyph glyph-name="question.sc" horiz-adv-x="868" 
d="M166 913l-62 7q9 131 103 213q91 79 223 79q136 0 240 -90q100 -87 100 -233q0 -114 -66 -198t-172 -116q-98 -28 -139 -68.5t-41 -127.5v-100h-61v100q0 117 53 170q54 51 170 86q87 27 141 95t54 159q0 116 -84 188q-83 74 -195 74q-108 0 -182.5 -65.5t-81.5 -172.5z
M322 102q38 0 53.5 -27.5t0 -55t-53.5 -27.5q-36 0 -50.5 27.5t0 55t50.5 27.5z" />
    <glyph glyph-name="A.sc" horiz-adv-x="1124" 
d="M285 387h555l-279 727zM987 0l-125 332h-600l-127 -332h-65l460 1200h64l459 -1200h-66z" />
    <glyph glyph-name="B.sc" horiz-adv-x="1120" 
d="M932 918q0 -96 -40.5 -170.5t-113.5 -106.5q95 -30 158 -127q63 -92 63 -190q0 -134 -90 -230q-88 -94 -235 -94h-469v1200h418q143 0 226 -74.5t83 -207.5zM651 608h-385v-547h406q119 0 192 76q74 77 74 187q0 108 -82 196q-79 88 -205 88zM621 1139h-355v-473h410
q90 0 143 77q51 74 51 175q0 105 -66.5 163t-182.5 58z" />
    <glyph glyph-name="C.sc" horiz-adv-x="1189" 
d="M1063 178l41 -45q-170 -153 -393 -153q-252 0 -420 180q-170 182 -170 436q0 255 170 434q168 180 420 180q229 0 395 -153l-12 -13q-30 -30 -31 -30q-147 135 -352 135q-225 0 -377 -162q-152 -166 -152 -391t152 -391q152 -162 377 -162q202 0 352 135z" />
    <glyph glyph-name="D.sc" horiz-adv-x="1302" 
d="M649 1139h-383v-1078h383q219 0 342 150t123 387q0 240 -125 389q-125 152 -340 152zM649 0h-444v1200h444q247 0 385 -170q142 -171 142 -432q0 -259 -142 -430q-137 -168 -385 -168z" />
    <glyph glyph-name="E.sc" horiz-adv-x="997" 
d="M881 0h-676v1200h655v-61h-594v-521h520v-61h-520v-496h615v-61z" />
    <glyph glyph-name="F.sc" horiz-adv-x="933" 
d="M266 0h-61v1200h647v-61h-586v-521h465v-61h-465v-557z" />
    <glyph glyph-name="G.sc" horiz-adv-x="1363" 
d="M1210 496h-374v61h442q-7 -281 -152.5 -429t-402.5 -148q-253 0 -428 178q-174 180 -174 438q0 257 174 434q174 180 428 180q200 0 358 -116l-39 -50q-141 105 -319 105q-230 0 -385 -162q-156 -163 -156 -391q0 -230 156 -393q155 -162 385 -162q212 0 339.5 118
t147.5 337z" />
    <glyph glyph-name="H.sc" horiz-adv-x="1282" 
d="M1016 625v575h61v-1200h-61v567h-750v-567h-61v1200h61v-575h750z" />
    <glyph glyph-name="I.sc" horiz-adv-x="471" 
d="M205 0v1200h61v-1200h-61z" />
    <glyph glyph-name="J.sc" horiz-adv-x="471" 
d="M-160 -406l8 62q38 -6 74 -6q142 0 212.5 82t70.5 227v1241h61v-1241q0 -173 -85.5 -272t-258.5 -99q-42 0 -82 6z" />
    <glyph glyph-name="K.sc" horiz-adv-x="954" 
d="M844 0l-578 543v-543h-61v1200h61v-614l506 614h78l-522 -633l602 -567h-86z" />
    <glyph glyph-name="L.sc" horiz-adv-x="870" 
d="M801 0h-596v1200h61v-1139h535v-61z" />
    <glyph glyph-name="M.sc" horiz-adv-x="1699" 
d="M285 1200h65l502 -1026l500 1026h63l152 -1200h-62l-137 1100l-483 -983h-68l-485 985l-139 -1102h-60z" />
    <glyph glyph-name="N.sc" horiz-adv-x="1236" 
d="M971 92v1108h61v-1200h-71l-695 1104v-1104h-61v1200h71z" />
    <glyph glyph-name="O.sc" horiz-adv-x="1447" 
d="M338 987q-156 -163 -156 -391t156 -391q155 -162 385 -162t385 162q158 166 158 391t-158 391q-155 162 -385 162t-385 -162zM723 1210q254 0 428 -180q176 -179 176 -434q0 -254 -176 -436q-174 -180 -428 -180t-428 180t-174 436q0 257 174 434q174 180 428 180z" />
    <glyph glyph-name="P.sc" horiz-adv-x="1085" 
d="M670 1139h-404v-586h393q136 0 205.5 80t69.5 211t-68 213t-196 82zM662 492h-396v-492h-61v1200h465q164 0 243 -104q82 -101 82 -252q0 -157 -85 -254.5t-248 -97.5z" />
    <glyph glyph-name="Q.sc" horiz-adv-x="1447" 
d="M723 1210q254 0 428 -180q176 -179 176 -434q0 -173 -84.5 -318t-230.5 -225l143 -223l-51 -33l-148 230q-118 -47 -233 -47q-254 0 -428 180t-174 436q0 257 174 434q174 180 428 180zM922 78l-146 231l53 33l150 -238q132 73 209.5 204t77.5 288q0 225 -158 391
q-155 162 -385 162t-385 -162q-156 -163 -156 -391t156 -391q155 -162 385 -162q103 0 199 35z" />
    <glyph glyph-name="R.sc" horiz-adv-x="1089" 
d="M645 1139h-379v-586h369q135 0 203.5 80t68.5 211t-67 213t-195 82zM872 0l-348 492h-258v-492h-61v1200h440q165 0 244 -102q80 -103 80 -254q0 -140 -80 -246q-77 -102 -227 -102h-64l348 -496h-74z" />
    <glyph glyph-name="S.sc" horiz-adv-x="1017" 
d="M125 295h61q15 -101 101 -178q89 -74 215 -74q137 0 227.5 66t110.5 163q34 230 -265 301l-167 39q-275 62 -275 287q0 135 111 223q110 88 256 88q151 0 251.5 -82t110.5 -217h-61q-10 108 -93.5 173t-207.5 65q-120 0 -213 -72q-92 -71 -92 -178q0 -175 225 -227
l170 -39q355 -83 309 -373q-21 -114 -127 -197q-103 -83 -270 -83q-156 0 -260 94q-102 94 -117 221z" />
    <glyph glyph-name="T.sc" horiz-adv-x="1003" 
d="M471 1139h-403v61h868v-61h-404v-1139h-61v1139z" />
    <glyph glyph-name="U.sc" horiz-adv-x="1212" 
d="M961 1198h61v-805q0 -184 -121 -299q-120 -114 -295 -114t-295 114q-121 115 -121 299v805h62v-805q0 -155 102 -254q101 -98 252 -98t252 98q103 100 103 254v805z" />
    <glyph glyph-name="V.sc" horiz-adv-x="978" 
d="M891 1200l-361 -1200h-81l-361 1200h66l335 -1124l336 1124h66z" />
    <glyph glyph-name="W.sc" horiz-adv-x="1642" 
d="M858 1014l268 -928l377 1114h66l-408 -1200h-71l-269 920l-270 -920h-70l-407 1200h63l377 -1112l270 926h74z" />
    <glyph glyph-name="X.sc" horiz-adv-x="1032" 
d="M514 698l334 502h76l-373 -551l436 -649h-76l-397 598l-395 -598h-74l432 649l-368 551h73z" />
    <glyph glyph-name="Y.sc" horiz-adv-x="1077" 
d="M946 1200h74l-451 -629v-571h-61v573l-449 627h74l406 -567z" />
    <glyph glyph-name="Z.sc" horiz-adv-x="960" 
d="M868 1153l-694 -1092h694v-61h-778v41l698 1098h-694v61h774v-47z" />
    <glyph glyph-name="Scaron.sc" horiz-adv-x="1017" 
d="M688 1550h62l-189 -223h-92l-188 223h61l172 -184zM125 295h61q15 -101 101 -178q89 -74 215 -74q137 0 227.5 66t110.5 163q34 230 -265 301l-167 39q-275 62 -275 287q0 135 111 223q110 88 256 88q151 0 251.5 -82t110.5 -217h-61q-10 108 -93.5 173t-207.5 65
q-120 0 -213 -72q-92 -71 -92 -178q0 -175 225 -227l170 -39q355 -83 309 -373q-21 -114 -127 -197q-103 -83 -270 -83q-156 0 -260 94q-102 94 -117 221z" />
    <glyph glyph-name="OE.sc" horiz-adv-x="2060" 
d="M723 43q230 0 385 162q158 166 158 393q0 228 -158 389q-155 162 -385 162t-385 -162q-156 -163 -156 -391t156 -391q155 -162 385 -162zM1268 860v340h655v-61h-594v-521h520v-61h-520v-496h615v-61h-676v330q-74 -160 -220.5 -255t-324.5 -95q-254 0 -428 180t-174 436
q0 257 174 434q174 180 428 180q178 0 324.5 -95t220.5 -255z" />
    <glyph glyph-name="Ydieresis.sc" horiz-adv-x="1077" 
d="M344 1466q0 34 30 48t59.5 0t29.5 -48q0 -33 -29.5 -46.5t-59.5 0t-30 46.5zM616 1466q0 34 30 48t59.5 0t29.5 -48q0 -33 -29.5 -46.5t-59.5 0t-30 46.5zM946 1200h74l-451 -629v-571h-61v573l-449 627h74l406 -567z" />
    <glyph glyph-name="exclamdown.sc" horiz-adv-x="481" 
d="M272 -8h-61l2 921h57zM240 1200q38 0 53.5 -27.5t0 -55t-53.5 -27.5q-36 0 -50.5 27.5t0 55t50.5 27.5z" />
    <glyph glyph-name="questiondown.sc" horiz-adv-x="866" 
d="M702 281l62 -5q-7 -131 -99 -211.5t-225 -80.5q-140 0 -241 88t-101 233q0 113 66.5 199t171.5 117q98 28 139 68.5t41 127.5v115h62v-115q0 -117 -56 -170q-50 -50 -168 -86q-86 -27 -140 -96t-54 -160q0 -113 84 -188q84 -72 196 -72q107 0 181 65.5t81 170.5z
M547 1106q-28 0 -44.5 17.5t-16.5 38t16.5 38t44.5 17.5q36 0 50.5 -27.5t0 -55.5t-50.5 -28z" />
    <glyph glyph-name="Agrave.sc" horiz-adv-x="1124" 
d="M584 1321h-58l-151 223h74zM561 1114l-276 -727h555zM262 332l-127 -332h-65l460 1200h64l459 -1200h-66l-125 332h-600z" />
    <glyph glyph-name="Aacute.sc" horiz-adv-x="1124" 
d="M549 1321l135 223h74l-152 -223h-57zM285 387h555l-279 727zM987 0l-125 332h-600l-127 -332h-65l460 1200h64l459 -1200h-66z" />
    <glyph glyph-name="Acircumflex.sc" horiz-adv-x="1124" 
d="M387 1321h-61l188 223h94l187 -223h-62l-172 184zM285 387h555l-279 727zM987 0l-125 332h-600l-127 -332h-65l460 1200h64l459 -1200h-66z" />
    <glyph glyph-name="Atilde.sc" horiz-adv-x="1124" 
d="M475 1444q-25 0 -43.5 -21t-19.5 -57h-58q1 62 36.5 96.5t82.5 36.5q25 0 31 -2q30 -6 74 -41q42 -33 69 -33q25 0 44 20t20 56h57q-1 -62 -36.5 -96.5t-80.5 -34.5q-37 0 -92 37q-51 39 -84 39zM285 387h555l-279 727zM987 0l-125 332h-600l-127 -332h-65l460 1200h64
l459 -1200h-66z" />
    <glyph glyph-name="Adieresis.sc" horiz-adv-x="1124" 
d="M362 1466q0 24 17.5 40t42.5 16q26 0 43.5 -15.5t17.5 -40.5q0 -23 -17.5 -38t-43.5 -15q-25 0 -42.5 15t-17.5 38zM635 1466q0 24 17 40t42 16q27 0 44.5 -15.5t17.5 -40.5q0 -23 -18 -38t-44 -15q-25 0 -42 15t-17 38zM561 1114l-276 -727h555zM262 332l-127 -332h-65
l460 1200h64l459 -1200h-66l-125 332h-600z" />
    <glyph glyph-name="Aring.sc" horiz-adv-x="1124" 
d="M557 1647q63 0 106.5 -44t43.5 -106t-43.5 -104.5t-106.5 -42.5q-60 0 -101.5 42.5t-41.5 104.5t41.5 106t101.5 44zM557 1403q41 0 68.5 26.5t27.5 67.5t-27.5 68.5t-68.5 27.5q-55 4 -78 -46t0 -99.5t78 -44.5zM561 1114l-276 -727h555zM262 332l-127 -332h-65
l460 1200h64l459 -1200h-66l-125 332h-600z" />
    <glyph glyph-name="AE.sc" horiz-adv-x="1732" 
d="M131 0h-74l787 1200h751v-61h-594v-521h521v-61h-521v-496h615v-61h-676v336h-590zM389 397h551v742h-63z" />
    <glyph glyph-name="Ccedilla.sc" horiz-adv-x="1191" 
d="M727 -18h-27l43 -105q26 -63 2.5 -123t-86.5 -86q-76 -30 -147 17q-70 46 -70 139l56 -2q0 -57 44 -89.5t95 -13.5q66 29 63 97q0 23 -8 39l-55 131q-222 27 -369 200q-145 177 -145 410q0 255 170 434q168 180 420 180q229 0 395 -153l-43 -43q-147 135 -352 135
q-225 0 -377 -162q-152 -166 -152 -391t152 -391q152 -162 377 -162q202 0 352 135l41 -45q-157 -145 -379 -151z" />
    <glyph glyph-name="Egrave.sc" horiz-adv-x="997" 
d="M571 1321h-57l-154 223h76zM205 1200h655v-61h-594v-521h520v-61h-520v-496h615v-61h-676v1200z" />
    <glyph glyph-name="Eacute.sc" horiz-adv-x="997" 
d="M444 1321l136 223h73l-151 -223h-58zM881 0h-676v1200h655v-61h-594v-521h520v-61h-520v-496h615v-61z" />
    <glyph glyph-name="Ecircumflex.sc" horiz-adv-x="997" 
d="M336 1321h-62l187 223h94l188 -223h-63l-172 184zM881 0h-676v1200h655v-61h-594v-521h520v-61h-520v-496h615v-61z" />
    <glyph glyph-name="Edieresis.sc" horiz-adv-x="997" 
d="M326 1466q0 24 17 40t42 16q26 0 43.5 -15.5t17.5 -40.5q0 -23 -17.5 -38t-43.5 -15q-25 0 -42 15t-17 38zM598 1466q0 24 17 40t42 16q27 0 44.5 -15.5t17.5 -40.5q0 -23 -18 -38t-44 -15q-25 0 -42 15t-17 38zM205 1200h655v-61h-594v-521h520v-61h-520v-496h615v-61
h-676v1200z" />
    <glyph glyph-name="Igrave.sc" horiz-adv-x="471" 
d="M262 1321h-57l-152 223h74zM266 1200v-1200h-61v1200h61z" />
    <glyph glyph-name="Iacute.sc" horiz-adv-x="471" 
d="M203 1321l135 223h74l-152 -223h-57zM205 0v1200h61v-1200h-61z" />
    <glyph glyph-name="Icircumflex.sc" horiz-adv-x="471" 
d="M63 1321h-61l188 223h93l188 -223h-61l-174 184zM205 0v1200h61v-1200h-61z" />
    <glyph glyph-name="Idieresis.sc" horiz-adv-x="471" 
d="M39 1466q0 34 29.5 48t59.5 0t30 -48q0 -33 -30 -46.5t-59.5 0t-29.5 46.5zM311 1466q0 34 29.5 48t59.5 0t30 -48q0 -33 -30 -46.5t-59.5 0t-29.5 46.5zM266 1200v-1200h-61v1200h61z" />
    <glyph glyph-name="Eth.sc" horiz-adv-x="1304" 
d="M651 1139h-383v-518h332v-58h-332v-502h383q219 0 342 150t123 387q0 240 -125 389q-125 152 -340 152zM651 0h-444v563h-170v58h170v579h444q247 0 385 -170q142 -171 142 -432q0 -259 -142 -430q-137 -168 -385 -168z" />
    <glyph glyph-name="Ntilde.sc" horiz-adv-x="1236" 
d="M530 1444q-25 0 -43.5 -21t-19.5 -57h-57q1 62 36 96.5t82 36.5q25 0 31 -2q30 -6 74 -41q42 -33 69 -33q25 0 44 20t20 56h57q-1 -62 -36 -96.5t-80 -34.5q-38 0 -93 37q-51 39 -84 39zM971 92v1108h61v-1200h-71l-695 1104v-1104h-61v1200h71z" />
    <glyph glyph-name="Ograve.sc" horiz-adv-x="1447" 
d="M754 1323h-58l-153 223h75zM338 205q155 -162 385 -162t385 162q158 166 158 391t-158 391q-155 162 -385 162t-385 -162q-156 -163 -156 -391t156 -391zM723 -20q-254 0 -428 180t-174 436q0 257 174 434q174 180 428 180t428 -180q176 -179 176 -434q0 -254 -176 -436
q-174 -180 -428 -180z" />
    <glyph glyph-name="Oacute.sc" horiz-adv-x="1447" 
d="M678 1323l135 223h76l-154 -223h-57zM338 987q-156 -163 -156 -391t156 -391q155 -162 385 -162t385 162q158 166 158 391t-158 391q-155 162 -385 162t-385 -162zM723 1210q254 0 428 -180q176 -179 176 -434q0 -254 -176 -436q-174 -180 -428 -180t-428 180t-174 436
q0 257 174 434q174 180 428 180z" />
    <glyph glyph-name="Ocircumflex.sc" horiz-adv-x="1447" 
d="M557 1323h-61l186 223h94l189 -223h-64l-172 184zM338 987q-156 -163 -156 -391t156 -391q155 -162 385 -162t385 162q158 166 158 391t-158 391q-155 162 -385 162t-385 -162zM723 1210q254 0 428 -180q176 -179 176 -434q0 -254 -176 -436q-174 -180 -428 -180
t-428 180t-174 436q0 257 174 434q174 180 428 180z" />
    <glyph glyph-name="Otilde.sc" horiz-adv-x="1447" 
d="M639 1444q-25 0 -44 -21t-20 -57h-57q1 62 36.5 96.5t82.5 36.5q25 0 31 -2q28 -6 73 -41q42 -33 70 -33q25 0 43.5 20t19.5 56h58q-1 -62 -36.5 -96.5t-80.5 -34.5q-37 0 -92 37q-51 39 -84 39zM338 987q-156 -163 -156 -391t156 -391q155 -162 385 -162t385 162
q158 166 158 391t-158 391q-155 162 -385 162t-385 -162zM723 1210q254 0 428 -180q176 -179 176 -434q0 -254 -176 -436q-174 -180 -428 -180t-428 180t-174 436q0 257 174 434q174 180 428 180z" />
    <glyph glyph-name="Odieresis.sc" horiz-adv-x="1447" 
d="M535 1468q0 34 30 48t60 0t30 -48q0 -33 -30 -46.5t-60 0t-30 46.5zM807 1468q0 24 17 40t42 16q27 0 44.5 -15.5t17.5 -40.5q0 -23 -18 -38t-44 -15q-25 0 -42 15t-17 38zM338 205q155 -162 385 -162t385 162q158 166 158 391t-158 391q-155 162 -385 162t-385 -162
q-156 -163 -156 -391t156 -391zM723 -20q-254 0 -428 180t-174 436q0 257 174 434q174 180 428 180t428 -180q176 -179 176 -434q0 -254 -176 -436q-174 -180 -428 -180z" />
    <glyph glyph-name="Oslash.sc" horiz-adv-x="1445" 
d="M723 43q230 0 385 162q158 166 158 391q0 213 -138 369l-768 -783q151 -139 363 -139zM182 596q0 -218 137 -373l771 783q-155 143 -367 143q-230 0 -385 -162q-156 -163 -156 -391zM317 139l-157 -159l-41 40l157 160q-155 171 -155 416q0 257 174 434q174 180 428 180
q235 0 410 -159l161 161l39 -38l-162 -164q156 -179 156 -414q0 -254 -176 -436q-174 -180 -428 -180q-237 0 -406 159z" />
    <glyph glyph-name="Ugrave.sc" horiz-adv-x="1212" 
d="M643 1321h-57l-152 223h74zM961 1198h61v-805q0 -184 -121 -299q-120 -114 -295 -114t-295 114q-121 115 -121 299v805h62v-805q0 -155 102 -254q101 -98 252 -98t252 98q103 100 103 254v805z" />
    <glyph glyph-name="Uacute.sc" horiz-adv-x="1212" 
d="M698 1544h74l-151 -223h-58zM961 1198h61v-805q0 -184 -121 -299q-120 -114 -295 -114t-295 114q-121 115 -121 299v805h62v-805q0 -155 102 -254q101 -98 252 -98t252 98q103 100 103 254v805z" />
    <glyph glyph-name="Ucircumflex.sc" horiz-adv-x="1212" 
d="M961 1198h61v-805q0 -184 -121 -299q-120 -114 -295 -114t-295 114q-121 115 -121 299v805h62v-805q0 -155 102 -254q101 -98 252 -98t252 98q103 100 103 254v805zM442 1323h-61l186 223h95l188 -223h-64l-172 184z" />
    <glyph glyph-name="Udieresis.sc" horiz-adv-x="1212" 
d="M410 1466q0 24 17 40t42 16q26 0 43.5 -15.5t17.5 -40.5q0 -23 -17.5 -38t-43.5 -15q-25 0 -42 15t-17 38zM682 1466q0 24 17 40t42 16q27 0 44.5 -15.5t17.5 -40.5q0 -23 -18 -38t-44 -15q-25 0 -42 15t-17 38zM961 1198h61v-805q0 -184 -121 -299q-120 -114 -295 -114
t-295 114q-121 115 -121 299v805h62v-805q0 -155 102 -254q101 -98 252 -98t252 98q103 100 103 254v805z" />
    <glyph glyph-name="Yacute.sc" horiz-adv-x="1077" 
d="M946 1200h74l-451 -629v-571h-61v573l-449 627h74l406 -567zM639 1544h74l-152 -223h-57z" />
    <glyph glyph-name="Thorn.sc" horiz-adv-x="1028" 
d="M592 905h-326v-581h326q122 0 201 82q81 81 81 212q0 128 -79.5 207.5t-202.5 79.5zM592 262h-326v-262h-61v1200h61v-233h326q144 0 246 -97q98 -94 98 -252q0 -157 -98 -258q-98 -98 -246 -98z" />
    <glyph glyph-name="Amacron.sc" horiz-adv-x="1124" 
d="M285 387h555l-279 727zM987 0l-125 332h-600l-127 -332h-65l460 1200h64l459 -1200h-66zM768 1403h-399v55h399v-55z" />
    <glyph glyph-name="Abreve.sc" horiz-adv-x="1124" 
d="M700 1528h54q0 -82 -53.5 -131t-141.5 -49q-93 0 -142.5 50.5t-49.5 129.5h53q0 -56 36.5 -90.5t102.5 -34.5q63 0 102 34.5t39 90.5zM561 1114l-276 -727h555zM262 332l-127 -332h-65l460 1200h64l459 -1200h-66l-125 332h-600z" />
    <glyph glyph-name="Cacute.sc" horiz-adv-x="1189" 
d="M635 1327l135 223h74l-152 -223h-57zM1063 178l41 -45q-170 -153 -393 -153q-252 0 -420 180q-170 182 -170 436q0 255 170 434q168 180 420 180q229 0 395 -153l-12 -13q-30 -30 -31 -30q-147 135 -352 135q-225 0 -377 -162q-152 -166 -152 -391t152 -391
q152 -162 377 -162q202 0 352 135z" />
    <glyph glyph-name="Ccircumflex.sc" horiz-adv-x="1189" 
d="M516 1327h-61l186 223h94l187 -223h-62l-172 184zM1063 178l41 -45q-170 -153 -393 -153q-252 0 -420 180q-170 182 -170 436q0 255 170 434q168 180 420 180q229 0 395 -153l-12 -13q-30 -30 -31 -30q-147 135 -352 135q-225 0 -377 -162q-152 -166 -152 -391t152 -391
q152 -162 377 -162q202 0 352 135z" />
    <glyph glyph-name="Cdotaccent.sc" horiz-adv-x="1189" 
d="M627 1473q0 24 17 39.5t42 15.5q27 0 44.5 -15.5t17.5 -39.5q0 -23 -18 -38.5t-44 -15.5q-25 0 -42 15.5t-17 38.5zM1063 178l41 -45q-170 -153 -393 -153q-252 0 -420 180q-170 182 -170 436q0 255 170 434q168 180 420 180q229 0 395 -153l-43 -43q-147 135 -352 135
q-225 0 -377 -162q-152 -166 -152 -391t152 -391q152 -162 377 -162q202 0 352 135z" />
    <glyph glyph-name="Ccaron.sc" horiz-adv-x="1189" 
d="M858 1550h62l-189 -223h-94l-186 223h61l172 -184zM1063 178l41 -45q-170 -153 -393 -153q-252 0 -420 180q-170 182 -170 436q0 255 170 434q168 180 420 180q229 0 395 -153l-12 -13q-30 -30 -31 -30q-147 135 -352 135q-225 0 -377 -162q-152 -166 -152 -391t152 -391
q152 -162 377 -162q202 0 352 135z" />
    <glyph glyph-name="Dcaron.sc" horiz-adv-x="1302" 
d="M797 1550h61l-186 -223h-94l-189 223h64l172 -184zM649 1139h-383v-1078h383q219 0 342 150t123 387q0 240 -125 389q-125 152 -340 152zM649 0h-444v1200h444q247 0 385 -170q142 -171 142 -432q0 -259 -142 -430q-137 -168 -385 -168z" />
    <glyph glyph-name="Aogonek.sc" horiz-adv-x="1124" 
d="M862 332h-600l-127 -332h-65l460 1200h64l459 -1200l-56 -121q-13 -30 -16 -61q-3 -70 61 -97q52 -19 97 12.5t45 90.5l55 2q0 -94 -72 -141q-72 -48 -145 -15q-63 26 -86.5 86t2.5 123l49 121zM840 387l-279 727l-276 -727h555z" />
    <glyph glyph-name="Emacron.sc" horiz-adv-x="997" 
d="M881 0h-676v1200h655v-61h-594v-521h520v-61h-520v-496h615v-61zM737 1403h-399v55h399v-55z" />
    <glyph glyph-name="Ebreve.sc" horiz-adv-x="997" 
d="M680 1528h53q0 -81 -54 -130.5t-142 -49.5q-90 0 -141.5 51.5t-51.5 128.5h53q2 -56 38 -90.5t102 -34.5q65 0 103 34.5t40 90.5zM205 1200h655v-61h-594v-521h520v-61h-520v-496h615v-61h-676v1200z" />
    <glyph glyph-name="Edotaccent.sc" horiz-adv-x="997" 
d="M479 1473q0 34 29.5 48t59.5 0t30 -48q0 -33 -30 -46.5t-59.5 0t-29.5 46.5zM205 1200h655v-61h-594v-521h520v-61h-520v-496h615v-61h-676v1200z" />
    <glyph glyph-name="Ecaron.sc" horiz-adv-x="997" 
d="M696 1550h62l-189 -223h-94l-186 223h61l172 -184zM881 0h-676v1200h655v-61h-594v-521h520v-61h-520v-496h615v-61z" />
    <glyph glyph-name="Gcircumflex.sc" horiz-adv-x="1363" 
d="M520 1327h-63l188 223h94l187 -223h-62l-172 184zM1210 496h-374v61h442q-7 -281 -152.5 -429t-402.5 -148q-253 0 -428 178q-174 180 -174 438q0 257 174 434q174 180 428 180q200 0 358 -116l-39 -50q-141 105 -319 105q-230 0 -385 -162q-156 -163 -156 -391
q0 -230 156 -393q155 -162 385 -162q212 0 339.5 118t147.5 337z" />
    <glyph glyph-name="Gbreve.sc" horiz-adv-x="1363" 
d="M858 1528h53q0 -82 -53 -131t-141 -49q-93 0 -144 51.5t-51 128.5h53q2 -56 38.5 -90.5t103.5 -34.5q63 0 101 34.5t40 90.5zM1210 496h-374v61h442q-7 -281 -152.5 -429t-402.5 -148q-253 0 -428 178q-174 180 -174 438q0 257 174 434q174 180 428 180q200 0 358 -116
l-39 -50q-141 105 -319 105q-230 0 -385 -162q-156 -163 -156 -391q0 -230 156 -393q155 -162 385 -162q212 0 339.5 118t147.5 337z" />
    <glyph glyph-name="Eogonek.sc" horiz-adv-x="997" 
d="M205 0v1200h655v-61h-594v-521h520v-61h-520v-496h615v-61l-60 -143q-8 -16 -8 -39q-3 -70 61 -97q52 -19 96 12.5t44 90.5l57 2q0 -94 -72 -141q-72 -48 -145 -15q-63 26 -86.5 84.5t2.5 124.5l53 121h-618z" />
    <glyph glyph-name="Dcroat.sc" horiz-adv-x="1304" 
d="M651 1139h-383v-518h332v-58h-332v-502h383q219 0 342 150t123 387q0 240 -125 389q-125 152 -340 152zM651 0h-444v563h-170v58h170v579h444q247 0 385 -170q142 -171 142 -432q0 -259 -142 -430q-137 -168 -385 -168z" />
    <glyph glyph-name="Gdotaccent.sc" horiz-adv-x="1363" 
d="M655 1473q0 34 29.5 48t59.5 0t30 -48q0 -33 -30 -46.5t-59.5 0t-29.5 46.5zM1210 496h-374v61h442q-7 -281 -152.5 -429t-402.5 -148q-253 0 -428 178q-174 180 -174 438q0 257 174 434q174 180 428 180q200 0 358 -116l-39 -50q-141 105 -319 105q-230 0 -385 -162
q-156 -163 -156 -391q0 -230 156 -393q155 -162 385 -162q212 0 339.5 118t147.5 337z" />
    <glyph glyph-name="Hcircumflex.sc" horiz-adv-x="1282" 
d="M469 1327h-61l186 223h94l189 -223h-64l-172 184zM1016 625v575h61v-1200h-61v567h-750v-567h-61v1200h61v-575h750z" />
    <glyph glyph-name="Hbar.sc" horiz-adv-x="1302" 
d="M1219 965v-54h-132v-911h-61v567h-750v-567h-61v911h-117v54h117v235h61v-235h750v235h61v-235h132zM276 625h750v286h-750v-286z" />
    <glyph glyph-name="Itilde.sc" horiz-adv-x="471" 
d="M205 0v1200h61v-1200h-61zM150 1444q-25 0 -44 -21t-20 -57h-57q1 62 36 96.5t82 36.5q25 0 31 -2q30 -6 74 -41q42 -33 70 -33q25 0 43.5 20t19.5 56h57q-1 -62 -36 -96.5t-80 -34.5q-38 0 -93 37q-51 39 -83 39z" />
    <glyph glyph-name="Imacron.sc" horiz-adv-x="471" 
d="M434 1403h-399v55h399v-55zM205 0v1200h61v-1200h-61z" />
    <glyph glyph-name="Iogonek.sc" horiz-adv-x="471" 
d="M176 -121l51 121v1200h62v-1200h-8l-54 -143q-8 -24 -8 -39q0 -70 64 -97q54 -20 96.5 11t42.5 92l57 2q0 -94 -71 -141q-73 -48 -146 -15q-63 26 -87.5 84.5t1.5 124.5z" />
    <glyph glyph-name="IJ.sc" horiz-adv-x="942" 
d="M311 -406l8 62q38 -6 74 -6q142 0 212.5 82t70.5 227v1241h61v-1241q0 -173 -85.5 -272t-258.5 -99q-41 0 -82 6zM205 0v1200h61v-1200h-61z" />
    <glyph glyph-name="Jcircumflex.sc" horiz-adv-x="471" 
d="M-160 -406l8 62q38 -6 74 -6q142 0 212.5 82t70.5 227v1241h61v-1241q0 -173 -85.5 -272t-258.5 -99q-42 0 -82 6zM63 1327h-61l186 223h95l188 -223h-63l-172 184z" />
    <glyph glyph-name="Lacute.sc" horiz-adv-x="870" 
d="M207 1327l135 223h76l-152 -223h-59zM801 0h-596v1200h61v-1139h535v-61z" />
    <glyph glyph-name="Lcaron.sc" horiz-adv-x="870" 
d="M801 0h-596v1200h61v-1139h535v-61zM561 1198h60q3 -193 -113 -321l-31 18q87 116 84 303z" />
    <glyph glyph-name="Ldot.sc" horiz-adv-x="870" 
d="M801 0h-596v1200h61v-1139h535v-61zM451 365q0 34 29.5 48t59 0t29.5 -48q0 -33 -29.5 -46.5t-59 0t-29.5 46.5z" />
    <glyph glyph-name="Nacute.sc" horiz-adv-x="1236" 
d="M563 1327l135 223h74l-151 -223h-58zM971 92v1108h61v-1200h-71l-695 1104v-1104h-61v1200h71z" />
    <glyph glyph-name="Ncaron.sc" horiz-adv-x="1236" 
d="M791 1550h61l-188 -223h-93l-188 223h61l172 -184zM971 92v1108h61v-1200h-71l-695 1104v-1104h-61v1200h71z" />
    <glyph glyph-name="Omacron.sc" horiz-adv-x="1447" 
d="M924 1403h-400v55h400v-55zM338 987q-156 -163 -156 -391t156 -391q155 -162 385 -162t385 162q158 166 158 391t-158 391q-155 162 -385 162t-385 -162zM723 1210q254 0 428 -180q176 -179 176 -434q0 -254 -176 -436q-174 -180 -428 -180t-428 180t-174 436
q0 257 174 434q174 180 428 180z" />
    <glyph glyph-name="Obreve.sc" horiz-adv-x="1447" 
d="M860 1530h53q0 -82 -53 -131t-141 -49q-93 0 -144 51.5t-51 128.5h54q2 -56 39 -91.5t102 -35.5q63 0 102 35.5t39 91.5zM338 205q155 -162 385 -162t385 162q158 166 158 391t-158 391q-155 162 -385 162t-385 -162q-156 -163 -156 -391t156 -391zM723 -20
q-254 0 -428 180t-174 436q0 257 174 434q174 180 428 180t428 -180q176 -179 176 -434q0 -254 -176 -436q-174 -180 -428 -180z" />
    <glyph glyph-name="Ohungarumlaut.sc" horiz-adv-x="1447" 
d="M778 1329l135 223h76l-153 -223h-58zM584 1329l135 223h74l-150 -223h-59zM338 987q-156 -163 -156 -391t156 -391q155 -162 385 -162t385 162q158 166 158 391t-158 391q-155 162 -385 162t-385 -162zM723 1210q254 0 428 -180q176 -179 176 -434q0 -254 -176 -436
q-174 -180 -428 -180t-428 180t-174 436q0 257 174 434q174 180 428 180z" />
    <glyph glyph-name="Racute.sc" horiz-adv-x="1089" 
d="M487 1327l136 223h73l-151 -223h-58zM645 1139h-379v-586h369q135 0 203.5 80t68.5 211t-67 213t-195 82zM872 0l-348 492h-258v-492h-61v1200h440q165 0 244 -102q80 -103 80 -254q0 -140 -80 -246q-77 -102 -227 -102h-64l348 -496h-74z" />
    <glyph glyph-name="Rcaron.sc" horiz-adv-x="1089" 
d="M723 1550h61l-188 -223h-92l-189 223h62l172 -184zM645 1139h-379v-586h369q135 0 203.5 80t68.5 211t-67 213t-195 82zM872 0l-348 492h-258v-492h-61v1200h440q165 0 244 -102q80 -103 80 -254q0 -140 -80 -246q-77 -102 -227 -102h-64l348 -496h-74z" />
    <glyph glyph-name="Sacute.sc" horiz-adv-x="1017" 
d="M459 1327l135 223h74l-152 -223h-57zM125 295h61q15 -101 101 -178q89 -74 215 -74q137 0 227.5 66t110.5 163q34 230 -265 301l-167 39q-275 62 -275 287q0 135 111 223q110 88 256 88q151 0 251.5 -82t110.5 -217h-61q-10 108 -93.5 173t-207.5 65q-120 0 -213 -72
q-92 -71 -92 -178q0 -175 225 -227l170 -39q355 -83 309 -373q-21 -114 -127 -197q-103 -83 -270 -83q-156 0 -260 94q-102 94 -117 221z" />
    <glyph glyph-name="Scircumflex.sc" horiz-adv-x="1017" 
d="M342 1327h-61l188 223h92l189 -223h-62l-174 184zM125 295h61q15 -101 101 -178q89 -74 215 -74q137 0 227.5 66t110.5 163q34 230 -265 301l-167 39q-275 62 -275 287q0 135 111 223q110 88 256 88q151 0 251.5 -82t110.5 -217h-61q-10 108 -93.5 173t-207.5 65
q-120 0 -213 -72q-92 -71 -92 -178q0 -175 225 -227l170 -39q355 -83 309 -373q-21 -114 -127 -197q-103 -83 -270 -83q-156 0 -260 94q-102 94 -117 221z" />
    <glyph glyph-name="Scedilla.sc" horiz-adv-x="1021" 
d="M127 295h61q15 -101 101 -178q89 -74 215 -74q137 0 227.5 66t110.5 163q34 231 -264 301l-168 39q-275 62 -275 287q0 135 111 223q110 88 256 88q151 0 251.5 -82t110.5 -217h-61q-10 108 -93.5 173t-207.5 65t-215 -70q-90 -72 -90 -180q0 -175 225 -227l170 -39
q355 -83 309 -373q-21 -107 -113 -184.5t-229 -89.5l45 -109q26 -66 2.5 -124.5t-86.5 -84.5q-74 -33 -147 15q-70 46 -70 141l57 -2q0 -59 44 -90.5t96 -12.5q64 27 61 97q0 23 -8 39l-53 125q-152 0 -256 94q-102 94 -117 221z" />
    <glyph glyph-name="Utilde.sc" horiz-adv-x="1212" 
d="M961 1198h61v-805q0 -184 -121 -299q-120 -114 -295 -114t-295 114q-121 115 -121 299v805h62v-805q0 -155 102 -254q101 -98 252 -98t252 98q103 100 103 254v805zM530 1444q-25 0 -43.5 -21t-19.5 -57h-57q1 62 36 96.5t82 36.5q25 0 31 -2q30 -6 74 -41q42 -33 69 -33
q25 0 44 20t20 56h57q-1 -62 -36 -96.5t-80 -34.5q-38 0 -93 37q-51 39 -84 39z" />
    <glyph glyph-name="Umacron.sc" horiz-adv-x="1212" 
d="M961 1198h61v-805q0 -184 -121 -299q-120 -114 -295 -114t-295 114q-121 115 -121 299v805h62v-805q0 -155 102 -254q101 -98 252 -98t252 98q103 100 103 254v805zM813 1403h-399v55h399v-55z" />
    <glyph glyph-name="Ubreve.sc" horiz-adv-x="1212" 
d="M748 1528h53q0 -81 -54.5 -130.5t-142.5 -49.5q-93 0 -142.5 50.5t-49.5 129.5h53q2 -56 38 -90.5t101 -34.5t103.5 34.5t40.5 90.5zM961 1198h61v-805q0 -184 -121 -299q-120 -114 -295 -114t-295 114q-121 115 -121 299v805h62v-805q0 -155 102 -254q101 -98 252 -98
t252 98q103 100 103 254v805z" />
    <glyph glyph-name="Uring.sc" horiz-adv-x="1212" 
d="M459 1501q0 63 41.5 107.5t101.5 44.5q63 0 107.5 -44.5t44.5 -107.5q0 -61 -44.5 -103t-107.5 -42q-60 0 -101.5 42t-41.5 103zM512 1501q0 -38 27 -65t65 -27q41 0 68.5 26.5t27.5 65.5q0 41 -27.5 68.5t-68.5 27.5q-39 0 -65.5 -27.5t-26.5 -68.5zM961 1198h61v-805
q0 -184 -121 -299q-120 -114 -295 -114t-295 114q-121 115 -121 299v805h62v-805q0 -155 102 -254q101 -98 252 -98t252 98q103 100 103 254v805z" />
    <glyph glyph-name="Uhungarumlaut.sc" horiz-adv-x="1212" 
d="M961 1198h61v-805q0 -184 -121 -299q-120 -114 -295 -114t-295 114q-121 115 -121 299v805h62v-805q0 -155 102 -254q101 -98 252 -98t252 98q103 100 103 254v805zM655 1329l136 223h75l-153 -223h-58zM461 1329l135 223h74l-150 -223h-59z" />
    <glyph glyph-name="Uogonek.sc" horiz-adv-x="1214" 
d="M963 1198h61v-805q0 -178 -113 -291t-280 -122l-51 -125q-9 -18 -9 -39q-3 -67 64 -97q53 -20 96 13t43 90l55 2q0 -94 -71 -141q-73 -48 -146 -15q-63 26 -86.5 84.5t2.5 124.5l43 103q-164 12 -270 124q-108 114 -108 289v805h61v-805q0 -155 102 -254q101 -98 252 -98
t252 98q103 100 103 254v805z" />
    <glyph glyph-name="Wcircumflex.sc" horiz-adv-x="1642" 
d="M649 1327h-63l188 223h94l187 -223h-62l-172 184zM858 1014l268 -928l377 1114h66l-408 -1200h-71l-269 920l-270 -920h-70l-407 1200h63l377 -1112l270 926h74z" />
    <glyph glyph-name="Ycircumflex.sc" horiz-adv-x="1077" 
d="M946 1200h74l-451 -629v-571h-61v573l-449 627h74l406 -567zM367 1327h-64l189 223h94l186 -223h-61l-172 184z" />
    <glyph glyph-name="Tcaron.sc" horiz-adv-x="1003" 
d="M471 1139h-403v61h868v-61h-404v-1139h-61v1139zM672 1550h61l-188 -223h-94l-187 223h62l172 -184z" />
    <glyph glyph-name="Tbar.sc" horiz-adv-x="1003" 
d="M532 0h-61v629h-223v57h223v453h-403v61h868v-61h-404v-453h222v-57h-222v-629z" />
    <glyph glyph-name="Zacute.sc" horiz-adv-x="960" 
d="M868 1153l-694 -1092h694v-61h-778v41l698 1098h-694v61h774v-47zM408 1329l135 223h73l-151 -223h-57z" />
    <glyph glyph-name="Zdotaccent.sc" horiz-adv-x="960" 
d="M420 1473q0 34 30 48t59.5 0t29.5 -48q0 -33 -29.5 -46.5t-59.5 0t-30 46.5zM868 1153l-694 -1092h694v-61h-778v41l698 1098h-694v61h774v-47z" />
    <glyph glyph-name="Wgrave.sc" horiz-adv-x="1642" 
d="M838 1327h-58l-153 223h75zM1503 1200h66l-408 -1200h-71l-269 920l-270 -920h-70l-407 1200h63l377 -1112l270 926h74l268 -928z" />
    <glyph glyph-name="Wacute.sc" horiz-adv-x="1642" 
d="M791 1327l135 223h75l-153 -223h-57zM858 1014l268 -928l377 1114h66l-408 -1200h-71l-269 920l-270 -920h-70l-407 1200h63l377 -1112l270 926h74z" />
    <glyph glyph-name="Wdieresis.sc" horiz-adv-x="1642" 
d="M625 1473q0 24 17 39.5t42 15.5q27 0 44 -15.5t17 -39.5q0 -23 -17.5 -38.5t-43.5 -15.5q-25 0 -42 15.5t-17 38.5zM897 1473q0 24 17 39.5t42 15.5q27 0 44.5 -15.5t17.5 -39.5q0 -23 -18 -38.5t-44 -15.5q-25 0 -42 15.5t-17 38.5zM1503 1200h66l-408 -1200h-71
l-269 920l-270 -920h-70l-407 1200h63l377 -1112l270 926h74l268 -928z" />
    <glyph glyph-name="Aringacute.sc" horiz-adv-x="1124" 
d="M559 1354q41 0 68.5 27.5t27.5 66.5t-27.5 66.5t-68.5 27.5q-56 3 -79.5 -45.5t0 -97t79.5 -45.5zM532 1593l109 179h74l-123 -181q51 -11 84 -51t33 -94q0 -61 -43.5 -103.5t-106.5 -42.5q-60 0 -102.5 42.5t-42.5 103.5q0 55 33 95.5t85 51.5zM285 387h555l-279 727z
M987 0l-125 332h-600l-127 -332h-65l460 1200h64l459 -1200h-66z" />
    <glyph glyph-name="AEacute.sc" horiz-adv-x="1732" 
d="M881 1329l135 223h74l-152 -223h-57zM131 0h-74l787 1200h751v-61h-594v-521h521v-61h-521v-496h615v-61h-676v336h-590zM389 397h551v742h-63z" />
    <glyph glyph-name="Oslashacute.sc" horiz-adv-x="1445" 
d="M690 1329l135 223h74l-151 -223h-58zM723 43q230 0 385 162q158 166 158 391q0 213 -138 369l-768 -783q151 -139 363 -139zM182 596q0 -218 137 -373l771 783q-155 143 -367 143q-230 0 -385 -162q-156 -163 -156 -391zM317 139l-157 -159l-41 40l157 160
q-155 171 -155 416q0 257 174 434q174 180 428 180q235 0 410 -159l161 161l39 -38l-162 -164q156 -179 156 -414q0 -254 -176 -436q-174 -180 -428 -180q-237 0 -406 159z" />
    <glyph glyph-name="Ibreve.sc" horiz-adv-x="471" 
d="M377 1528h53q0 -82 -53 -131t-141 -49q-93 0 -144 51.5t-51 128.5h53q2 -56 38.5 -90.5t103.5 -34.5q63 0 101 34.5t40 90.5zM266 1200v-1200h-61v1200h61z" />
    <glyph glyph-name="Eng.sc" horiz-adv-x="1236" 
d="M971 -41v41l-705 1104v-1104h-61v1200h71l695 -1096v1096h61v-1200v-41q0 -173 -85.5 -272t-258.5 -99q-42 0 -82 6l8 62q38 -6 74 -6q142 0 212.5 82t70.5 227z" />
    <glyph glyph-name="Ygrave.sc" horiz-adv-x="1077" 
d="M571 1327h-57l-154 223h76zM946 1200h74l-451 -629v-571h-61v573l-449 627h74l406 -567z" />
    <glyph glyph-name="Gcommaaccent.sc" horiz-adv-x="1363" 
d="M1210 496h-374v61h442q-7 -281 -152.5 -429t-402.5 -148q-253 0 -428 178q-174 180 -174 438q0 257 174 434q174 180 428 180q200 0 358 -116l-39 -50q-141 105 -319 105q-230 0 -385 -162q-156 -163 -156 -391q0 -230 156 -393q155 -162 385 -162q212 0 339.5 118
t147.5 337zM614 -383l-53 4q109 118 115 260h67q-15 -175 -129 -264z" />
    <glyph glyph-name="Kcommaaccent.sc" horiz-adv-x="954" 
d="M449 -383l-54 4q109 118 115 260h68q-15 -175 -129 -264zM844 0l-578 543v-543h-61v1200h61v-614l506 614h78l-522 -633l602 -567h-86z" />
    <glyph glyph-name="Lcommaaccent.sc" horiz-adv-x="870" 
d="M414 -383l-54 4q109 118 115 260h68q-15 -175 -129 -264zM801 0h-596v1200h61v-1139h535v-61z" />
    <glyph glyph-name="Ncommaaccent.sc" horiz-adv-x="1236" 
d="M508 -383l-53 4q108 117 114 260h68q-15 -175 -129 -264zM971 92v1108h61v-1200h-71l-695 1104v-1104h-61v1200h71z" />
    <glyph glyph-name="Rcommaaccent.sc" horiz-adv-x="1089" 
d="M449 -383l-54 4q109 118 115 260h68q-15 -175 -129 -264zM645 1139h-379v-586h369q135 0 203.5 80t68.5 211t-67 213t-195 82zM872 0l-348 492h-258v-492h-61v1200h440q165 0 244 -102q80 -103 80 -254q0 -140 -80 -246q-77 -102 -227 -102h-64l348 -496h-74z" />
    <glyph glyph-name="Tcommaaccent.sc" horiz-adv-x="1003" 
d="M406 -383l-54 4q109 118 115 260h68q-15 -175 -129 -264zM471 1139h-403v61h868v-61h-404v-1139h-61v1139z" />
    <glyph glyph-name="Scommaaccent.sc" horiz-adv-x="1017" 
d="M420 -383l-53 4q108 117 114 260h68q-15 -175 -129 -264zM125 295h61q15 -101 101 -178q89 -74 215 -74q137 0 227.5 66t110.5 163q34 230 -265 301l-167 39q-275 62 -275 287q0 135 111 223q110 88 256 88q151 0 251.5 -82t110.5 -217h-61q-10 108 -93.5 173t-207.5 65
q-120 0 -213 -72q-92 -71 -92 -178q0 -175 225 -227l170 -39q355 -83 309 -373q-21 -114 -127 -197q-103 -83 -270 -83q-156 0 -260 94q-102 94 -117 221z" />
    <glyph glyph-name="Idotaccent.sc" horiz-adv-x="471" 
d="M176 1473q0 34 30 48t59.5 0t29.5 -48q0 -33 -29.5 -46.5t-59.5 0t-30 46.5zM266 1200v-1200h-61v1200h61z" />
    <glyph glyph-name="zero.numr" horiz-adv-x="727" 
d="M365 1339q144 0 206 -102.5t62 -300.5q0 -199 -62.5 -301.5t-205.5 -102.5q-146 0 -209.5 102.5t-63.5 301.5q0 198 63.5 300.5t209.5 102.5zM365 594q206 0 206 342t-206 342q-211 0 -211 -342t211 -342z" />
    <glyph glyph-name="one.numr" horiz-adv-x="382" 
d="M260 1356v-813h-61v727l-142 -49v61z" />
    <glyph glyph-name="two.numr" horiz-adv-x="647" 
d="M188 604h371v-61h-479v22l342 410q74 89 74 166q0 73 -52.5 120.5t-130.5 47.5q-68 0 -119 -37t-63 -96l-57 16q17 80 83 129t156 49q105 0 174.5 -65t69.5 -164q0 -100 -90 -207z" />
    <glyph glyph-name="three.numr" horiz-adv-x="661" 
d="M481 1147q5 67 -38 111.5t-121 50.5q-54 5 -104 -19t-73 -65l-51 30q33 56 96 87.5t136 27.5q110 -7 168.5 -71.5t50.5 -159.5q-9 -110 -117 -156q68 -17 110.5 -84.5t36.5 -142.5q-9 -102 -90 -168q-80 -65 -190 -56q-83 5 -136 37t-91 103l49 33q49 -102 182 -111
q87 -4 147 44t68 128q1 79 -53 131.5t-133 52.5h-80v60h80q58 0 103.5 39t49.5 98z" />
    <glyph glyph-name="four.numr" horiz-adv-x="716" 
d="M469 776v461l-315 -461h315zM657 776v-57h-127v-176h-61v176h-428l444 641h45v-584h127z" />
    <glyph glyph-name="five.numr" horiz-adv-x="692" 
d="M565 1360v-64h-338l-55 -299q107 52 184 52q109 0 185 -70q80 -68 80 -184q0 -119 -77 -191t-210 -72q-79 0 -154 46t-112 116q1 1 24.5 16.5t28.5 20.5q29 -59 89 -97t124 -38q102 0 162.5 55.5t60.5 143.5q0 85 -59.5 137.5t-141.5 52.5q-98 0 -229 -61l-23 30l70 406
h391z" />
    <glyph glyph-name="six.numr" horiz-adv-x="692" 
d="M106 801q-7 62 -5 129t7 131t25.5 121t50.5 100t82 67t121 23q154 -3 213 -139l-55 -25q-47 100 -160 103q-136 3 -186 -129q-36 -107 -33 -254q23 60 82.5 94t128.5 29q104 -3 176 -84q71 -77 68 -187q-6 -110 -82 -180q-77 -71 -183 -68q-106 5 -174.5 77t-75.5 192z
M168 801q0 -85 55 -143.5t135 -63.5q82 -2 139.5 52t61.5 138q2 85 -50 143t-134 62q-82 5 -144 -51t-63 -137z" />
    <glyph glyph-name="seven.numr" horiz-adv-x="626" 
d="M600 1360l-448 -817h-74l418 755h-422v62h526z" />
    <glyph glyph-name="eight.numr" horiz-adv-x="708" 
d="M346 1042h14q59 0 99.5 40t40.5 96t-42.5 94.5t-103.5 38.5t-102 -38.5t-41 -94.5t39 -96t96 -40zM143 788q0 -82 60.5 -138t150.5 -56q53 -3 98.5 19t72 61t37.5 84t-4 91t-54 79q-59 59 -148 59q-87 0 -150 -59.5t-63 -139.5zM150 1178q0 82 58.5 138t145.5 56
q88 0 147.5 -56t59.5 -138q0 -101 -90 -160q70 -29 113 -92.5t43 -137.5q0 -108 -80 -182q-77 -74 -193 -74q-117 0 -194 74q-78 75 -78 182q0 75 42.5 138t111.5 94q-86 53 -86 158z" />
    <glyph glyph-name="nine.numr" horiz-adv-x="692" 
d="M598 1102q6 -62 4 -128.5t-7.5 -130.5t-26 -121.5t-50.5 -100t-81.5 -67t-119.5 -22.5q-158 3 -217 140l56 22q48 -97 163 -100q68 -1 116.5 31.5t68.5 93.5q38 101 35 256q-23 -60 -82.5 -94t-128.5 -29q-105 3 -178 82q-69 78 -66 188q6 110 82 181.5t182 66.5
t174.5 -76.5t75.5 -191.5zM537 1104q0 86 -54.5 143t-136.5 62q-82 2 -138.5 -51.5t-60.5 -137.5q-5 -85 48 -144.5t135 -60.5q83 -5 144.5 50t62.5 139z" />
    <glyph glyph-name="zero.dnom" horiz-adv-x="727" 
d="M365 797q143 0 205.5 -102.5t62.5 -301.5q0 -198 -62 -300.5t-206 -102.5q-146 0 -209.5 102.5t-63.5 300.5q0 199 63.5 301.5t209.5 102.5zM365 51q206 0 206 342t-206 342q-211 0 -211 -342t211 -342z" />
    <glyph glyph-name="one.dnom" horiz-adv-x="382" 
d="M260 813v-813h-61v727l-142 -49v61z" />
    <glyph glyph-name="two.dnom" horiz-adv-x="647" 
d="M188 61h371v-61h-479v23l342 409q74 89 74 166q0 73 -52.5 120.5t-130.5 47.5q-68 0 -119 -37t-63 -96l-57 16q17 80 83 129t156 49q105 0 174.5 -65t69.5 -164q0 -100 -90 -207z" />
    <glyph glyph-name="three.dnom" horiz-adv-x="663" 
d="M483 604q5 67 -38 111.5t-121 50.5q-54 5 -104 -19t-73 -65l-51 31q32 56 95.5 87t136.5 27q110 -7 168.5 -71.5t50.5 -159.5q-9 -110 -117 -156q68 -17 111 -84.5t37 -142.5q-9 -101 -91 -168q-79 -64 -190 -55q-83 5 -136 36.5t-91 102.5l49 33q49 -102 182 -111
q87 -4 147 44t68 128q1 79 -53 132t-133 53h-80v59h80q58 0 103.5 39t49.5 98z" />
    <glyph glyph-name="four.dnom" horiz-adv-x="720" 
d="M473 233v461l-315 -461h315zM662 233v-57h-127v-176h-62v176h-428l444 641h46v-584h127z" />
    <glyph glyph-name="five.dnom" horiz-adv-x="694" 
d="M565 817v-63h-338l-55 -299q105 51 184 51q109 0 185 -70q80 -68 80 -184q0 -119 -77 -190.5t-210 -71.5q-79 0 -154 46t-112 116l53 36q29 -59 89 -97t124 -38q102 0 162.5 55.5t60.5 143.5q0 85 -59.5 137.5t-141.5 52.5q-98 0 -229 -61l-23 31l70 405h391z" />
    <glyph glyph-name="six.dnom" horiz-adv-x="690" 
d="M106 258q-7 62 -5 129t7 131t25.5 121t50.5 100t82 67t121 23q154 -3 213 -139l-55 -24q-47 99 -160 102q-136 3 -186 -129q-36 -107 -33 -254q23 60 82.5 94t128.5 29q104 -3 176 -84q71 -77 68 -186q-6 -111 -82 -181t-183 -67q-106 5 -174.5 76.5t-75.5 191.5z
M168 258q0 -85 55 -143.5t135 -63.5q82 -2 139.5 52.5t61.5 138.5q1 85 -50.5 142t-133.5 62t-144 -51t-63 -137z" />
    <glyph glyph-name="seven.dnom" horiz-adv-x="624" 
d="M600 817l-448 -817h-74l418 756h-422v61h526z" />
    <glyph glyph-name="eight.dnom" horiz-adv-x="708" 
d="M346 500h14q59 0 99.5 39.5t40.5 95.5t-42.5 94.5t-103.5 38.5t-102 -38.5t-41 -94.5t39 -95.5t96 -39.5zM143 246q0 -82 60.5 -138.5t150.5 -56.5q53 -3 98.5 19t72 61t37.5 84t-4 91t-54 79q-59 59 -148 59q-87 0 -150 -59t-63 -139zM150 635q0 82 58.5 138t145.5 56
q88 0 147.5 -56t59.5 -138q0 -101 -90 -160q70 -30 113 -92.5t43 -136.5q0 -109 -80 -183q-76 -73 -193 -73q-118 0 -194 73q-78 75 -78 183q0 74 42 137t112 94q-86 53 -86 158z" />
    <glyph glyph-name="nine.dnom" horiz-adv-x="692" 
d="M598 559q6 -62 4 -128.5t-7.5 -130.5t-26 -121t-50.5 -99.5t-81.5 -67t-119.5 -22.5q-158 3 -217 139l56 23q48 -98 163 -101q68 -1 116.5 31.5t68.5 93.5q38 101 35 256q-23 -60 -82.5 -94t-128.5 -29q-105 3 -178 82q-69 78 -66 189q6 110 82 181t182 66t174.5 -76.5
t75.5 -191.5zM537 561q0 86 -54.5 143t-136.5 62q-82 2 -138.5 -51t-60.5 -137q-5 -85 48 -144.5t135 -60.5q83 -5 144.5 49.5t62.5 138.5z" />
    <glyph glyph-name="l.alt1" horiz-adv-x="485" 
d="M512 61v-61h-25q-170 0 -244.5 86t-74.5 268v1166h61v-1166q0 -157 58.5 -225t199.5 -68h25z" />
    <glyph glyph-name="a.alt1" horiz-adv-x="1103" 
d="M430 39q115 0 244 57q127 56 200 168v123q-89 38 -208 57q-114 21 -183 21q-329 0 -329 -217q0 -95 71.5 -152t204.5 -57zM506 915q-177 0 -307 -118q-13 13 -23 25t-18 20q126 135 366 135q201 0 307.5 -99.5t106.5 -289.5v-588h-61v176q-166 -199 -451 -199
q-156 0 -245 72t-89 199q0 130 96 204t295 74q190 0 394 -77v139q0 327 -371 327z" />
    <glyph glyph-name="y.alt1" horiz-adv-x="1019" 
d="M432 -119l41 109l-410 966h68l377 -893l383 893h67l-479 -1122q-69 -159 -159 -235t-222 -76q-19 0 -55 4v61q32 -4 55 -4q114 0 190.5 69.5t143.5 227.5z" />
    <glyph glyph-name="lslash.alt1" horiz-adv-x="512" 
d="M188 354v361l-172 -107v60l172 106v746h62v-707l227 143v-59l-227 -143v-400q0 -157 58.5 -225t199.5 -68h24v-61h-24q-170 0 -245 86t-75 268z" />
    <glyph glyph-name="lacute.alt1" horiz-adv-x="485" 
d="M330 1907h73l-180 -260h-55zM512 61v-61h-25q-170 0 -244.5 86t-74.5 268v1166h61v-1166q0 -157 58.5 -225t199.5 -68h25z" />
    <glyph glyph-name="lcommaaccent.alt1" horiz-adv-x="485" 
d="M512 61v-61h-25q-170 0 -244.5 86t-74.5 268v1166h61v-1166q0 -157 58.5 -225t199.5 -68h25zM311 -440h-55q129 132 141 299h68q-21 -193 -154 -299z" />
    <glyph glyph-name="lcaron.alt1" horiz-adv-x="485" 
d="M412 1520h59q3 -194 -113 -322l-30 19q87 116 84 303zM487 0q-170 0 -244.5 86t-74.5 268v1166h61v-1166q0 -157 58.5 -225t199.5 -68h25v-61h-25z" />
    <glyph glyph-name="aacute.alt1" horiz-adv-x="1103" 
d="M430 39q115 0 244 57q127 56 200 168v123q-89 38 -208 57q-114 21 -183 21q-329 0 -329 -217q0 -95 71.5 -152t204.5 -57zM506 915q-177 0 -307 -118q-13 13 -23 25t-18 20q126 135 366 135q201 0 307.5 -99.5t106.5 -289.5v-588h-61v176q-166 -199 -451 -199
q-156 0 -245 72t-89 199q0 130 96 204t295 74q190 0 394 -77v139q0 327 -371 327zM633 1362h74l-181 -260h-55z" />
    <glyph glyph-name="agrave.alt1" horiz-adv-x="1103" 
d="M430 39q115 0 244 57q127 56 200 168v123q-89 38 -208 57q-114 21 -183 21q-329 0 -329 -217q0 -95 71.5 -152t204.5 -57zM506 915q-177 0 -307 -118q-13 13 -23 25t-18 20q126 135 366 135q201 0 307.5 -99.5t106.5 -289.5v-588h-61v176q-166 -199 -451 -199
q-156 0 -245 72t-89 199q0 130 96 204t295 74q190 0 394 -77v139q0 327 -371 327zM537 1102h-56l-180 260h74z" />
    <glyph glyph-name="acircumflex.alt1" horiz-adv-x="1103" 
d="M430 39q115 0 244 57q127 56 200 168v123q-89 38 -208 57q-114 21 -183 21q-329 0 -329 -217q0 -95 71.5 -152t204.5 -57zM506 915q-177 0 -307 -118q-13 13 -23 25t-18 20q126 135 366 135q201 0 307.5 -99.5t106.5 -289.5v-588h-61v176q-166 -199 -451 -199
q-156 0 -245 72t-89 199q0 130 96 204t295 74q190 0 394 -77v139q0 327 -371 327zM250 1102l225 260h98l226 -260h-62l-213 223l-213 -223h-61z" />
    <glyph glyph-name="adieresis.alt1" horiz-adv-x="1103" 
d="M293 1272q0 26 18 42.5t45 16.5q29 0 47.5 -16.5t18.5 -42.5q0 -25 -18.5 -41.5t-47.5 -16.5q-26 0 -44.5 16.5t-18.5 41.5zM606 1272q0 26 18.5 42.5t45.5 16.5q29 0 47 -16.5t18 -42.5q0 -25 -18 -41.5t-47 -16.5q-26 0 -45 16.5t-19 41.5zM430 39q115 0 244 57
q127 56 200 168v123q-89 38 -208 57q-114 21 -183 21q-329 0 -329 -217q0 -95 71.5 -152t204.5 -57zM506 915q-177 0 -307 -118q-13 13 -23 25t-18 20q126 135 366 135q201 0 307.5 -99.5t106.5 -289.5v-588h-61v176q-166 -199 -451 -199q-156 0 -245 72t-89 199
q0 130 96 204t295 74q190 0 394 -77v139q0 327 -371 327z" />
    <glyph glyph-name="atilde.alt1" horiz-adv-x="1103" 
d="M430 39q115 0 244 57q127 56 200 168v123q-89 38 -208 57q-114 21 -183 21q-329 0 -329 -217q0 -95 71.5 -152t204.5 -57zM506 915q-177 0 -307 -118q-13 13 -23 25t-18 20q126 135 366 135q201 0 307.5 -99.5t106.5 -289.5v-588h-61v176q-166 -199 -451 -199
q-156 0 -245 72t-89 199q0 130 96 204t295 74q190 0 394 -77v139q0 327 -371 327zM500 1202q-58 43 -86 43q-29 0 -52 -24t-24 -66h-62q1 69 43 107t95 38q52 0 118 -51q51 -39 84 -39q29 0 52 24t24 66h62q-1 -69 -43 -107t-95 -38q-51 0 -116 47z" />
    <glyph glyph-name="aring.alt1" horiz-adv-x="1103" 
d="M430 39q115 0 244 57q127 56 200 168v123q-89 38 -208 57q-114 21 -183 21q-329 0 -329 -217q0 -95 71.5 -152t204.5 -57zM506 915q-177 0 -307 -118q-13 13 -23 25t-18 20q126 135 366 135q201 0 307.5 -99.5t106.5 -289.5v-588h-61v176q-166 -199 -451 -199
q-156 0 -245 72t-89 199q0 130 96 204t295 74q190 0 394 -77v139q0 327 -371 327zM358 1309q0 72 48.5 122t117.5 50q72 0 122 -50t50 -122q0 -69 -50 -118.5t-122 -49.5q-69 0 -117.5 49.5t-48.5 118.5zM414 1309q0 -48 31.5 -80.5t78.5 -32.5q49 0 83 33t34 80
q0 49 -33.5 82.5t-83.5 33.5q-47 0 -78.5 -33t-31.5 -83z" />
    <glyph glyph-name="amacron.alt1" horiz-adv-x="1103" 
d="M430 39q115 0 244 57q127 56 200 168v123q-89 38 -208 57q-114 21 -183 21q-329 0 -329 -217q0 -95 71.5 -152t204.5 -57zM506 915q-177 0 -307 -118q-13 13 -23 25t-18 20q126 135 366 135q201 0 307.5 -99.5t106.5 -289.5v-588h-61v176q-166 -199 -451 -199
q-156 0 -245 72t-89 199q0 130 96 204t295 74q190 0 394 -77v139q0 327 -371 327zM303 1233v55h467v-55h-467z" />
    <glyph glyph-name="abreve.alt1" horiz-adv-x="1103" 
d="M430 39q115 0 244 57q127 56 200 168v123q-89 38 -208 57q-114 21 -183 21q-329 0 -329 -217q0 -95 71.5 -152t204.5 -57zM506 915q-177 0 -307 -118q-13 13 -23 25t-18 20q126 135 366 135q201 0 307.5 -99.5t106.5 -289.5v-588h-61v176q-166 -199 -451 -199
q-156 0 -245 72t-89 199q0 130 96 204t295 74q190 0 394 -77v139q0 327 -371 327zM692 1331h56q0 -92 -63 -148.5t-163 -56.5q-106 0 -164.5 58t-58.5 147h55q0 -66 43 -107.5t125 -41.5q78 0 124 40.5t46 108.5z" />
    <glyph glyph-name="aogonek.alt1" horiz-adv-x="1103" 
d="M430 39q115 0 244 57q127 56 200 168v123q-89 38 -208 57q-114 21 -183 21q-329 0 -329 -217q0 -95 71.5 -152t204.5 -57zM938 588v-588l-66 -166q-12 -27 -12 -53q0 -78 78 -113q16 -8 47 -8q76 0 111 78v-2q12 30 12 59h59q0 -34 -16 -80q-31 -72 -99 -100.5t-137 0.5
q-73 29 -101 99t3 143l60 143v176q-166 -199 -451 -199q-156 0 -245 72t-89 199q0 130 96 204t295 74q190 0 394 -77v139q0 327 -371 327q-177 0 -307 -118q-13 13 -23 25t-18 20q126 135 366 135q201 0 307.5 -99.5t106.5 -289.5z" />
    <glyph glyph-name="yacute.alt1" horiz-adv-x="1019" 
d="M432 -119l41 109l-410 966h68l377 -893l383 893h67l-479 -1122q-69 -159 -159 -235t-222 -76q-19 0 -55 4v61q32 -4 55 -4q114 0 190.5 69.5t143.5 227.5zM627 1362h73l-180 -260h-55z" />
    <glyph glyph-name="ydieresis.alt1" horiz-adv-x="1019" 
d="M311 1272q0 26 18.5 42.5t45.5 16.5q29 0 47 -16.5t18 -42.5q0 -25 -18 -41.5t-47 -16.5q-26 0 -45 16.5t-19 41.5zM625 1272q0 26 18 42.5t45 16.5q29 0 47.5 -16.5t18.5 -42.5q0 -25 -18.5 -41.5t-47.5 -16.5q-26 0 -44.5 16.5t-18.5 41.5zM473 -10l-410 966h68
l377 -893l383 893h67l-479 -1122q-69 -159 -159 -235t-222 -76q-19 0 -55 4v61q32 -4 55 -4q114 0 190.5 69.5t143.5 227.5z" />
    <glyph glyph-name="ae.alt1" horiz-adv-x="1916" 
d="M938 510h825q-9 186 -121 295q-113 110 -284 110q-173 0 -291 -112q-120 -111 -129 -293zM430 39q115 0 244 57q127 56 200 168v123q-89 38 -208 57q-114 21 -183 21q-329 0 -329 -217q0 -95 71.5 -152t204.5 -57zM924 711q57 125 172.5 195.5t261.5 70.5q205 0 336 -137
q131 -134 131 -359v-26h-887q9 -189 127 -301q119 -113 293 -113q112 0 206.5 51.5t151.5 143.5l53 -33q-66 -105 -174.5 -164t-236.5 -59q-137 0 -248 64t-172 179v-223h-61v176q-166 -199 -451 -199q-156 0 -245 72t-89 199q0 130 96 204t295 74q190 0 394 -77v55v84
q0 327 -371 327q-177 0 -307 -118q-13 13 -23 25t-18 20q126 135 366 135q336 0 400 -266z" />
    <glyph glyph-name="aeacute.alt1" horiz-adv-x="1916" 
d="M938 510h825q-9 186 -121 295q-113 110 -284 110q-173 0 -291 -112q-120 -111 -129 -293zM430 39q115 0 244 57q127 56 200 168v123q-89 38 -208 57q-114 21 -183 21q-329 0 -329 -217q0 -95 71.5 -152t204.5 -57zM924 711q57 125 172.5 195.5t261.5 70.5q205 0 336 -137
q131 -134 131 -359v-26h-887q9 -189 127 -301q119 -113 293 -113q112 0 206.5 51.5t151.5 143.5l53 -33q-66 -105 -174.5 -164t-236.5 -59q-137 0 -248 64t-172 179v-223h-61v176q-166 -199 -451 -199q-156 0 -245 72t-89 199q0 130 96 204t295 74q190 0 394 -77v55v84
q0 327 -371 327q-177 0 -307 -118q-13 13 -23 25t-18 20q126 135 366 135q336 0 400 -266zM1077 1362h74l-180 -260h-56z" />
    <glyph glyph-name="ycircumflex.alt1" horiz-adv-x="1019" 
d="M432 -119l41 109l-410 966h68l377 -893l383 893h67l-479 -1122q-69 -159 -159 -235t-222 -76q-19 0 -55 4v61q32 -4 55 -4q114 0 190.5 69.5t143.5 227.5zM250 1102l225 260h98l226 -260h-62l-213 223l-213 -223h-61z" />
    <glyph glyph-name="ldot.alt1" horiz-adv-x="493" 
d="M446 600q47 3 66.5 -34.5t0 -74.5t-66.5 -34q-49 -3 -69.5 34t0 74.5t69.5 34.5zM512 61v-61h-25q-170 0 -244.5 86t-74.5 268v1166h61v-1166q0 -157 58.5 -225t199.5 -68h25z" />
    <glyph glyph-name="t.alt1" horiz-adv-x="614" 
d="M240 354v547h-174v55h174v287l61 23v-310h238v-55h-238v-547q0 -155 59 -224t199 -69h27v-61h-27q-170 0 -244.5 86t-74.5 268z" />
    <glyph glyph-name="tcaron.alt1" horiz-adv-x="614" 
d="M487 1362h60q3 -194 -113 -322l-31 19q87 116 84 303zM240 354v547h-174v55h174v287l61 23v-310h238v-55h-238v-547q0 -155 59 -224t199 -69h27v-61h-27q-170 0 -244.5 86t-74.5 268z" />
    <glyph glyph-name="tbar.alt1" horiz-adv-x="620" 
d="M457 541v-56h-150v-131q0 -155 59 -224t199 -69h27v-61h-27q-170 0 -244.5 86t-74.5 268v131h-133v56h133v360h-174v55h174v287l61 23v-310h238v-55h-238v-360h150z" />
    <glyph glyph-name="tcommaaccent.alt1" horiz-adv-x="614" 
d="M315 -440q130 133 142 299h67q-21 -194 -153 -299h-56zM240 354v547h-174v55h174v287l61 23v-310h238v-55h-238v-547q0 -155 59 -224t199 -69h27v-61h-27q-170 0 -244.5 86t-74.5 268z" />
    <glyph glyph-name="T.sc.alt1" horiz-adv-x="1003" 
d="M471 1139h-403v61h868v-61h-404v-1139h-61v1139z" />
    <glyph glyph-name="Tcaron.sc.alt1" horiz-adv-x="1003" 
d="M471 1139h-403v61h868v-61h-404v-1139h-61v1139zM672 1550h61l-188 -223h-94l-187 223h62l172 -184z" />
    <glyph glyph-name="Tbar.sc.alt1" horiz-adv-x="1003" 
d="M532 0h-61v629h-223v57h223v453h-403v61h868v-61h-404v-453h222v-57h-222v-629z" />
    <glyph glyph-name="Tcommaaccent.sc.alt1" horiz-adv-x="1003" 
d="M406 -383l-54 4q109 118 115 260h68q-15 -175 -129 -264zM471 1139h-403v61h868v-61h-404v-1139h-61v1139z" />
    <glyph glyph-name="aringacute.alt1" horiz-adv-x="1105" 
d="M682 1640h74l-144 -204q60 -10 100 -58t40 -110q0 -69 -50 -118.5t-122 -49.5q-69 0 -117.5 49.5t-48.5 118.5q0 63 40.5 111t100.5 59zM469 1268q0 -47 32 -80t79 -33q49 0 82.5 33t33.5 80q0 50 -33 83t-83 33q-47 0 -79 -33.5t-32 -82.5zM432 39q115 0 244 57t201 168
v123q-89 38 -209 57q-114 21 -183 21q-329 0 -329 -217q0 -95 71.5 -152t204.5 -57zM508 915q-177 0 -307 -118q-13 13 -23 25t-18 20q126 135 366 135q201 0 307.5 -99.5t106.5 -289.5v-588h-61v176q-166 -199 -451 -199q-156 0 -245 72t-89 199q0 130 96 204t295 74
q190 0 394 -77v139q0 327 -371 327z" />
    </font>
</defs>
</svg>
