<?xml version="1.0" standalone="no"?>
<!DOCTYPE svg PUBLIC "-//W3C//DTD SVG 20010904//EN"
 "http://www.w3.org/TR/2001/REC-SVG-20010904/DTD/svg10.dtd">
<svg version="1.0" xmlns="http://www.w3.org/2000/svg"
 width="192.000000pt" height="192.000000pt" viewBox="0 0 192.000000 192.000000"
 preserveAspectRatio="xMidYMid meet">
<metadata>
Created by potrace 1.11, written by Peter Selinger 2001-2013
</metadata>
<g transform="translate(0.000000,192.000000) scale(0.100000,-0.100000)"
fill="#000000" stroke="none">
<path d="M0 960 l0 -960 960 0 960 0 0 960 0 960 -960 0 -960 0 0 -960z m1095
425 c82 -22 147 -60 204 -120 49 -52 96 -129 87 -144 -9 -14 -240 -95 -243
-85 -12 36 -48 74 -85 93 -55 26 -107 27 -156 2 -151 -78 -145 -280 10 -346
87 -36 168 0 234 104 4 5 244 -90 249 -99 9 -15 -87 -137 -140 -177 -92 -69
-151 -88 -285 -88 -112 0 -117 1 -193 37 -95 46 -164 113 -209 206 -32 65 -33
71 -33 192 0 109 3 131 23 175 94 203 317 307 537 250z"/>
</g>
</svg>
