<svg xmlns="http://www.w3.org/2000/svg" xmlns:xlink="http://www.w3.org/1999/xlink" width="79.999" height="20.411" viewBox="0 0 79.999 20.411">
  <defs>
    <clipPath id="clip-path">
      <rect id="Rectangle_21" data-name="Rectangle 21" width="23.7" height="20" transform="matrix(1, -0.017, 0.017, 1, 283.827, 597.159)" fill="#222"/>
    </clipPath>
  </defs>
  <g id="Group_38" data-name="Group 38" transform="translate(-105.666 -172.745)">
    <path id="Path_128" data-name="Path 128" d="M303.592,466.333l2.173-5.667,1.909,5.667,5.992.267-4.477,3.733,1.58,6-5-3.333-4.938,3.333,1.58-6-4.741-3.733Z" transform="translate(-192 -287)" fill="#222"/>
    <path id="Path_130" data-name="Path 130" d="M303.592,466.333l2.173-5.667,1.909,5.667,5.992.267-4.477,3.733,1.58,6-5-3.333-4.938,3.333,1.58-6-4.741-3.733Z" transform="translate(-160 -287)" fill="#e2dfe3"/>
    <path id="Path_132" data-name="Path 132" d="M303.592,466.333l2.173-5.667,1.909,5.667,5.992.267-4.477,3.733,1.58,6-5-3.333-4.938,3.333,1.58-6-4.741-3.733Z" transform="translate(-144.001 -287)" fill="#e2dfe3"/>
    <path id="Path_133" data-name="Path 133" d="M303.592,466.333l2.173-5.667,1.909,5.667,5.992.267-4.477,3.733,1.58,6-5-3.333-4.938,3.333,1.58-6-4.741-3.733Z" transform="translate(-128.001 -287)" fill="#e2dfe3"/>
    <path id="Path_131" data-name="Path 131" d="M303.592,466.333l2.173-5.667,1.909,5.667,5.992.267-4.477,3.733,1.58,6-5-3.333-4.938,3.333,1.58-6-4.741-3.733Z" transform="translate(-176 -287)" fill="#e2dfe3"/>
    <g id="Mask_Group_21" data-name="Mask Group 21" transform="translate(-176 -424)" clip-path="url(#clip-path)">
      <path id="Path_129" data-name="Path 129" d="M303.592,466.333l2.173-5.667,1.909,5.667,5.992.267-4.477,3.733,1.58,6-5-3.333-4.938,3.333,1.58-6-4.741-3.733Z" transform="translate(0 137)" fill="#222"/>
    </g>
  </g>
</svg>
