<svg xmlns="http://www.w3.org/2000/svg" xmlns:xlink="http://www.w3.org/1999/xlink" width="79.999" height="20.425" viewBox="0 0 79.999 20.425">
  <defs>
    <clipPath id="clip-path">
      <rect id="Rectangle_22" data-name="Rectangle 22" width="24.5" height="20" transform="matrix(1, -0.017, 0.017, 1, 283.827, 597.159)" fill="#222"/>
    </clipPath>
  </defs>
  <g id="Group_39" data-name="Group 39" transform="translate(-105.666 -192.731)">
    <path id="Path_134" data-name="Path 134" d="M303.592,466.333l2.173-5.667,1.909,5.667,5.992.267-4.477,3.733,1.58,6-5-3.333-4.938,3.333,1.58-6-4.741-3.733Z" transform="translate(-192 -267)" fill="#222"/>
    <path id="Path_137" data-name="Path 137" d="M303.592,466.333l2.173-5.667,1.909,5.667,5.992.267-4.477,3.733,1.58,6-5-3.333-4.938,3.333,1.58-6-4.741-3.733Z" transform="translate(-160 -267)" fill="#e2dfe3"/>
    <path id="Path_138" data-name="Path 138" d="M303.592,466.333l2.173-5.667,1.909,5.667,5.992.267-4.477,3.733,1.58,6-5-3.333-4.938,3.333,1.58-6-4.741-3.733Z" transform="translate(-144.001 -267)" fill="#e2dfe3"/>
    <path id="Path_139" data-name="Path 139" d="M303.592,466.333l2.173-5.667,1.909,5.667,5.992.267-4.477,3.733,1.58,6-5-3.333-4.938,3.333,1.58-6-4.741-3.733Z" transform="translate(-128.001 -267)" fill="#e2dfe3"/>
    <path id="Path_135" data-name="Path 135" d="M303.592,466.333l2.173-5.667,1.909,5.667,5.992.267-4.477,3.733,1.58,6-5-3.333-4.938,3.333,1.58-6-4.741-3.733Z" transform="translate(-176 -267)" fill="#e2dfe3"/>
    <g id="Mask_Group_22" data-name="Mask Group 22" transform="translate(-176 -404)" clip-path="url(#clip-path)">
      <path id="Path_136" data-name="Path 136" d="M303.592,466.333l2.173-5.667,1.909,5.667,5.992.267-4.477,3.733,1.58,6-5-3.333-4.938,3.333,1.58-6-4.741-3.733Z" transform="translate(0 137)" fill="#222"/>
    </g>
  </g>
</svg>
