<svg xmlns="http://www.w3.org/2000/svg" xmlns:xlink="http://www.w3.org/1999/xlink" width="78.999" height="20.329" viewBox="0 0 78.999 20.329">
  <defs>
    <clipPath id="clip-path">
      <rect id="Rectangle_4" data-name="Rectangle 4" width="19" height="20" transform="matrix(1, -0.017, 0.017, 1, 284.827, 597.159)" fill="#222"/>
    </clipPath>
  </defs>
  <g id="Group_43" data-name="Group 43" transform="translate(-212.666 -68.827)">
    <path id="Path_21" data-name="Path 21" d="M303.592,466.333l2.173-5.667,1.909,5.667,5.992.267-4.477,3.733,1.58,6-5-3.333-4.938,3.333,1.58-6-4.741-3.733Z" transform="translate(-85 -391)" fill="#222"/>
    <path id="Path_22" data-name="Path 22" d="M303.592,466.333l2.173-5.667,1.909,5.667,5.992.267-4.477,3.733,1.58,6-5-3.333-4.938,3.333,1.58-6-4.741-3.733Z" transform="translate(-69 -391)" fill="#222"/>
    <path id="Path_23" data-name="Path 23" d="M303.592,466.333l2.173-5.667,1.909,5.667,5.992.267-4.477,3.733,1.58,6-5-3.333-4.938,3.333,1.58-6-4.741-3.733Z" transform="translate(-38.001 -391)" fill="#e2dfe3"/>
    <path id="Path_24" data-name="Path 24" d="M303.592,466.333l2.173-5.667,1.909,5.667,5.992.267-4.477,3.733,1.58,6-5-3.333-4.938,3.333,1.58-6-4.741-3.733Z" transform="translate(-22.001 -391)" fill="#e2dfe3"/>
    <path id="Path_25" data-name="Path 25" d="M303.592,466.333l2.173-5.667,1.909,5.667,5.992.267-4.477,3.733,1.58,6-5-3.333-4.938,3.333,1.58-6-4.741-3.733Z" transform="translate(-54 -391)" fill="#e2dfe3"/>
    <g id="Mask_Group_4" data-name="Mask Group 4" transform="translate(-54 -528)" clip-path="url(#clip-path)">
      <path id="Path_26" data-name="Path 26" d="M303.592,466.333l2.173-5.667,1.909,5.667,5.992.267-4.477,3.733,1.58,6-5-3.333-4.938,3.333,1.58-6-4.741-3.733Z" transform="translate(0 137)" fill="#222"/>
    </g>
  </g>
</svg>
