<svg xmlns="http://www.w3.org/2000/svg"  viewBox="0 0 128 128" width="512px" height="512px"><path fill="#fff" d="M64 9A55 55 0 1 0 64 119A55 55 0 1 0 64 9Z"/><path fill="#444b54" d="M64,122C32,122,6,96,6,64S32,6,64,6s58,26,58,58S96,122,64,122z M64,12c-28.7,0-52,23.3-52,52s23.3,52,52,52s52-23.3,52-52S92.7,12,64,12z"/><path fill="#444b54" d="M64,107c-23.7,0-43-19.3-43-43s19.3-43,43-43s43,19.3,43,43S87.7,107,64,107z M64,27c-20.4,0-37,16.6-37,37s16.6,37,37,37s37-16.6,37-37S84.4,27,64,27z"/><path fill="#444b54" d="M64,92c-15.4,0-28-12.6-28-28s12.6-28,28-28s28,12.6,28,28S79.4,92,64,92z M64,42c-12.1,0-22,9.9-22,22s9.9,22,22,22s22-9.9,22-22S76.1,42,64,42z"/><path fill="#f2b630" d="M64 56A8 8 0 1 0 64 72A8 8 0 1 0 64 56Z"/></svg>