<svg xmlns="http://www.w3.org/2000/svg"  viewBox="0 0 128 128" width="512px" height="512px"><path fill="#fff" d="M64 4A12 12 0 1 0 64 28 12 12 0 1 0 64 4zM64 118L64 118c0 3.3-2.7 6-6 6h0c-3.3 0-6-2.7-6-6v-3l0-67H17c-2.8 0-5-2.2-5-5v0c0-2.8 2.2-5 5-5h94c2.8 0 5 2.2 5 5v0c0 2.8-2.2 5-5 5H75.9l-.1 69.7c0 3.3-2.7 6-6 6h0c-3.3 0-6-2.7-6-6L64 76.3 64 118z"/><path fill="#444b54" d="M64 31c-8.3 0-15-6.7-15-15S55.7 1 64 1s15 6.7 15 15S72.3 31 64 31zM64 7c-5 0-9 4-9 9s4 9 9 9 9-4 9-9S69 7 64 7zM69.9 127c-4.9 0-8.9-4-8.9-8.9 0-1.7 1.3-3 3-3s3 1.3 3 3c0 1.6 1.3 2.9 2.9 2.9s2.9-1.3 2.9-2.9v-10c0-1.7 1.3-3 3-3s3 1.3 3 3v10C78.9 123 74.9 127 69.9 127zM75.9 87.1C75.9 87.1 75.9 87.1 75.9 87.1c-1.7 0-3-1.3-3-3L72.9 48c0-1.7 1.3-3 3-3h6c1.7 0 3 1.3 3 3s-1.3 3-3 3h-3l-.1 33.1C78.9 85.7 77.5 87.1 75.9 87.1z"/><path fill="#444b54" d="M111 51h-6c-1.7 0-3-1.3-3-3s1.3-3 3-3h6c1.1 0 2-.9 2-2s-.9-2-2-2H49c-1.7 0-3-1.3-3-3s1.3-3 3-3h62c4.4 0 8 3.6 8 8S115.4 51 111 51zM52 61c-1.7 0-3-1.3-3-3v-7H17c-4.4 0-8-3.6-8-8s3.6-8 8-8h6c1.7 0 3 1.3 3 3s-1.3 3-3 3h-6c-1.1 0-2 .9-2 2s.9 2 2 2h35c1.7 0 3 1.3 3 3v10C55 59.7 53.7 61 52 61zM58 127c-5 0-9-4-9-9l-.1-35.9c0-1.7 1.3-3 3-3 0 0 0 0 0 0 1.7 0 3 1.3 3 3L55 118c0 1.7 1.3 3 3 3s3-1.3 3-3l0-41.7c0-1.7 1.3-3 3-3s3 1.3 3 3l0 41.7C67 123 63 127 58 127z"/><path fill="#f2b630" d="M35.9 34.1A4 4 0 1 0 35.9 42.1 4 4 0 1 0 35.9 34.1zM51.9 66.1A4 4 0 1 0 51.9 74.1 4 4 0 1 0 51.9 66.1zM75.9 92.1A4 4 0 1 0 75.9 100.1 4 4 0 1 0 75.9 92.1zM93.9 44.1A4 4 0 1 0 93.9 52.1 4 4 0 1 0 93.9 44.1z"/></svg>