<svg xmlns="http://www.w3.org/2000/svg"  viewBox="0 0 128 128" width="256px" height="256px"><path fill="#fff" d="M121.8,80.9c-2.8-2.7-7.2-2.4-9.9,0.3C97,96.1,84.6,100.9,69.5,99c-6.2-0.8-9.3-2.6-14.9-5.1c-0.5-0.2-1.8-0.9-3.2-1.8c-4-2.3-4-8.1,0-10.4L66.4,73c3.7-2.1,5.3-6.8,3.4-10.6c-2.1-4.2-7.2-5.7-11.2-3.4L24,79H14l0-3l0,0v0H1l0,40h13v0l0,0l0-7c0,0,24,10,44.4,10c27.4,0,50.1-13.8,63.4-27.9C124.5,88.2,124.6,83.6,121.8,80.9z"/><path fill="#444b54" d="M58.4,122c-20.8,0-44.6-9.8-45.6-10.2c-1.5-0.6-2.3-2.4-1.6-3.9s2.4-2.3,3.9-1.6c0.2,0.1,23.7,9.8,43.2,9.8c33.2,0,55.3-20.7,61.3-27c1.6-1.7,1.6-4.4,0.1-5.9c-1.6-1.5-4.1-1.4-5.7,0.2C98.8,98.5,85.4,104,69.1,102c-5.8-0.7-9-2.2-13.5-4.3c-0.7-0.3-1.5-0.7-2.3-1.1c-0.4-0.2-1.1-0.5-3.5-1.9c-2.8-1.6-4.5-4.5-4.5-7.8c0-3.3,1.7-6.2,4.5-7.8l15.1-8.7c2.4-1.4,3.4-4.3,2.2-6.7c-0.6-1.3-1.7-2.2-3-2.6c-1.3-0.4-2.7-0.2-4,0.5l-34.6,20c-1.4,0.8-3.3,0.3-4.1-1.1c-0.8-1.4-0.3-3.3,1.1-4.1l34.6-20c2.6-1.5,5.8-1.9,8.7-1c2.9,0.9,5.3,2.9,6.7,5.7c2.6,5.2,0.5,11.6-4.6,14.5l-15.1,8.7c-1.4,0.8-1.5,2.1-1.5,2.6c0,0.5,0.1,1.8,1.5,2.6c2.1,1.2,2.8,1.6,3,1.6c0.8,0.4,1.6,0.7,2.3,1.1c4.3,2,6.9,3.2,11.7,3.8c14.4,1.8,26-3.1,39.9-17c4-3.9,10.2-4.1,14.1-0.3c3.9,3.7,4,10.3,0.1,14.4C106.9,111.2,82.4,122,58.4,122z"/><path fill="#444b54" d="M14,119H4c-1.7,0-3-1.3-3-3s1.3-3,3-3h7V79H4c-1.7,0-3-1.3-3-3s1.3-3,3-3h10c1.7,0,3,1.3,3,3v40C17,117.7,15.7,119,14,119z"/><path fill="#fcca3d" d="M76.7,47L101,6.8c0.8-1.3,2.8-0.5,2.5,1l-6.3,31.6h13c1.1,0,1.7,1.3,1.1,2.1l-24.9,34c-0.9,1.2-2.8,0.3-2.4-1.1l6.3-25.4H77.8C76.8,49.1,76.1,47.9,76.7,47z"/><path fill="#f2af08" d="M86.7,63.5l3.6-14.4l2.8,0c1.6,0,2.6,1.8,1.7,3.2L86.7,63.5z"/></svg>