<?xml version="1.0" standalone="no"?>
<!DOCTYPE svg PUBLIC "-//W3C//DTD SVG 20010904//EN"
 "http://www.w3.org/TR/2001/REC-SVG-20010904/DTD/svg10.dtd">
<svg version="1.0" xmlns="http://www.w3.org/2000/svg"
 width="884.000000pt" height="850.000000pt" viewBox="0 0 884.000000 850.000000"
 preserveAspectRatio="xMidYMid meet">

<g transform="translate(0.000000,850.000000) scale(0.100000,-0.100000)"
fill="#000000" stroke="none">
<path d="M4006 8254 c-1256 -119 -2403 -855 -3060 -1962 -367 -620 -549 -1286
-549 -2012 -1 -916 297 -1759 879 -2490 138 -173 451 -486 621 -622 530 -422
1106 -690 1753 -817 266 -52 424 -66 745 -65 293 0 434 11 645 49 47 9 108 20
135 25 89 16 323 79 446 120 708 238 1286 623 1784 1190 468 534 783 1175 915
1864 89 465 89 1041 0 1495 -130 659 -414 1252 -863 1801 -109 133 -428 445
-577 564 -622 499 -1351 793 -2130 861 -209 18 -550 18 -744 -1z m708 -245
c1028 -77 1964 -579 2629 -1407 228 -284 418 -618 554 -972 293 -764 323
-1681 82 -2465 -388 -1261 -1391 -2211 -2669 -2528 -857 -213 -1769 -121
-2560 260 -436 210 -787 470 -1131 838 -366 394 -667 929 -824 1464 -362 1241
-78 2573 754 3541 348 403 818 749 1323 971 342 150 813 269 1183 298 161 12
498 13 659 0z"/>
<path d="M5080 6553 c-32 -41 -22 -93 43 -225 88 -180 208 -371 314 -500 35
-43 63 -80 63 -82 0 -3 -22 -17 -48 -30 -117 -59 -191 -141 -266 -293 -93
-188 -121 -333 -120 -623 0 -212 14 -315 61 -464 57 -182 168 -339 292 -413
42 -26 55 -28 146 -28 90 0 104 3 145 27 166 98 296 338 342 628 17 110 17
431 0 530 -7 41 -27 122 -43 178 -17 57 -28 106 -25 109 2 3 42 -9 88 -26 119
-44 234 -69 385 -83 287 -26 479 30 435 127 -19 40 -61 53 -140 42 -89 -12
-381 -2 -462 17 -336 76 -663 345 -907 745 -23 38 -74 129 -113 203 -77 144
-111 188 -146 188 -13 0 -32 -12 -44 -27z"/>
<path d="M3606 6495 c-13 -14 -52 -83 -87 -153 -35 -70 -89 -165 -120 -212
-256 -380 -730 -642 -1319 -730 -80 -12 -161 -29 -180 -38 -31 -15 -35 -22
-38 -59 -4 -59 26 -78 122 -76 122 2 431 68 607 129 56 19 103 33 105 31 2 -2
-9 -48 -26 -101 -58 -189 -65 -242 -64 -476 0 -197 3 -225 27 -329 58 -245
150 -427 261 -514 105 -82 242 -102 346 -50 143 71 278 289 340 546 14 58 22
135 26 267 9 252 -4 373 -55 529 -60 182 -99 250 -209 360 l-93 94 78 81 c191
197 328 406 382 580 26 86 26 92 -4 121 -31 32 -70 32 -99 0z"/>
<path d="M5189 3112 c-107 -77 -233 -168 -280 -203 -48 -35 -130 -95 -183
-134 -54 -38 -121 -88 -150 -110 -29 -23 -85 -63 -124 -90 -63 -42 -75 -47
-95 -38 -35 16 -175 124 -388 299 -308 253 -450 364 -466 364 -21 0 -235 -180
-668 -562 -333 -293 -329 -289 -321 -325 7 -32 66 -93 89 -93 33 1 105 58 527
419 172 148 338 281 366 293 18 8 29 7 46 -4 22 -15 154 -120 529 -424 96 -77
200 -159 231 -183 l57 -43 63 43 c105 71 468 331 722 517 199 146 242 173 256
164 10 -6 170 -140 356 -297 387 -328 527 -442 560 -457 33 -15 79 6 105 48
37 61 54 41 -326 373 -399 349 -678 581 -699 581 -8 0 -101 -62 -207 -138z"/>
</g>
</svg>
