<svg xmlns="http://www.w3.org/2000/svg" width="22.396" height="25.792" viewBox="0 0 22.396 25.792">
  <g id="shopping-bag_2_" data-name="shopping-bag (2)" transform="translate(-33.689)">
    <g id="Group_3" data-name="Group 3" transform="translate(33.689 6.441)">
      <g id="Group_2" data-name="Group 2">
        <path id="Path_6" data-name="Path 6" d="M56.055,146.132l-1.334-17.579a.806.806,0,0,0-.8-.745H35.841a.806.806,0,0,0-.8.746l-1.346,17.738a.806.806,0,0,0,.8.867H55.279a.807.807,0,0,0,.806-.807A.8.8,0,0,0,56.055,146.132Zm-20.69-.585,1.224-16.126h16.58l1.224,16.126Z" transform="translate(-33.689 -127.808)" fill="#873dc8"/>
      </g>
    </g>
    <g id="Group_5" data-name="Group 5" transform="translate(38.429)">
      <g id="Group_4" data-name="Group 4">
        <path id="Path_7" data-name="Path 7" d="M134.185,0a6.459,6.459,0,0,0-6.45,6.452V9.666a.806.806,0,1,0,1.613,0V6.452a4.838,4.838,0,1,1,9.675,0V9.666a.806.806,0,0,0,1.613,0V6.452A6.459,6.459,0,0,0,134.185,0Z" transform="translate(-127.735)" fill="#873dc8"/>
      </g>
    </g>
  </g>
</svg>
