<svg xmlns="http://www.w3.org/2000/svg" width="25.911" height="25.702" viewBox="0 0 25.911 25.702">
  <g id="Group_1" data-name="Group 1" transform="translate(-569.737 -292)">
    <path id="Subtraction_1" data-name="Subtraction 1" d="M25.293,19.831h0c-.017,0-2.179-.006-6.424-.006-6.877,0-17.1.005-18.24.006H.606a.521.521,0,0,1-.283-.143.859.859,0,0,1-.206-.306A1.75,1.75,0,0,1,0,18.807C-.013,18.768,2.132,1.426,2.223.688v0a1.193,1.193,0,0,1,.09-.309A.719.719,0,0,1,2.465.151.451.451,0,0,1,2.724.025C2.851.008,4.7,0,8.21,0,14.2,0,23.059.024,23.147.025a.481.481,0,0,1,.3.142.834.834,0,0,1,.2.333,1.966,1.966,0,0,1,.093.646c0,.066,2.071,16.98,2.159,17.7v0a1.333,1.333,0,0,1,.009.268.9.9,0,0,1-.161.487A.617.617,0,0,1,25.293,19.831ZM3.656,1.586,1.665,18.293H24.309L22.242,1.586H3.656Z" transform="translate(569.737 297.87)" fill="#873dc8"/>
    <path id="Subtraction_3" data-name="Subtraction 3" d="M1.607,5.886H0A6.614,6.614,0,0,1,1.092,2.931,6.668,6.668,0,0,1,4.017.522a6.639,6.639,0,0,1,6.3.613A6.667,6.667,0,0,1,12.731,4.06a6.6,6.6,0,0,1,.48,1.826H11.6a5.056,5.056,0,0,0-10,0Z" transform="translate(576.1 292)" fill="#873dc8"/>
  </g>
</svg>
