<svg xmlns="http://www.w3.org/2000/svg" xmlns:xlink="http://www.w3.org/1999/xlink" width="510.8" height="511.004" viewBox="0 0 510.8 511.004">
  <defs>
    <linearGradient id="linear-gradient" x1="-0.097" y1="0.976" x2="0.5" y2="1" gradientUnits="objectBoundingBox">
      <stop offset="0" stop-color="#ad30f1"/>
      <stop offset="1" stop-color="#7d72fb"/>
    </linearGradient>
  </defs>
  <g id="Chow_s-Choice" transform="translate(-24.6 535.604)">
    <path id="Path_2" data-name="Path 2" d="M254.5-535.3C171-526.4,98.7-479.2,57-406.7c-14.8,25.8-24.7,54-30.3,85.7-1.9,10.9-2.1,16.2-2.1,41s.2,30.1,2.1,41c9.4,53.9,32,98.7,69.3,137.4,38.3,39.7,86.6,65,143,74.9,10.9,1.9,16.2,2.1,41,2.1,31.3,0,40.7-1,65.3-7.3,88.1-22.8,160-94.7,182.8-182.8,6.3-24.6,7.3-34,7.3-65.3,0-24.8-.2-30.1-2.1-41-9.9-56.4-35.2-104.7-74.9-143-38.6-37.2-83.7-60-136.8-69.1-9.7-1.7-17.2-2.2-37.6-2.4C270-535.7,256.7-535.6,254.5-535.3Zm35.9,169.8a52.781,52.781,0,0,1,10,4.5c2.5,1.7,30.7,25,62.5,51.9,59.5,50.4,61.4,52.2,65.8,63.1,2.6,6.6,2.4,19.8-.6,27-9.3,22.5-35,32.1-55.5,20.7-3.1-1.8-25-19.6-48.7-39.7-23.8-20.1-43.5-36.5-43.9-36.5-.5,0-20.5,16.8-44.6,37.3-51,43.4-51.4,43.7-66.4,43.7-9.1,0-9.9-.2-17.3-3.9-23.7-11.8-29.8-41.5-12.5-61,5.4-6.2,114.8-99.4,120.6-102.9A39.043,39.043,0,0,1,290.4-365.5Z" fill="url(#linear-gradient)"/>
  </g>
</svg>
