<?xml version="1.0" standalone="no"?>
<!DOCTYPE svg PUBLIC "-//W3C//DTD SVG 20010904//EN"
 "http://www.w3.org/TR/2001/REC-SVG-20010904/DTD/svg10.dtd">
<svg version="1.0" xmlns="http://www.w3.org/2000/svg"
 width="511.000000pt" height="500.000000pt" viewBox="0 0 511.000000 500.000000"
 preserveAspectRatio="xMidYMid meet">

<g transform="translate(0.000000,500.000000) scale(0.100000,-0.100000)"
fill="#000000" stroke="none">
<path d="M2470 4781 l0 -190 -42 -5 c-24 -3 -70 -8 -103 -11 -151 -15 -375
-76 -545 -148 -126 -53 -328 -166 -338 -189 -2 -5 -8 -8 -14 -8 -9 0 -71 -45
-104 -75 -6 -5 -29 -23 -50 -40 -55 -43 -185 -176 -253 -259 -177 -216 -327
-520 -390 -786 -23 -95 -46 -260 -57 -392 l-6 -88 -239 0 -239 0 0 -85 0 -85
245 0 245 0 4 -22 c3 -13 10 -59 16 -103 75 -530 401 -1040 858 -1344 183
-122 430 -233 618 -276 103 -24 296 -55 347 -55 l47 0 0 -295 0 -295 85 0 85
0 2 293 3 292 40 2 c146 10 361 52 503 99 599 201 1067 669 1261 1261 44 133
77 275 87 375 l7 68 263 0 264 0 0 85 0 85 -258 0 -259 0 -6 123 c-40 780
-547 1471 -1283 1748 -168 63 -352 104 -556 124 l-68 7 0 189 0 189 -85 0 -85
0 0 -189z m0 -564 l0 -193 -92 -13 c-506 -67 -926 -387 -1129 -861 -63 -147
-109 -362 -109 -507 l0 -53 -200 0 -201 0 5 33 c3 17 8 64 11 102 37 421 268
910 558 1182 212 198 524 367 817 444 93 24 269 57 313 58 l27 1 0 -193z m314
177 c348 -54 654 -187 934 -407 335 -262 588 -736 647 -1210 8 -67 15 -136 15
-154 l0 -33 -194 0 -193 0 -7 91 c-15 200 -63 382 -141 541 -221 447 -641 742
-1135 796 l-65 7 -3 193 c-3 223 -20 202 142 176z m-229 -904 l85 0 0 199 c0
110 3 202 8 204 9 6 151 -17 227 -37 218 -58 436 -179 594 -331 212 -204 368
-545 395 -867 l5 -68 -214 0 -215 0 0 -85 0 -85 205 0 205 0 -6 -27 c-33 -150
-100 -336 -150 -420 -10 -17 -32 -53 -48 -80 -44 -73 -161 -212 -219 -262
-205 -172 -468 -287 -744 -325 l-43 -6 0 205 0 205 -85 0 -85 0 0 -203 0 -204
-62 8 c-172 23 -430 121 -576 220 -230 157 -401 384 -496 660 -20 61 -56 203
-56 225 0 2 87 4 193 4 l192 0 -3 85 -3 85 -201 0 -201 0 7 83 c30 358 226
734 486 934 174 134 431 245 639 277 l76 12 3 -203 2 -203 85 0z m-1400 -1112
c67 -424 344 -818 718 -1022 148 -80 343 -146 477 -161 30 -3 70 -8 88 -11
l32 -5 0 -196 0 -196 -57 6 c-109 12 -268 48 -399 92 -228 75 -430 186 -627
342 -89 70 -86 68 -173 170 -213 248 -382 601 -434 903 -6 36 -13 77 -16 93
l-6 27 195 0 195 0 7 -42z m3210 20 c-3 -13 -12 -57 -19 -100 -59 -314 -205
-623 -418 -885 -129 -159 -337 -315 -573 -431 -186 -92 -455 -171 -637 -187
l-78 -7 0 195 0 195 68 7 c532 54 1000 414 1187 912 31 82 75 248 75 283 0 15
3 30 7 33 3 4 93 7 200 7 l193 0 -5 -22z"/>
</g>
</svg>
