<?xml version="1.0" standalone="no"?>
<!DOCTYPE svg PUBLIC "-//W3C//DTD SVG 20010904//EN"
 "http://www.w3.org/TR/2001/REC-SVG-20010904/DTD/svg10.dtd">
<svg version="1.0" xmlns="http://www.w3.org/2000/svg"
 width="512.000000pt" height="512.000000pt" viewBox="0 0 512.000000 512.000000"
 preserveAspectRatio="xMidYMid meet">

<g transform="translate(0.000000,512.000000) scale(0.100000,-0.100000)"
fill="#000000" stroke="none">
<path d="M2390 4953 c-580 -45 -1119 -292 -1525 -698 -193 -193 -332 -389
-456 -640 -168 -343 -243 -667 -243 -1050 0 -259 26 -446 95 -685 84 -290 258
-616 452 -848 83 -98 252 -265 342 -337 464 -373 1073 -566 1653 -525 490 34
911 190 1302 483 109 81 302 266 397 379 195 234 367 557 452 851 68 234 95
424 95 677 0 193 -11 307 -45 475 -126 623 -497 1173 -1034 1530 -117 78 -359
199 -498 250 -299 109 -676 162 -987 138z m435 -168 c577 -67 1106 -362 1485
-825 175 -214 330 -515 409 -795 62 -222 75 -323 75 -605 0 -220 -3 -272 -22
-375 -88 -480 -303 -888 -643 -1222 -126 -124 -200 -184 -344 -279 -258 -170
-541 -281 -865 -339 -146 -26 -473 -32 -638 -11 -705 90 -1326 507 -1674 1123
-206 366 -297 739 -285 1168 10 352 79 629 237 945 169 338 447 650 766 860
441 291 971 416 1499 355z"/>
<path d="M1865 3655 c-30 -29 -32 -60 -6 -100 11 -16 80 -102 154 -190 l135
-160 -327 -5 c-179 -3 -333 -9 -343 -13 -9 -5 -22 -22 -28 -38 -16 -37 1 -82
36 -98 17 -8 151 -11 434 -11 283 0 417 3 434 11 34 16 52 62 38 95 -12 25
-404 500 -432 521 -25 20 -69 15 -95 -12z"/>
<path d="M3165 3668 c-24 -12 -414 -478 -434 -519 -18 -35 -1 -81 35 -98 17
-8 151 -11 434 -11 283 0 417 3 434 11 35 16 52 61 36 98 -6 16 -19 33 -28 38
-10 4 -164 10 -343 13 l-327 5 149 178 c81 97 151 187 154 198 10 29 -12 74
-41 88 -30 13 -42 13 -69 -1z"/>
<path d="M1611 2362 c-103 -109 -183 -380 -166 -562 14 -148 71 -314 119 -345
25 -17 30 -16 119 9 260 75 534 109 877 109 343 0 617 -34 877 -109 89 -25 94
-26 119 -9 31 20 67 95 95 201 28 102 30 287 6 388 -34 139 -114 298 -169 339
-26 19 -26 19 -130 -7 -254 -64 -485 -90 -798 -90 -311 0 -560 28 -798 90 -51
13 -97 24 -104 24 -6 0 -27 -17 -47 -38z m241 -166 c250 -51 369 -61 708 -61
247 0 344 4 450 18 123 17 363 61 395 73 18 7 70 -104 95 -202 24 -94 26 -219
5 -312 -24 -102 -16 -98 -141 -69 -276 66 -474 87 -804 87 -330 0 -528 -21
-804 -87 -125 -29 -117 -33 -141 69 -21 94 -19 218 5 314 25 98 77 207 95 200
7 -2 69 -16 137 -30z"/>
</g>
</svg>
