<?xml version="1.0" standalone="no"?>
<!DOCTYPE svg PUBLIC "-//W3C//DTD SVG 20010904//EN"
 "http://www.w3.org/TR/2001/REC-SVG-20010904/DTD/svg10.dtd">
<svg version="1.0" xmlns="http://www.w3.org/2000/svg"
 width="614.000000pt" height="598.000000pt" viewBox="0 0 614.000000 598.000000"
 preserveAspectRatio="xMidYMid meet">

<g transform="translate(0.000000,598.000000) scale(0.100000,-0.100000)"
fill="#000000" stroke="none">
<path d="M4932 5908 c-7 -7 -12 -21 -12 -33 0 -43 12 -45 268 -45 147 0 242
-4 240 -9 -1 -6 -117 -118 -255 -251 -261 -250 -281 -275 -234 -300 12 -6 135
-10 330 -10 l311 0 15 24 c13 19 14 29 5 45 -10 20 -18 21 -261 21 -138 0
-249 4 -247 8 2 5 115 115 251 246 136 131 252 246 257 256 6 11 4 24 -6 38
-15 22 -19 22 -333 22 -233 0 -320 -3 -329 -12z"/>
<path d="M2895 5674 c-987 -82 -1843 -655 -2276 -1525 -337 -676 -377 -1451
-113 -2164 270 -728 867 -1326 1599 -1605 638 -243 1364 -243 1997 -1 890 340
1550 1120 1723 2034 40 214 49 310 49 527 0 225 -10 322 -54 540 -209 1038
-1015 1868 -2060 2121 -209 51 -362 70 -600 73 -118 2 -237 2 -265 0z m580
-198 c450 -68 850 -236 1215 -510 126 -95 333 -297 437 -426 254 -317 436
-693 513 -1062 46 -221 54 -306 54 -548 0 -297 -27 -481 -110 -746 -278 -897
-1038 -1579 -1964 -1763 -196 -39 -320 -51 -524 -51 -886 0 -1715 456 -2190
1205 -195 308 -311 627 -373 1025 -25 160 -24 510 0 670 76 487 236 866 525
1240 79 102 319 345 417 422 414 325 846 497 1415 562 78 9 490 -3 585 -18z"/>
<path d="M3776 5014 c-19 -18 -21 -45 -4 -62 9 -9 81 -12 261 -12 137 0 247
-3 245 -7 -1 -5 -111 -111 -243 -237 -132 -126 -248 -239 -257 -250 -22 -26
-22 -40 -2 -60 13 -14 58 -16 333 -16 233 0 320 3 329 12 16 16 15 55 0 65 -7
4 -125 10 -262 13 l-248 5 261 249 c147 141 261 257 261 267 0 10 -7 25 -16
33 -13 14 -57 16 -329 16 -272 0 -316 -2 -329 -16z"/>
<path d="M1263 3588 c12 -144 65 -298 145 -415 77 -112 227 -235 347 -281 55
-22 169 -42 240 -42 71 0 185 20 240 42 120 47 270 169 348 282 80 118 147
320 147 449 l0 47 -89 0 -88 0 -6 -77 c-15 -195 -125 -384 -281 -485 -163
-105 -379 -105 -542 0 -154 100 -262 284 -282 482 l-7 75 -89 3 -89 3 6 -83z"/>
<path d="M3480 3631 c0 -73 31 -216 66 -301 198 -489 769 -635 1136 -291 44
41 98 101 119 133 81 119 134 272 146 416 l6 83 -89 -3 -89 -3 -7 -70 c-10
-99 -24 -149 -68 -240 -46 -95 -130 -193 -214 -247 -163 -105 -379 -105 -542
0 -159 103 -284 331 -284 516 l0 46 -90 0 -90 0 0 -39z"/>
<path d="M2925 2165 c-103 -17 -267 -66 -340 -102 -207 -103 -367 -285 -410
-464 -46 -196 9 -394 151 -548 260 -281 729 -380 1149 -244 261 85 456 260
531 479 23 66 28 95 27 179 0 86 -4 111 -30 180 -38 102 -71 154 -147 234
-133 139 -293 223 -513 271 -127 28 -301 34 -418 15z m440 -194 c174 -47 340
-152 422 -266 174 -244 67 -535 -252 -690 -156 -76 -222 -90 -430 -90 -208 0
-274 14 -430 90 -258 125 -382 342 -319 556 19 64 90 174 141 220 99 87 248
159 393 190 119 26 360 21 475 -10z"/>
</g>
</svg>
