<svg xmlns="http://www.w3.org/2000/svg" width="405" height="78" viewBox="0 0 405 78">
  <g id="Group_2" data-name="Group 2" transform="translate(-737.5 -252)">
    <g id="Group_1" data-name="Group 1" transform="translate(-140 -195)">
      <path id="Polygon_7" data-name="Polygon 7" d="M40.5,0,51.03,28.443,81,29.793,57.538,48.723,65.53,78,40.5,61.256,15.47,78l7.992-29.277L0,29.793l29.97-1.351Z" transform="translate(1039.5 447)" fill="#797979"/>
      <path id="Path_3" data-name="Path 3" d="M925,332l-10.5,28.438-29.985,1.344L907.969,380.7l-8,29.3,25.047-16.766Z" transform="translate(155 115)" fill="#ffba00"/>
    </g>
    <path id="Polygon_8" data-name="Polygon 8" d="M40.5,0,51.03,28.443,81,29.793,57.538,48.723,65.53,78,40.5,61.256,15.47,78l7.992-29.277L0,29.793l29.97-1.351Z" transform="translate(737.5 252)" fill="#ffba00"/>
    <path id="Polygon_9" data-name="Polygon 9" d="M40.5,0,51.03,28.443,81,29.793,57.538,48.723,65.53,78,40.5,61.256,15.47,78l7.992-29.277L0,29.793l29.97-1.351Z" transform="translate(818.5 252)" fill="#ffba00"/>
    <path id="Polygon_10" data-name="Polygon 10" d="M40.5,0,51.03,28.443,81,29.793,57.538,48.723,65.53,78,40.5,61.256,15.47,78l7.992-29.277L0,29.793l29.97-1.351Z" transform="translate(980.5 252)" fill="#797979"/>
    <path id="Polygon_11" data-name="Polygon 11" d="M40.5,0,51.03,28.443,81,29.793,57.538,48.723,65.53,78,40.5,61.256,15.47,78l7.992-29.277L0,29.793l29.97-1.351Z" transform="translate(1061.5 252)" fill="#797979"/>
  </g>
</svg>
