<svg xmlns="http://www.w3.org/2000/svg" xmlns:xlink="http://www.w3.org/1999/xlink" width="78.999" height="20.397" viewBox="0 0 78.999 20.397">
  <defs>
    <clipPath id="clip-path">
      <rect id="Rectangle_17" data-name="Rectangle 17" width="22.9" height="20" transform="matrix(1, -0.017, 0.017, 1, 284.827, 597.159)" fill="#222"/>
    </clipPath>
  </defs>
  <g id="Group_46" data-name="Group 46" transform="translate(-212.666 -132.759)">
    <path id="Path_99" data-name="Path 99" d="M303.592,466.333l2.173-5.667,1.909,5.667,5.992.267-4.477,3.733,1.58,6-5-3.333-4.938,3.333,1.58-6-4.741-3.733Z" transform="translate(-85 -327)" fill="#222"/>
    <path id="Path_100" data-name="Path 100" d="M303.592,466.333l2.173-5.667,1.909,5.667,5.992.267-4.477,3.733,1.58,6-5-3.333-4.938,3.333,1.58-6-4.741-3.733Z" transform="translate(-69 -327)" fill="#222"/>
    <path id="Path_103" data-name="Path 103" d="M303.592,466.333l2.173-5.667,1.909,5.667,5.992.267-4.477,3.733,1.58,6-5-3.333-4.938,3.333,1.58-6-4.741-3.733Z" transform="translate(-38.001 -327)" fill="#e2dfe3"/>
    <path id="Path_104" data-name="Path 104" d="M303.592,466.333l2.173-5.667,1.909,5.667,5.992.267-4.477,3.733,1.58,6-5-3.333-4.938,3.333,1.58-6-4.741-3.733Z" transform="translate(-22.001 -327)" fill="#e2dfe3"/>
    <path id="Path_102" data-name="Path 102" d="M303.592,466.333l2.173-5.667,1.909,5.667,5.992.267-4.477,3.733,1.58,6-5-3.333-4.938,3.333,1.58-6-4.741-3.733Z" transform="translate(-54 -327)" fill="#e2dfe3"/>
    <g id="Mask_Group_17" data-name="Mask Group 17" transform="translate(-54 -464)" clip-path="url(#clip-path)">
      <path id="Path_101" data-name="Path 101" d="M303.592,466.333l2.173-5.667,1.909,5.667,5.992.267-4.477,3.733,1.58,6-5-3.333-4.938,3.333,1.58-6-4.741-3.733Z" transform="translate(0 137)" fill="#222"/>
    </g>
  </g>
</svg>
