<svg xmlns="http://www.w3.org/2000/svg" xmlns:xlink="http://www.w3.org/1999/xlink" width="79.999" height="20" viewBox="0 0 79.999 20">
  <defs>
    <clipPath id="clip-path">
      <rect id="Rectangle_7" data-name="Rectangle 7" width="18" height="20" transform="translate(285 597)" fill="#222"/>
    </clipPath>
  </defs>
  <g id="Group_52" data-name="Group 52" transform="translate(-322.666 -53)">
    <path id="Path_39" data-name="Path 39" d="M303.592,466.333l2.173-5.667,1.909,5.667,5.992.267-4.477,3.733,1.58,6-5-3.333-4.938,3.333,1.58-6-4.741-3.733Z" transform="translate(25 -407)" fill="#222"/>
    <path id="Path_40" data-name="Path 40" d="M303.592,466.333l2.173-5.667,1.909,5.667,5.992.267-4.477,3.733,1.58,6-5-3.333-4.938,3.333,1.58-6-4.741-3.733Z" transform="translate(41 -407)" fill="#222"/>
    <path id="Path_41" data-name="Path 41" d="M303.592,466.333l2.173-5.667,1.909,5.667,5.992.267-4.477,3.733,1.58,6-5-3.333-4.938,3.333,1.58-6-4.741-3.733Z" transform="translate(56.999 -407)" fill="#222"/>
    <path id="Path_55" data-name="Path 55" d="M303.592,466.333l2.173-5.667,1.909,5.667,5.992.267-4.477,3.733,1.58,6-5-3.333-4.938,3.333,1.58-6-4.741-3.733Z" transform="translate(88.999 -407)" fill="#e2dfe3"/>
    <path id="Path_42" data-name="Path 42" d="M303.592,466.333l2.173-5.667,1.909,5.667,5.992.267-4.477,3.733,1.58,6-5-3.333-4.938,3.333,1.58-6-4.741-3.733Z" transform="translate(73 -407)" fill="#e2dfe3"/>
    <g id="Mask_Group_7" data-name="Mask Group 7" transform="translate(73 -544)" clip-path="url(#clip-path)">
      <path id="Path_43" data-name="Path 43" d="M303.592,466.333l2.173-5.667,1.909,5.667,5.992.267-4.477,3.733,1.58,6-5-3.333-4.938,3.333,1.58-6-4.741-3.733Z" transform="translate(0 137)" fill="#222"/>
    </g>
  </g>
</svg>
