<svg xmlns="http://www.w3.org/2000/svg" xmlns:xlink="http://www.w3.org/1999/xlink" width="79.999" height="20.276" viewBox="0 0 79.999 20.276">
  <defs>
    <clipPath id="clip-path">
      <rect id="Rectangle_1" data-name="Rectangle 1" width="16" height="20" transform="matrix(1, -0.017, 0.017, 1, 297.825, 596.932)" fill="#ffba00"/>
    </clipPath>
  </defs>
  <g id="Group_6" data-name="Group 6" transform="translate(-1.666 0.348)">
    <g id="Group_5" data-name="Group 5">
      <g id="Group_2" data-name="Group 2">
        <g id="Group_1" data-name="Group 1" transform="translate(-5 2)">
          <path id="Path_1" data-name="Path 1" d="M303.592,466.333l2.173-5.667,1.909,5.667,5.992.267-4.477,3.733,1.58,6-5-3.333-4.938,3.333,1.58-6-4.741-3.733Z" transform="translate(-275 -462)" fill="#797979"/>
          <path id="Path_2" data-name="Path 2" d="M303.592,466.333l2.173-5.667,1.909,5.667,5.992.267-4.477,3.733,1.58,6-5-3.333-4.938,3.333,1.58-6-4.741-3.733Z" transform="translate(-259 -462)" fill="#797979"/>
          <path id="Path_3" data-name="Path 3" d="M303.592,466.333l2.173-5.667,1.909,5.667,5.992.267-4.477,3.733,1.58,6-5-3.333-4.938,3.333,1.58-6-4.741-3.733Z" transform="translate(-243.001 -462)" fill="#797979"/>
          <path id="Path_4" data-name="Path 4" d="M303.592,466.333l2.173-5.667,1.909,5.667,5.992.267-4.477,3.733,1.58,6-5-3.333-4.938,3.333,1.58-6-4.741-3.733Z" transform="translate(-227.001 -462)" fill="#797979"/>
          <path id="Path_5" data-name="Path 5" d="M303.592,466.333l2.173-5.667,1.909,5.667,5.992.267-4.477,3.733,1.58,6-5-3.333-4.938,3.333,1.58-6-4.741-3.733Z" transform="translate(-291 -462)" fill="#797979"/>
          <g id="Mask_Group_1" data-name="Mask Group 1" transform="translate(-291 -599)" clip-path="url(#clip-path)">
            <path id="Path_6" data-name="Path 6" d="M303.592,466.333l2.173-5.667,1.909,5.667,5.992.267-4.477,3.733,1.58,6-5-3.333-4.938,3.333,1.58-6-4.741-3.733Z" transform="translate(0 137)" fill="#ffba00"/>
          </g>
        </g>
      </g>
    </g>
  </g>
</svg>
